%TF.GenerationSoftware,KiCad,Pcbnew,(6.0.5)*%
%TF.CreationDate,2022-06-14T15:57:39+02:00*%
%TF.ProjectId,SmartWatering,536d6172-7457-4617-9465-72696e672e6b,rev?*%
%TF.SameCoordinates,Original*%
%TF.FileFunction,Legend,Top*%
%TF.FilePolarity,Positive*%
%FSLAX46Y46*%
G04 Gerber Fmt 4.6, Leading zero omitted, Abs format (unit mm)*
G04 Created by KiCad (PCBNEW (6.0.5)) date 2022-06-14 15:57:39*
%MOMM*%
%LPD*%
G01*
G04 APERTURE LIST*
%ADD10C,0.300000*%
%ADD11C,0.150000*%
%ADD12C,0.120000*%
%ADD13C,0.100000*%
%ADD14C,0.500000*%
G04 APERTURE END LIST*
D10*
X137535714Y-118678571D02*
X137535714Y-117178571D01*
X138392857Y-118678571D01*
X138392857Y-117178571D01*
X139964285Y-118535714D02*
X139892857Y-118607142D01*
X139678571Y-118678571D01*
X139535714Y-118678571D01*
X139321428Y-118607142D01*
X139178571Y-118464285D01*
X139107142Y-118321428D01*
X139035714Y-118035714D01*
X139035714Y-117821428D01*
X139107142Y-117535714D01*
X139178571Y-117392857D01*
X139321428Y-117250000D01*
X139535714Y-117178571D01*
X139678571Y-117178571D01*
X139892857Y-117250000D01*
X139964285Y-117321428D01*
X141678571Y-117107142D02*
X140392857Y-119035714D01*
X142178571Y-118678571D02*
X142178571Y-117178571D01*
X143035714Y-118678571D01*
X143035714Y-117178571D01*
X144035714Y-117178571D02*
X144321428Y-117178571D01*
X144464285Y-117250000D01*
X144607142Y-117392857D01*
X144678571Y-117678571D01*
X144678571Y-118178571D01*
X144607142Y-118464285D01*
X144464285Y-118607142D01*
X144321428Y-118678571D01*
X144035714Y-118678571D01*
X143892857Y-118607142D01*
X143750000Y-118464285D01*
X143678571Y-118178571D01*
X143678571Y-117678571D01*
X143750000Y-117392857D01*
X143892857Y-117250000D01*
X144035714Y-117178571D01*
X146392857Y-117107142D02*
X145107142Y-119035714D01*
X146892857Y-118678571D02*
X146892857Y-117178571D01*
X147607142Y-118678571D02*
X147607142Y-117178571D01*
X148464285Y-118678571D01*
X148464285Y-117178571D01*
X112535714Y-118678571D02*
X112535714Y-117178571D01*
X113392857Y-118678571D01*
X113392857Y-117178571D01*
X114964285Y-118535714D02*
X114892857Y-118607142D01*
X114678571Y-118678571D01*
X114535714Y-118678571D01*
X114321428Y-118607142D01*
X114178571Y-118464285D01*
X114107142Y-118321428D01*
X114035714Y-118035714D01*
X114035714Y-117821428D01*
X114107142Y-117535714D01*
X114178571Y-117392857D01*
X114321428Y-117250000D01*
X114535714Y-117178571D01*
X114678571Y-117178571D01*
X114892857Y-117250000D01*
X114964285Y-117321428D01*
X116678571Y-117107142D02*
X115392857Y-119035714D01*
X117178571Y-118678571D02*
X117178571Y-117178571D01*
X118035714Y-118678571D01*
X118035714Y-117178571D01*
X119035714Y-117178571D02*
X119321428Y-117178571D01*
X119464285Y-117250000D01*
X119607142Y-117392857D01*
X119678571Y-117678571D01*
X119678571Y-118178571D01*
X119607142Y-118464285D01*
X119464285Y-118607142D01*
X119321428Y-118678571D01*
X119035714Y-118678571D01*
X118892857Y-118607142D01*
X118750000Y-118464285D01*
X118678571Y-118178571D01*
X118678571Y-117678571D01*
X118750000Y-117392857D01*
X118892857Y-117250000D01*
X119035714Y-117178571D01*
X121392857Y-117107142D02*
X120107142Y-119035714D01*
X121892857Y-118678571D02*
X121892857Y-117178571D01*
X122607142Y-118678571D02*
X122607142Y-117178571D01*
X123464285Y-118678571D01*
X123464285Y-117178571D01*
X88535714Y-118678571D02*
X88535714Y-117178571D01*
X89392857Y-118678571D01*
X89392857Y-117178571D01*
X90964285Y-118535714D02*
X90892857Y-118607142D01*
X90678571Y-118678571D01*
X90535714Y-118678571D01*
X90321428Y-118607142D01*
X90178571Y-118464285D01*
X90107142Y-118321428D01*
X90035714Y-118035714D01*
X90035714Y-117821428D01*
X90107142Y-117535714D01*
X90178571Y-117392857D01*
X90321428Y-117250000D01*
X90535714Y-117178571D01*
X90678571Y-117178571D01*
X90892857Y-117250000D01*
X90964285Y-117321428D01*
X92678571Y-117107142D02*
X91392857Y-119035714D01*
X93178571Y-118678571D02*
X93178571Y-117178571D01*
X94035714Y-118678571D01*
X94035714Y-117178571D01*
X95035714Y-117178571D02*
X95321428Y-117178571D01*
X95464285Y-117250000D01*
X95607142Y-117392857D01*
X95678571Y-117678571D01*
X95678571Y-118178571D01*
X95607142Y-118464285D01*
X95464285Y-118607142D01*
X95321428Y-118678571D01*
X95035714Y-118678571D01*
X94892857Y-118607142D01*
X94750000Y-118464285D01*
X94678571Y-118178571D01*
X94678571Y-117678571D01*
X94750000Y-117392857D01*
X94892857Y-117250000D01*
X95035714Y-117178571D01*
X97392857Y-117107142D02*
X96107142Y-119035714D01*
X97892857Y-118678571D02*
X97892857Y-117178571D01*
X98607142Y-118678571D02*
X98607142Y-117178571D01*
X99464285Y-118678571D01*
X99464285Y-117178571D01*
X63535714Y-118678571D02*
X63535714Y-117178571D01*
X64392857Y-118678571D01*
X64392857Y-117178571D01*
X65964285Y-118535714D02*
X65892857Y-118607142D01*
X65678571Y-118678571D01*
X65535714Y-118678571D01*
X65321428Y-118607142D01*
X65178571Y-118464285D01*
X65107142Y-118321428D01*
X65035714Y-118035714D01*
X65035714Y-117821428D01*
X65107142Y-117535714D01*
X65178571Y-117392857D01*
X65321428Y-117250000D01*
X65535714Y-117178571D01*
X65678571Y-117178571D01*
X65892857Y-117250000D01*
X65964285Y-117321428D01*
X67678571Y-117107142D02*
X66392857Y-119035714D01*
X68178571Y-118678571D02*
X68178571Y-117178571D01*
X69035714Y-118678571D01*
X69035714Y-117178571D01*
X70035714Y-117178571D02*
X70321428Y-117178571D01*
X70464285Y-117250000D01*
X70607142Y-117392857D01*
X70678571Y-117678571D01*
X70678571Y-118178571D01*
X70607142Y-118464285D01*
X70464285Y-118607142D01*
X70321428Y-118678571D01*
X70035714Y-118678571D01*
X69892857Y-118607142D01*
X69750000Y-118464285D01*
X69678571Y-118178571D01*
X69678571Y-117678571D01*
X69750000Y-117392857D01*
X69892857Y-117250000D01*
X70035714Y-117178571D01*
X72392857Y-117107142D02*
X71107142Y-119035714D01*
X72892857Y-118678571D02*
X72892857Y-117178571D01*
X73607142Y-118678571D02*
X73607142Y-117178571D01*
X74464285Y-118678571D01*
X74464285Y-117178571D01*
D11*
X125230476Y-50834761D02*
X125373333Y-50882380D01*
X125611428Y-50882380D01*
X125706666Y-50834761D01*
X125754285Y-50787142D01*
X125801904Y-50691904D01*
X125801904Y-50596666D01*
X125754285Y-50501428D01*
X125706666Y-50453809D01*
X125611428Y-50406190D01*
X125420952Y-50358571D01*
X125325714Y-50310952D01*
X125278095Y-50263333D01*
X125230476Y-50168095D01*
X125230476Y-50072857D01*
X125278095Y-49977619D01*
X125325714Y-49930000D01*
X125420952Y-49882380D01*
X125659047Y-49882380D01*
X125801904Y-49930000D01*
X126230476Y-50358571D02*
X126563809Y-50358571D01*
X126706666Y-50882380D02*
X126230476Y-50882380D01*
X126230476Y-49882380D01*
X126706666Y-49882380D01*
X127706666Y-50882380D02*
X127373333Y-50406190D01*
X127135238Y-50882380D02*
X127135238Y-49882380D01*
X127516190Y-49882380D01*
X127611428Y-49930000D01*
X127659047Y-49977619D01*
X127706666Y-50072857D01*
X127706666Y-50215714D01*
X127659047Y-50310952D01*
X127611428Y-50358571D01*
X127516190Y-50406190D01*
X127135238Y-50406190D01*
X128135238Y-50882380D02*
X128135238Y-49882380D01*
X128563809Y-50596666D02*
X129040000Y-50596666D01*
X128468571Y-50882380D02*
X128801904Y-49882380D01*
X129135238Y-50882380D01*
X129944761Y-50882380D02*
X129468571Y-50882380D01*
X129468571Y-49882380D01*
X45987142Y-57227142D02*
X46287142Y-58127142D01*
X46587142Y-57227142D01*
X46887142Y-58127142D02*
X46887142Y-57227142D01*
X47101428Y-57227142D01*
X47230000Y-57270000D01*
X47315714Y-57355714D01*
X47358571Y-57441428D01*
X47401428Y-57612857D01*
X47401428Y-57741428D01*
X47358571Y-57912857D01*
X47315714Y-57998571D01*
X47230000Y-58084285D01*
X47101428Y-58127142D01*
X46887142Y-58127142D01*
X47787142Y-58127142D02*
X47787142Y-57227142D01*
X48001428Y-57227142D01*
X48130000Y-57270000D01*
X48215714Y-57355714D01*
X48258571Y-57441428D01*
X48301428Y-57612857D01*
X48301428Y-57741428D01*
X48258571Y-57912857D01*
X48215714Y-57998571D01*
X48130000Y-58084285D01*
X48001428Y-58127142D01*
X47787142Y-58127142D01*
X49244285Y-57227142D02*
X49544285Y-58127142D01*
X49844285Y-57227142D01*
X50144285Y-58127142D02*
X50144285Y-57227142D01*
X50358571Y-57227142D01*
X50487142Y-57270000D01*
X50572857Y-57355714D01*
X50615714Y-57441428D01*
X50658571Y-57612857D01*
X50658571Y-57741428D01*
X50615714Y-57912857D01*
X50572857Y-57998571D01*
X50487142Y-58084285D01*
X50358571Y-58127142D01*
X50144285Y-58127142D01*
X51044285Y-58127142D02*
X51044285Y-57227142D01*
X51258571Y-57227142D01*
X51387142Y-57270000D01*
X51472857Y-57355714D01*
X51515714Y-57441428D01*
X51558571Y-57612857D01*
X51558571Y-57741428D01*
X51515714Y-57912857D01*
X51472857Y-57998571D01*
X51387142Y-58084285D01*
X51258571Y-58127142D01*
X51044285Y-58127142D01*
X52501428Y-57227142D02*
X52801428Y-58127142D01*
X53101428Y-57227142D01*
X53401428Y-58127142D02*
X53401428Y-57227142D01*
X53615714Y-57227142D01*
X53744285Y-57270000D01*
X53830000Y-57355714D01*
X53872857Y-57441428D01*
X53915714Y-57612857D01*
X53915714Y-57741428D01*
X53872857Y-57912857D01*
X53830000Y-57998571D01*
X53744285Y-58084285D01*
X53615714Y-58127142D01*
X53401428Y-58127142D01*
X54301428Y-58127142D02*
X54301428Y-57227142D01*
X54515714Y-57227142D01*
X54644285Y-57270000D01*
X54730000Y-57355714D01*
X54772857Y-57441428D01*
X54815714Y-57612857D01*
X54815714Y-57741428D01*
X54772857Y-57912857D01*
X54730000Y-57998571D01*
X54644285Y-58084285D01*
X54515714Y-58127142D01*
X54301428Y-58127142D01*
X55801428Y-57227142D02*
X56358571Y-57227142D01*
X56058571Y-57570000D01*
X56187142Y-57570000D01*
X56272857Y-57612857D01*
X56315714Y-57655714D01*
X56358571Y-57741428D01*
X56358571Y-57955714D01*
X56315714Y-58041428D01*
X56272857Y-58084285D01*
X56187142Y-58127142D01*
X55930000Y-58127142D01*
X55844285Y-58084285D01*
X55801428Y-58041428D01*
X56744285Y-58041428D02*
X56787142Y-58084285D01*
X56744285Y-58127142D01*
X56701428Y-58084285D01*
X56744285Y-58041428D01*
X56744285Y-58127142D01*
X57087142Y-57227142D02*
X57644285Y-57227142D01*
X57344285Y-57570000D01*
X57472857Y-57570000D01*
X57558571Y-57612857D01*
X57601428Y-57655714D01*
X57644285Y-57741428D01*
X57644285Y-57955714D01*
X57601428Y-58041428D01*
X57558571Y-58084285D01*
X57472857Y-58127142D01*
X57215714Y-58127142D01*
X57130000Y-58084285D01*
X57087142Y-58041428D01*
X57901428Y-57227142D02*
X58201428Y-58127142D01*
X58501428Y-57227142D01*
X59401428Y-57227142D02*
X59958571Y-57227142D01*
X59658571Y-57570000D01*
X59787142Y-57570000D01*
X59872857Y-57612857D01*
X59915714Y-57655714D01*
X59958571Y-57741428D01*
X59958571Y-57955714D01*
X59915714Y-58041428D01*
X59872857Y-58084285D01*
X59787142Y-58127142D01*
X59530000Y-58127142D01*
X59444285Y-58084285D01*
X59401428Y-58041428D01*
X60344285Y-58041428D02*
X60387142Y-58084285D01*
X60344285Y-58127142D01*
X60301428Y-58084285D01*
X60344285Y-58041428D01*
X60344285Y-58127142D01*
X60687142Y-57227142D02*
X61244285Y-57227142D01*
X60944285Y-57570000D01*
X61072857Y-57570000D01*
X61158571Y-57612857D01*
X61201428Y-57655714D01*
X61244285Y-57741428D01*
X61244285Y-57955714D01*
X61201428Y-58041428D01*
X61158571Y-58084285D01*
X61072857Y-58127142D01*
X60815714Y-58127142D01*
X60730000Y-58084285D01*
X60687142Y-58041428D01*
X61501428Y-57227142D02*
X61801428Y-58127142D01*
X62101428Y-57227142D01*
X63001428Y-57227142D02*
X63558571Y-57227142D01*
X63258571Y-57570000D01*
X63387142Y-57570000D01*
X63472857Y-57612857D01*
X63515714Y-57655714D01*
X63558571Y-57741428D01*
X63558571Y-57955714D01*
X63515714Y-58041428D01*
X63472857Y-58084285D01*
X63387142Y-58127142D01*
X63130000Y-58127142D01*
X63044285Y-58084285D01*
X63001428Y-58041428D01*
X63944285Y-58041428D02*
X63987142Y-58084285D01*
X63944285Y-58127142D01*
X63901428Y-58084285D01*
X63944285Y-58041428D01*
X63944285Y-58127142D01*
X64287142Y-57227142D02*
X64844285Y-57227142D01*
X64544285Y-57570000D01*
X64672857Y-57570000D01*
X64758571Y-57612857D01*
X64801428Y-57655714D01*
X64844285Y-57741428D01*
X64844285Y-57955714D01*
X64801428Y-58041428D01*
X64758571Y-58084285D01*
X64672857Y-58127142D01*
X64415714Y-58127142D01*
X64330000Y-58084285D01*
X64287142Y-58041428D01*
X65101428Y-57227142D02*
X65401428Y-58127142D01*
X65701428Y-57227142D01*
X66601428Y-57227142D02*
X67158571Y-57227142D01*
X66858571Y-57570000D01*
X66987142Y-57570000D01*
X67072857Y-57612857D01*
X67115714Y-57655714D01*
X67158571Y-57741428D01*
X67158571Y-57955714D01*
X67115714Y-58041428D01*
X67072857Y-58084285D01*
X66987142Y-58127142D01*
X66730000Y-58127142D01*
X66644285Y-58084285D01*
X66601428Y-58041428D01*
X67544285Y-58041428D02*
X67587142Y-58084285D01*
X67544285Y-58127142D01*
X67501428Y-58084285D01*
X67544285Y-58041428D01*
X67544285Y-58127142D01*
X67887142Y-57227142D02*
X68444285Y-57227142D01*
X68144285Y-57570000D01*
X68272857Y-57570000D01*
X68358571Y-57612857D01*
X68401428Y-57655714D01*
X68444285Y-57741428D01*
X68444285Y-57955714D01*
X68401428Y-58041428D01*
X68358571Y-58084285D01*
X68272857Y-58127142D01*
X68015714Y-58127142D01*
X67930000Y-58084285D01*
X67887142Y-58041428D01*
X68701428Y-57227142D02*
X69001428Y-58127142D01*
X69301428Y-57227142D01*
X70715714Y-57227142D02*
X70287142Y-57227142D01*
X70244285Y-57655714D01*
X70287142Y-57612857D01*
X70372857Y-57570000D01*
X70587142Y-57570000D01*
X70672857Y-57612857D01*
X70715714Y-57655714D01*
X70758571Y-57741428D01*
X70758571Y-57955714D01*
X70715714Y-58041428D01*
X70672857Y-58084285D01*
X70587142Y-58127142D01*
X70372857Y-58127142D01*
X70287142Y-58084285D01*
X70244285Y-58041428D01*
X71015714Y-57227142D02*
X71315714Y-58127142D01*
X71615714Y-57227142D01*
X73030000Y-57227142D02*
X72601428Y-57227142D01*
X72558571Y-57655714D01*
X72601428Y-57612857D01*
X72687142Y-57570000D01*
X72901428Y-57570000D01*
X72987142Y-57612857D01*
X73030000Y-57655714D01*
X73072857Y-57741428D01*
X73072857Y-57955714D01*
X73030000Y-58041428D01*
X72987142Y-58084285D01*
X72901428Y-58127142D01*
X72687142Y-58127142D01*
X72601428Y-58084285D01*
X72558571Y-58041428D01*
X73330000Y-57227142D02*
X73630000Y-58127142D01*
X73930000Y-57227142D01*
X75344285Y-57227142D02*
X74915714Y-57227142D01*
X74872857Y-57655714D01*
X74915714Y-57612857D01*
X75001428Y-57570000D01*
X75215714Y-57570000D01*
X75301428Y-57612857D01*
X75344285Y-57655714D01*
X75387142Y-57741428D01*
X75387142Y-57955714D01*
X75344285Y-58041428D01*
X75301428Y-58084285D01*
X75215714Y-58127142D01*
X75001428Y-58127142D01*
X74915714Y-58084285D01*
X74872857Y-58041428D01*
X75644285Y-57227142D02*
X75944285Y-58127142D01*
X76244285Y-57227142D01*
X77658571Y-57227142D02*
X77230000Y-57227142D01*
X77187142Y-57655714D01*
X77230000Y-57612857D01*
X77315714Y-57570000D01*
X77530000Y-57570000D01*
X77615714Y-57612857D01*
X77658571Y-57655714D01*
X77701428Y-57741428D01*
X77701428Y-57955714D01*
X77658571Y-58041428D01*
X77615714Y-58084285D01*
X77530000Y-58127142D01*
X77315714Y-58127142D01*
X77230000Y-58084285D01*
X77187142Y-58041428D01*
X77958571Y-57227142D02*
X78258571Y-58127142D01*
X78558571Y-57227142D01*
X79972857Y-57227142D02*
X79544285Y-57227142D01*
X79501428Y-57655714D01*
X79544285Y-57612857D01*
X79630000Y-57570000D01*
X79844285Y-57570000D01*
X79930000Y-57612857D01*
X79972857Y-57655714D01*
X80015714Y-57741428D01*
X80015714Y-57955714D01*
X79972857Y-58041428D01*
X79930000Y-58084285D01*
X79844285Y-58127142D01*
X79630000Y-58127142D01*
X79544285Y-58084285D01*
X79501428Y-58041428D01*
X80272857Y-57227142D02*
X80572857Y-58127142D01*
X80872857Y-57227142D01*
X81772857Y-57227142D02*
X82330000Y-57227142D01*
X82030000Y-57570000D01*
X82158571Y-57570000D01*
X82244285Y-57612857D01*
X82287142Y-57655714D01*
X82330000Y-57741428D01*
X82330000Y-57955714D01*
X82287142Y-58041428D01*
X82244285Y-58084285D01*
X82158571Y-58127142D01*
X81901428Y-58127142D01*
X81815714Y-58084285D01*
X81772857Y-58041428D01*
X83101428Y-57527142D02*
X83101428Y-58127142D01*
X82887142Y-57184285D02*
X82672857Y-57827142D01*
X83230000Y-57827142D01*
X84172857Y-57227142D02*
X84730000Y-57227142D01*
X84430000Y-57570000D01*
X84558571Y-57570000D01*
X84644285Y-57612857D01*
X84687142Y-57655714D01*
X84730000Y-57741428D01*
X84730000Y-57955714D01*
X84687142Y-58041428D01*
X84644285Y-58084285D01*
X84558571Y-58127142D01*
X84301428Y-58127142D01*
X84215714Y-58084285D01*
X84172857Y-58041428D01*
X85544285Y-57227142D02*
X85115714Y-57227142D01*
X85072857Y-57655714D01*
X85115714Y-57612857D01*
X85201428Y-57570000D01*
X85415714Y-57570000D01*
X85501428Y-57612857D01*
X85544285Y-57655714D01*
X85587142Y-57741428D01*
X85587142Y-57955714D01*
X85544285Y-58041428D01*
X85501428Y-58084285D01*
X85415714Y-58127142D01*
X85201428Y-58127142D01*
X85115714Y-58084285D01*
X85072857Y-58041428D01*
X86572857Y-57227142D02*
X87130000Y-57227142D01*
X86830000Y-57570000D01*
X86958571Y-57570000D01*
X87044285Y-57612857D01*
X87087142Y-57655714D01*
X87130000Y-57741428D01*
X87130000Y-57955714D01*
X87087142Y-58041428D01*
X87044285Y-58084285D01*
X86958571Y-58127142D01*
X86701428Y-58127142D01*
X86615714Y-58084285D01*
X86572857Y-58041428D01*
X87472857Y-57312857D02*
X87515714Y-57270000D01*
X87601428Y-57227142D01*
X87815714Y-57227142D01*
X87901428Y-57270000D01*
X87944285Y-57312857D01*
X87987142Y-57398571D01*
X87987142Y-57484285D01*
X87944285Y-57612857D01*
X87430000Y-58127142D01*
X87987142Y-58127142D01*
X88972857Y-57227142D02*
X89530000Y-57227142D01*
X89230000Y-57570000D01*
X89358571Y-57570000D01*
X89444285Y-57612857D01*
X89487142Y-57655714D01*
X89530000Y-57741428D01*
X89530000Y-57955714D01*
X89487142Y-58041428D01*
X89444285Y-58084285D01*
X89358571Y-58127142D01*
X89101428Y-58127142D01*
X89015714Y-58084285D01*
X88972857Y-58041428D01*
X89830000Y-57227142D02*
X90387142Y-57227142D01*
X90087142Y-57570000D01*
X90215714Y-57570000D01*
X90301428Y-57612857D01*
X90344285Y-57655714D01*
X90387142Y-57741428D01*
X90387142Y-57955714D01*
X90344285Y-58041428D01*
X90301428Y-58084285D01*
X90215714Y-58127142D01*
X89958571Y-58127142D01*
X89872857Y-58084285D01*
X89830000Y-58041428D01*
X91415714Y-57312857D02*
X91458571Y-57270000D01*
X91544285Y-57227142D01*
X91758571Y-57227142D01*
X91844285Y-57270000D01*
X91887142Y-57312857D01*
X91930000Y-57398571D01*
X91930000Y-57484285D01*
X91887142Y-57612857D01*
X91372857Y-58127142D01*
X91930000Y-58127142D01*
X92744285Y-57227142D02*
X92315714Y-57227142D01*
X92272857Y-57655714D01*
X92315714Y-57612857D01*
X92401428Y-57570000D01*
X92615714Y-57570000D01*
X92701428Y-57612857D01*
X92744285Y-57655714D01*
X92787142Y-57741428D01*
X92787142Y-57955714D01*
X92744285Y-58041428D01*
X92701428Y-58084285D01*
X92615714Y-58127142D01*
X92401428Y-58127142D01*
X92315714Y-58084285D01*
X92272857Y-58041428D01*
X93815714Y-57312857D02*
X93858571Y-57270000D01*
X93944285Y-57227142D01*
X94158571Y-57227142D01*
X94244285Y-57270000D01*
X94287142Y-57312857D01*
X94330000Y-57398571D01*
X94330000Y-57484285D01*
X94287142Y-57612857D01*
X93772857Y-58127142D01*
X94330000Y-58127142D01*
X95101428Y-57227142D02*
X94930000Y-57227142D01*
X94844285Y-57270000D01*
X94801428Y-57312857D01*
X94715714Y-57441428D01*
X94672857Y-57612857D01*
X94672857Y-57955714D01*
X94715714Y-58041428D01*
X94758571Y-58084285D01*
X94844285Y-58127142D01*
X95015714Y-58127142D01*
X95101428Y-58084285D01*
X95144285Y-58041428D01*
X95187142Y-57955714D01*
X95187142Y-57741428D01*
X95144285Y-57655714D01*
X95101428Y-57612857D01*
X95015714Y-57570000D01*
X94844285Y-57570000D01*
X94758571Y-57612857D01*
X94715714Y-57655714D01*
X94672857Y-57741428D01*
X136011904Y-32692380D02*
X135678571Y-32216190D01*
X135440476Y-32692380D02*
X135440476Y-31692380D01*
X135821428Y-31692380D01*
X135916666Y-31740000D01*
X135964285Y-31787619D01*
X136011904Y-31882857D01*
X136011904Y-32025714D01*
X135964285Y-32120952D01*
X135916666Y-32168571D01*
X135821428Y-32216190D01*
X135440476Y-32216190D01*
X136821428Y-32644761D02*
X136726190Y-32692380D01*
X136535714Y-32692380D01*
X136440476Y-32644761D01*
X136392857Y-32549523D01*
X136392857Y-32168571D01*
X136440476Y-32073333D01*
X136535714Y-32025714D01*
X136726190Y-32025714D01*
X136821428Y-32073333D01*
X136869047Y-32168571D01*
X136869047Y-32263809D01*
X136392857Y-32359047D01*
X137250000Y-32644761D02*
X137345238Y-32692380D01*
X137535714Y-32692380D01*
X137630952Y-32644761D01*
X137678571Y-32549523D01*
X137678571Y-32501904D01*
X137630952Y-32406666D01*
X137535714Y-32359047D01*
X137392857Y-32359047D01*
X137297619Y-32311428D01*
X137250000Y-32216190D01*
X137250000Y-32168571D01*
X137297619Y-32073333D01*
X137392857Y-32025714D01*
X137535714Y-32025714D01*
X137630952Y-32073333D01*
X138488095Y-32644761D02*
X138392857Y-32692380D01*
X138202380Y-32692380D01*
X138107142Y-32644761D01*
X138059523Y-32549523D01*
X138059523Y-32168571D01*
X138107142Y-32073333D01*
X138202380Y-32025714D01*
X138392857Y-32025714D01*
X138488095Y-32073333D01*
X138535714Y-32168571D01*
X138535714Y-32263809D01*
X138059523Y-32359047D01*
X138821428Y-32025714D02*
X139202380Y-32025714D01*
X138964285Y-31692380D02*
X138964285Y-32549523D01*
X139011904Y-32644761D01*
X139107142Y-32692380D01*
X139202380Y-32692380D01*
X156734761Y-46509523D02*
X156782380Y-46366666D01*
X156782380Y-46128571D01*
X156734761Y-46033333D01*
X156687142Y-45985714D01*
X156591904Y-45938095D01*
X156496666Y-45938095D01*
X156401428Y-45985714D01*
X156353809Y-46033333D01*
X156306190Y-46128571D01*
X156258571Y-46319047D01*
X156210952Y-46414285D01*
X156163333Y-46461904D01*
X156068095Y-46509523D01*
X155972857Y-46509523D01*
X155877619Y-46461904D01*
X155830000Y-46414285D01*
X155782380Y-46319047D01*
X155782380Y-46080952D01*
X155830000Y-45938095D01*
X156782380Y-44938095D02*
X156306190Y-45271428D01*
X156782380Y-45509523D02*
X155782380Y-45509523D01*
X155782380Y-45128571D01*
X155830000Y-45033333D01*
X155877619Y-44985714D01*
X155972857Y-44938095D01*
X156115714Y-44938095D01*
X156210952Y-44985714D01*
X156258571Y-45033333D01*
X156306190Y-45128571D01*
X156306190Y-45509523D01*
X155782380Y-44319047D02*
X155782380Y-44223809D01*
X155830000Y-44128571D01*
X155877619Y-44080952D01*
X155972857Y-44033333D01*
X156163333Y-43985714D01*
X156401428Y-43985714D01*
X156591904Y-44033333D01*
X156687142Y-44080952D01*
X156734761Y-44128571D01*
X156782380Y-44223809D01*
X156782380Y-44319047D01*
X156734761Y-44414285D01*
X156687142Y-44461904D01*
X156591904Y-44509523D01*
X156401428Y-44557142D01*
X156163333Y-44557142D01*
X155972857Y-44509523D01*
X155877619Y-44461904D01*
X155830000Y-44414285D01*
X155782380Y-44319047D01*
X156115714Y-43128571D02*
X156782380Y-43128571D01*
X155734761Y-43366666D02*
X156449047Y-43604761D01*
X156449047Y-42985714D01*
X156782380Y-42604761D02*
X155782380Y-42604761D01*
X156496666Y-42271428D01*
X155782380Y-41938095D01*
X156782380Y-41938095D01*
D10*
X37775714Y-118528571D02*
X37775714Y-117028571D01*
X38632857Y-118528571D01*
X38632857Y-117028571D01*
X40204285Y-118385714D02*
X40132857Y-118457142D01*
X39918571Y-118528571D01*
X39775714Y-118528571D01*
X39561428Y-118457142D01*
X39418571Y-118314285D01*
X39347142Y-118171428D01*
X39275714Y-117885714D01*
X39275714Y-117671428D01*
X39347142Y-117385714D01*
X39418571Y-117242857D01*
X39561428Y-117100000D01*
X39775714Y-117028571D01*
X39918571Y-117028571D01*
X40132857Y-117100000D01*
X40204285Y-117171428D01*
X41918571Y-116957142D02*
X40632857Y-118885714D01*
X42418571Y-118528571D02*
X42418571Y-117028571D01*
X43275714Y-118528571D01*
X43275714Y-117028571D01*
X44275714Y-117028571D02*
X44561428Y-117028571D01*
X44704285Y-117100000D01*
X44847142Y-117242857D01*
X44918571Y-117528571D01*
X44918571Y-118028571D01*
X44847142Y-118314285D01*
X44704285Y-118457142D01*
X44561428Y-118528571D01*
X44275714Y-118528571D01*
X44132857Y-118457142D01*
X43990000Y-118314285D01*
X43918571Y-118028571D01*
X43918571Y-117528571D01*
X43990000Y-117242857D01*
X44132857Y-117100000D01*
X44275714Y-117028571D01*
X46632857Y-116957142D02*
X45347142Y-118885714D01*
X47132857Y-118528571D02*
X47132857Y-117028571D01*
X47847142Y-118528571D02*
X47847142Y-117028571D01*
X48704285Y-118528571D01*
X48704285Y-117028571D01*
D11*
X116971428Y-32168571D02*
X116638095Y-32168571D01*
X116638095Y-32692380D02*
X116638095Y-31692380D01*
X117114285Y-31692380D01*
X117638095Y-32692380D02*
X117542857Y-32644761D01*
X117495238Y-32549523D01*
X117495238Y-31692380D01*
X118447619Y-32692380D02*
X118447619Y-32168571D01*
X118400000Y-32073333D01*
X118304761Y-32025714D01*
X118114285Y-32025714D01*
X118019047Y-32073333D01*
X118447619Y-32644761D02*
X118352380Y-32692380D01*
X118114285Y-32692380D01*
X118019047Y-32644761D01*
X117971428Y-32549523D01*
X117971428Y-32454285D01*
X118019047Y-32359047D01*
X118114285Y-32311428D01*
X118352380Y-32311428D01*
X118447619Y-32263809D01*
X118876190Y-32644761D02*
X118971428Y-32692380D01*
X119161904Y-32692380D01*
X119257142Y-32644761D01*
X119304761Y-32549523D01*
X119304761Y-32501904D01*
X119257142Y-32406666D01*
X119161904Y-32359047D01*
X119019047Y-32359047D01*
X118923809Y-32311428D01*
X118876190Y-32216190D01*
X118876190Y-32168571D01*
X118923809Y-32073333D01*
X119019047Y-32025714D01*
X119161904Y-32025714D01*
X119257142Y-32073333D01*
X119733333Y-32692380D02*
X119733333Y-31692380D01*
X120161904Y-32692380D02*
X120161904Y-32168571D01*
X120114285Y-32073333D01*
X120019047Y-32025714D01*
X119876190Y-32025714D01*
X119780952Y-32073333D01*
X119733333Y-32120952D01*
X47493809Y-64483809D02*
X46808095Y-65512380D01*
X48789047Y-64560000D02*
X48712857Y-64521904D01*
X48598571Y-64521904D01*
X48484285Y-64560000D01*
X48408095Y-64636190D01*
X48370000Y-64712380D01*
X48331904Y-64864761D01*
X48331904Y-64979047D01*
X48370000Y-65131428D01*
X48408095Y-65207619D01*
X48484285Y-65283809D01*
X48598571Y-65321904D01*
X48674761Y-65321904D01*
X48789047Y-65283809D01*
X48827142Y-65245714D01*
X48827142Y-64979047D01*
X48674761Y-64979047D01*
X49170000Y-65321904D02*
X49170000Y-64521904D01*
X49627142Y-65321904D01*
X49627142Y-64521904D01*
X50008095Y-65321904D02*
X50008095Y-64521904D01*
X50198571Y-64521904D01*
X50312857Y-64560000D01*
X50389047Y-64636190D01*
X50427142Y-64712380D01*
X50465238Y-64864761D01*
X50465238Y-64979047D01*
X50427142Y-65131428D01*
X50389047Y-65207619D01*
X50312857Y-65283809D01*
X50198571Y-65321904D01*
X50008095Y-65321904D01*
X51836666Y-64560000D02*
X51760476Y-64521904D01*
X51646190Y-64521904D01*
X51531904Y-64560000D01*
X51455714Y-64636190D01*
X51417619Y-64712380D01*
X51379523Y-64864761D01*
X51379523Y-64979047D01*
X51417619Y-65131428D01*
X51455714Y-65207619D01*
X51531904Y-65283809D01*
X51646190Y-65321904D01*
X51722380Y-65321904D01*
X51836666Y-65283809D01*
X51874761Y-65245714D01*
X51874761Y-64979047D01*
X51722380Y-64979047D01*
X52217619Y-65321904D02*
X52217619Y-64521904D01*
X52674761Y-65321904D01*
X52674761Y-64521904D01*
X53055714Y-65321904D02*
X53055714Y-64521904D01*
X53246190Y-64521904D01*
X53360476Y-64560000D01*
X53436666Y-64636190D01*
X53474761Y-64712380D01*
X53512857Y-64864761D01*
X53512857Y-64979047D01*
X53474761Y-65131428D01*
X53436666Y-65207619D01*
X53360476Y-65283809D01*
X53246190Y-65321904D01*
X53055714Y-65321904D01*
X54884285Y-64560000D02*
X54808095Y-64521904D01*
X54693809Y-64521904D01*
X54579523Y-64560000D01*
X54503333Y-64636190D01*
X54465238Y-64712380D01*
X54427142Y-64864761D01*
X54427142Y-64979047D01*
X54465238Y-65131428D01*
X54503333Y-65207619D01*
X54579523Y-65283809D01*
X54693809Y-65321904D01*
X54770000Y-65321904D01*
X54884285Y-65283809D01*
X54922380Y-65245714D01*
X54922380Y-64979047D01*
X54770000Y-64979047D01*
X55265238Y-65321904D02*
X55265238Y-64521904D01*
X55722380Y-65321904D01*
X55722380Y-64521904D01*
X56103333Y-65321904D02*
X56103333Y-64521904D01*
X56293809Y-64521904D01*
X56408095Y-64560000D01*
X56484285Y-64636190D01*
X56522380Y-64712380D01*
X56560476Y-64864761D01*
X56560476Y-64979047D01*
X56522380Y-65131428D01*
X56484285Y-65207619D01*
X56408095Y-65283809D01*
X56293809Y-65321904D01*
X56103333Y-65321904D01*
X57931904Y-64560000D02*
X57855714Y-64521904D01*
X57741428Y-64521904D01*
X57627142Y-64560000D01*
X57550952Y-64636190D01*
X57512857Y-64712380D01*
X57474761Y-64864761D01*
X57474761Y-64979047D01*
X57512857Y-65131428D01*
X57550952Y-65207619D01*
X57627142Y-65283809D01*
X57741428Y-65321904D01*
X57817619Y-65321904D01*
X57931904Y-65283809D01*
X57970000Y-65245714D01*
X57970000Y-64979047D01*
X57817619Y-64979047D01*
X58312857Y-65321904D02*
X58312857Y-64521904D01*
X58770000Y-65321904D01*
X58770000Y-64521904D01*
X59150952Y-65321904D02*
X59150952Y-64521904D01*
X59341428Y-64521904D01*
X59455714Y-64560000D01*
X59531904Y-64636190D01*
X59570000Y-64712380D01*
X59608095Y-64864761D01*
X59608095Y-64979047D01*
X59570000Y-65131428D01*
X59531904Y-65207619D01*
X59455714Y-65283809D01*
X59341428Y-65321904D01*
X59150952Y-65321904D01*
X60979523Y-64560000D02*
X60903333Y-64521904D01*
X60789047Y-64521904D01*
X60674761Y-64560000D01*
X60598571Y-64636190D01*
X60560476Y-64712380D01*
X60522380Y-64864761D01*
X60522380Y-64979047D01*
X60560476Y-65131428D01*
X60598571Y-65207619D01*
X60674761Y-65283809D01*
X60789047Y-65321904D01*
X60865238Y-65321904D01*
X60979523Y-65283809D01*
X61017619Y-65245714D01*
X61017619Y-64979047D01*
X60865238Y-64979047D01*
X61360476Y-65321904D02*
X61360476Y-64521904D01*
X61817619Y-65321904D01*
X61817619Y-64521904D01*
X62198571Y-65321904D02*
X62198571Y-64521904D01*
X62389047Y-64521904D01*
X62503333Y-64560000D01*
X62579523Y-64636190D01*
X62617619Y-64712380D01*
X62655714Y-64864761D01*
X62655714Y-64979047D01*
X62617619Y-65131428D01*
X62579523Y-65207619D01*
X62503333Y-65283809D01*
X62389047Y-65321904D01*
X62198571Y-65321904D01*
X64027142Y-64560000D02*
X63950952Y-64521904D01*
X63836666Y-64521904D01*
X63722380Y-64560000D01*
X63646190Y-64636190D01*
X63608095Y-64712380D01*
X63570000Y-64864761D01*
X63570000Y-64979047D01*
X63608095Y-65131428D01*
X63646190Y-65207619D01*
X63722380Y-65283809D01*
X63836666Y-65321904D01*
X63912857Y-65321904D01*
X64027142Y-65283809D01*
X64065238Y-65245714D01*
X64065238Y-64979047D01*
X63912857Y-64979047D01*
X64408095Y-65321904D02*
X64408095Y-64521904D01*
X64865238Y-65321904D01*
X64865238Y-64521904D01*
X65246190Y-65321904D02*
X65246190Y-64521904D01*
X65436666Y-64521904D01*
X65550952Y-64560000D01*
X65627142Y-64636190D01*
X65665238Y-64712380D01*
X65703333Y-64864761D01*
X65703333Y-64979047D01*
X65665238Y-65131428D01*
X65627142Y-65207619D01*
X65550952Y-65283809D01*
X65436666Y-65321904D01*
X65246190Y-65321904D01*
X67074761Y-64560000D02*
X66998571Y-64521904D01*
X66884285Y-64521904D01*
X66770000Y-64560000D01*
X66693809Y-64636190D01*
X66655714Y-64712380D01*
X66617619Y-64864761D01*
X66617619Y-64979047D01*
X66655714Y-65131428D01*
X66693809Y-65207619D01*
X66770000Y-65283809D01*
X66884285Y-65321904D01*
X66960476Y-65321904D01*
X67074761Y-65283809D01*
X67112857Y-65245714D01*
X67112857Y-64979047D01*
X66960476Y-64979047D01*
X67455714Y-65321904D02*
X67455714Y-64521904D01*
X67912857Y-65321904D01*
X67912857Y-64521904D01*
X68293809Y-65321904D02*
X68293809Y-64521904D01*
X68484285Y-64521904D01*
X68598571Y-64560000D01*
X68674761Y-64636190D01*
X68712857Y-64712380D01*
X68750952Y-64864761D01*
X68750952Y-64979047D01*
X68712857Y-65131428D01*
X68674761Y-65207619D01*
X68598571Y-65283809D01*
X68484285Y-65321904D01*
X68293809Y-65321904D01*
X70122380Y-64560000D02*
X70046190Y-64521904D01*
X69931904Y-64521904D01*
X69817619Y-64560000D01*
X69741428Y-64636190D01*
X69703333Y-64712380D01*
X69665238Y-64864761D01*
X69665238Y-64979047D01*
X69703333Y-65131428D01*
X69741428Y-65207619D01*
X69817619Y-65283809D01*
X69931904Y-65321904D01*
X70008095Y-65321904D01*
X70122380Y-65283809D01*
X70160476Y-65245714D01*
X70160476Y-64979047D01*
X70008095Y-64979047D01*
X70503333Y-65321904D02*
X70503333Y-64521904D01*
X70960476Y-65321904D01*
X70960476Y-64521904D01*
X71341428Y-65321904D02*
X71341428Y-64521904D01*
X71531904Y-64521904D01*
X71646190Y-64560000D01*
X71722380Y-64636190D01*
X71760476Y-64712380D01*
X71798571Y-64864761D01*
X71798571Y-64979047D01*
X71760476Y-65131428D01*
X71722380Y-65207619D01*
X71646190Y-65283809D01*
X71531904Y-65321904D01*
X71341428Y-65321904D01*
X73170000Y-64560000D02*
X73093809Y-64521904D01*
X72979523Y-64521904D01*
X72865238Y-64560000D01*
X72789047Y-64636190D01*
X72750952Y-64712380D01*
X72712857Y-64864761D01*
X72712857Y-64979047D01*
X72750952Y-65131428D01*
X72789047Y-65207619D01*
X72865238Y-65283809D01*
X72979523Y-65321904D01*
X73055714Y-65321904D01*
X73170000Y-65283809D01*
X73208095Y-65245714D01*
X73208095Y-64979047D01*
X73055714Y-64979047D01*
X73550952Y-65321904D02*
X73550952Y-64521904D01*
X74008095Y-65321904D01*
X74008095Y-64521904D01*
X74389047Y-65321904D02*
X74389047Y-64521904D01*
X74579523Y-64521904D01*
X74693809Y-64560000D01*
X74770000Y-64636190D01*
X74808095Y-64712380D01*
X74846190Y-64864761D01*
X74846190Y-64979047D01*
X74808095Y-65131428D01*
X74770000Y-65207619D01*
X74693809Y-65283809D01*
X74579523Y-65321904D01*
X74389047Y-65321904D01*
X76217619Y-64560000D02*
X76141428Y-64521904D01*
X76027142Y-64521904D01*
X75912857Y-64560000D01*
X75836666Y-64636190D01*
X75798571Y-64712380D01*
X75760476Y-64864761D01*
X75760476Y-64979047D01*
X75798571Y-65131428D01*
X75836666Y-65207619D01*
X75912857Y-65283809D01*
X76027142Y-65321904D01*
X76103333Y-65321904D01*
X76217619Y-65283809D01*
X76255714Y-65245714D01*
X76255714Y-64979047D01*
X76103333Y-64979047D01*
X76598571Y-65321904D02*
X76598571Y-64521904D01*
X77055714Y-65321904D01*
X77055714Y-64521904D01*
X77436666Y-65321904D02*
X77436666Y-64521904D01*
X77627142Y-64521904D01*
X77741428Y-64560000D01*
X77817619Y-64636190D01*
X77855714Y-64712380D01*
X77893809Y-64864761D01*
X77893809Y-64979047D01*
X77855714Y-65131428D01*
X77817619Y-65207619D01*
X77741428Y-65283809D01*
X77627142Y-65321904D01*
X77436666Y-65321904D01*
X79265238Y-64560000D02*
X79189047Y-64521904D01*
X79074761Y-64521904D01*
X78960476Y-64560000D01*
X78884285Y-64636190D01*
X78846190Y-64712380D01*
X78808095Y-64864761D01*
X78808095Y-64979047D01*
X78846190Y-65131428D01*
X78884285Y-65207619D01*
X78960476Y-65283809D01*
X79074761Y-65321904D01*
X79150952Y-65321904D01*
X79265238Y-65283809D01*
X79303333Y-65245714D01*
X79303333Y-64979047D01*
X79150952Y-64979047D01*
X79646190Y-65321904D02*
X79646190Y-64521904D01*
X80103333Y-65321904D01*
X80103333Y-64521904D01*
X80484285Y-65321904D02*
X80484285Y-64521904D01*
X80674761Y-64521904D01*
X80789047Y-64560000D01*
X80865238Y-64636190D01*
X80903333Y-64712380D01*
X80941428Y-64864761D01*
X80941428Y-64979047D01*
X80903333Y-65131428D01*
X80865238Y-65207619D01*
X80789047Y-65283809D01*
X80674761Y-65321904D01*
X80484285Y-65321904D01*
X82312857Y-64560000D02*
X82236666Y-64521904D01*
X82122380Y-64521904D01*
X82008095Y-64560000D01*
X81931904Y-64636190D01*
X81893809Y-64712380D01*
X81855714Y-64864761D01*
X81855714Y-64979047D01*
X81893809Y-65131428D01*
X81931904Y-65207619D01*
X82008095Y-65283809D01*
X82122380Y-65321904D01*
X82198571Y-65321904D01*
X82312857Y-65283809D01*
X82350952Y-65245714D01*
X82350952Y-64979047D01*
X82198571Y-64979047D01*
X82693809Y-65321904D02*
X82693809Y-64521904D01*
X83150952Y-65321904D01*
X83150952Y-64521904D01*
X83531904Y-65321904D02*
X83531904Y-64521904D01*
X83722380Y-64521904D01*
X83836666Y-64560000D01*
X83912857Y-64636190D01*
X83950952Y-64712380D01*
X83989047Y-64864761D01*
X83989047Y-64979047D01*
X83950952Y-65131428D01*
X83912857Y-65207619D01*
X83836666Y-65283809D01*
X83722380Y-65321904D01*
X83531904Y-65321904D01*
X85360476Y-65321904D02*
X84903333Y-65321904D01*
X85131904Y-65321904D02*
X85131904Y-64521904D01*
X85055714Y-64636190D01*
X84979523Y-64712380D01*
X84903333Y-64750476D01*
X85741428Y-65321904D02*
X85893809Y-65321904D01*
X85970000Y-65283809D01*
X86008095Y-65245714D01*
X86084285Y-65131428D01*
X86122380Y-64979047D01*
X86122380Y-64674285D01*
X86084285Y-64598095D01*
X86046190Y-64560000D01*
X85970000Y-64521904D01*
X85817619Y-64521904D01*
X85741428Y-64560000D01*
X85703333Y-64598095D01*
X85665238Y-64674285D01*
X85665238Y-64864761D01*
X85703333Y-64940952D01*
X85741428Y-64979047D01*
X85817619Y-65017142D01*
X85970000Y-65017142D01*
X86046190Y-64979047D01*
X86084285Y-64940952D01*
X86122380Y-64864761D01*
X87036666Y-64598095D02*
X87074761Y-64560000D01*
X87150952Y-64521904D01*
X87341428Y-64521904D01*
X87417619Y-64560000D01*
X87455714Y-64598095D01*
X87493809Y-64674285D01*
X87493809Y-64750476D01*
X87455714Y-64864761D01*
X86998571Y-65321904D01*
X87493809Y-65321904D01*
X88255714Y-65321904D02*
X87798571Y-65321904D01*
X88027142Y-65321904D02*
X88027142Y-64521904D01*
X87950952Y-64636190D01*
X87874761Y-64712380D01*
X87798571Y-64750476D01*
X89627142Y-65321904D02*
X89170000Y-65321904D01*
X89398571Y-65321904D02*
X89398571Y-64521904D01*
X89322380Y-64636190D01*
X89246190Y-64712380D01*
X89170000Y-64750476D01*
X89931904Y-64598095D02*
X89970000Y-64560000D01*
X90046190Y-64521904D01*
X90236666Y-64521904D01*
X90312857Y-64560000D01*
X90350952Y-64598095D01*
X90389047Y-64674285D01*
X90389047Y-64750476D01*
X90350952Y-64864761D01*
X89893809Y-65321904D01*
X90389047Y-65321904D01*
X91760476Y-65321904D02*
X91303333Y-65321904D01*
X91531904Y-65321904D02*
X91531904Y-64521904D01*
X91455714Y-64636190D01*
X91379523Y-64712380D01*
X91303333Y-64750476D01*
X92446190Y-64788571D02*
X92446190Y-65321904D01*
X92255714Y-64483809D02*
X92065238Y-65055238D01*
X92560476Y-65055238D01*
X93436666Y-64598095D02*
X93474761Y-64560000D01*
X93550952Y-64521904D01*
X93741428Y-64521904D01*
X93817619Y-64560000D01*
X93855714Y-64598095D01*
X93893809Y-64674285D01*
X93893809Y-64750476D01*
X93855714Y-64864761D01*
X93398571Y-65321904D01*
X93893809Y-65321904D01*
X94160476Y-64521904D02*
X94693809Y-64521904D01*
X94350952Y-65321904D01*
%TO.C,U2*%
X60816995Y-26753580D02*
X60816995Y-27563104D01*
X60864614Y-27658342D01*
X60912233Y-27705961D01*
X61007471Y-27753580D01*
X61197947Y-27753580D01*
X61293185Y-27705961D01*
X61340804Y-27658342D01*
X61388423Y-27563104D01*
X61388423Y-26753580D01*
X61816995Y-26848819D02*
X61864614Y-26801200D01*
X61959852Y-26753580D01*
X62197947Y-26753580D01*
X62293185Y-26801200D01*
X62340804Y-26848819D01*
X62388423Y-26944057D01*
X62388423Y-27039295D01*
X62340804Y-27182152D01*
X61769376Y-27753580D01*
X62388423Y-27753580D01*
%TO.C,U3*%
X60816995Y-43177380D02*
X60816995Y-43986904D01*
X60864614Y-44082142D01*
X60912233Y-44129761D01*
X61007471Y-44177380D01*
X61197947Y-44177380D01*
X61293185Y-44129761D01*
X61340804Y-44082142D01*
X61388423Y-43986904D01*
X61388423Y-43177380D01*
X61769376Y-43177380D02*
X62388423Y-43177380D01*
X62055090Y-43558333D01*
X62197947Y-43558333D01*
X62293185Y-43605952D01*
X62340804Y-43653571D01*
X62388423Y-43748809D01*
X62388423Y-43986904D01*
X62340804Y-44082142D01*
X62293185Y-44129761D01*
X62197947Y-44177380D01*
X61912233Y-44177380D01*
X61816995Y-44129761D01*
X61769376Y-44082142D01*
%TO.C,K2*%
X76452380Y-90738095D02*
X75452380Y-90738095D01*
X76452380Y-90166666D02*
X75880952Y-90595238D01*
X75452380Y-90166666D02*
X76023809Y-90738095D01*
X75547619Y-89785714D02*
X75500000Y-89738095D01*
X75452380Y-89642857D01*
X75452380Y-89404761D01*
X75500000Y-89309523D01*
X75547619Y-89261904D01*
X75642857Y-89214285D01*
X75738095Y-89214285D01*
X75880952Y-89261904D01*
X76452380Y-89833333D01*
X76452380Y-89214285D01*
%TO.C,J8*%
X127296666Y-39592380D02*
X127296666Y-40306666D01*
X127249047Y-40449523D01*
X127153809Y-40544761D01*
X127010952Y-40592380D01*
X126915714Y-40592380D01*
X127915714Y-40020952D02*
X127820476Y-39973333D01*
X127772857Y-39925714D01*
X127725238Y-39830476D01*
X127725238Y-39782857D01*
X127772857Y-39687619D01*
X127820476Y-39640000D01*
X127915714Y-39592380D01*
X128106190Y-39592380D01*
X128201428Y-39640000D01*
X128249047Y-39687619D01*
X128296666Y-39782857D01*
X128296666Y-39830476D01*
X128249047Y-39925714D01*
X128201428Y-39973333D01*
X128106190Y-40020952D01*
X127915714Y-40020952D01*
X127820476Y-40068571D01*
X127772857Y-40116190D01*
X127725238Y-40211428D01*
X127725238Y-40401904D01*
X127772857Y-40497142D01*
X127820476Y-40544761D01*
X127915714Y-40592380D01*
X128106190Y-40592380D01*
X128201428Y-40544761D01*
X128249047Y-40497142D01*
X128296666Y-40401904D01*
X128296666Y-40211428D01*
X128249047Y-40116190D01*
X128201428Y-40068571D01*
X128106190Y-40020952D01*
%TO.C,R11*%
X42114642Y-68162380D02*
X41781309Y-67686190D01*
X41543214Y-68162380D02*
X41543214Y-67162380D01*
X41924166Y-67162380D01*
X42019404Y-67210000D01*
X42067023Y-67257619D01*
X42114642Y-67352857D01*
X42114642Y-67495714D01*
X42067023Y-67590952D01*
X42019404Y-67638571D01*
X41924166Y-67686190D01*
X41543214Y-67686190D01*
X43067023Y-68162380D02*
X42495595Y-68162380D01*
X42781309Y-68162380D02*
X42781309Y-67162380D01*
X42686071Y-67305238D01*
X42590833Y-67400476D01*
X42495595Y-67448095D01*
X44019404Y-68162380D02*
X43447976Y-68162380D01*
X43733690Y-68162380D02*
X43733690Y-67162380D01*
X43638452Y-67305238D01*
X43543214Y-67400476D01*
X43447976Y-67448095D01*
%TO.C,D9*%
X73273572Y-67952380D02*
X73273572Y-66952380D01*
X73511668Y-66952380D01*
X73654525Y-67000000D01*
X73749763Y-67095238D01*
X73797382Y-67190476D01*
X73845001Y-67380952D01*
X73845001Y-67523809D01*
X73797382Y-67714285D01*
X73749763Y-67809523D01*
X73654525Y-67904761D01*
X73511668Y-67952380D01*
X73273572Y-67952380D01*
X74321191Y-67952380D02*
X74511668Y-67952380D01*
X74606906Y-67904761D01*
X74654525Y-67857142D01*
X74749763Y-67714285D01*
X74797382Y-67523809D01*
X74797382Y-67142857D01*
X74749763Y-67047619D01*
X74702144Y-67000000D01*
X74606906Y-66952380D01*
X74416429Y-66952380D01*
X74321191Y-67000000D01*
X74273572Y-67047619D01*
X74225953Y-67142857D01*
X74225953Y-67380952D01*
X74273572Y-67476190D01*
X74321191Y-67523809D01*
X74416429Y-67571428D01*
X74606906Y-67571428D01*
X74702144Y-67523809D01*
X74749763Y-67476190D01*
X74797382Y-67380952D01*
%TO.C, *%
%TO.C,Q3*%
X88244761Y-71217619D02*
X88149523Y-71170000D01*
X88054285Y-71074761D01*
X87911428Y-70931904D01*
X87816190Y-70884285D01*
X87720952Y-70884285D01*
X87768571Y-71122380D02*
X87673333Y-71074761D01*
X87578095Y-70979523D01*
X87530476Y-70789047D01*
X87530476Y-70455714D01*
X87578095Y-70265238D01*
X87673333Y-70170000D01*
X87768571Y-70122380D01*
X87959047Y-70122380D01*
X88054285Y-70170000D01*
X88149523Y-70265238D01*
X88197142Y-70455714D01*
X88197142Y-70789047D01*
X88149523Y-70979523D01*
X88054285Y-71074761D01*
X87959047Y-71122380D01*
X87768571Y-71122380D01*
X88530476Y-70122380D02*
X89149523Y-70122380D01*
X88816190Y-70503333D01*
X88959047Y-70503333D01*
X89054285Y-70550952D01*
X89101904Y-70598571D01*
X89149523Y-70693809D01*
X89149523Y-70931904D01*
X89101904Y-71027142D01*
X89054285Y-71074761D01*
X88959047Y-71122380D01*
X88673333Y-71122380D01*
X88578095Y-71074761D01*
X88530476Y-71027142D01*
%TO.C,D8*%
X48461072Y-67952380D02*
X48461072Y-66952380D01*
X48699168Y-66952380D01*
X48842025Y-67000000D01*
X48937263Y-67095238D01*
X48984882Y-67190476D01*
X49032501Y-67380952D01*
X49032501Y-67523809D01*
X48984882Y-67714285D01*
X48937263Y-67809523D01*
X48842025Y-67904761D01*
X48699168Y-67952380D01*
X48461072Y-67952380D01*
X49603929Y-67380952D02*
X49508691Y-67333333D01*
X49461072Y-67285714D01*
X49413453Y-67190476D01*
X49413453Y-67142857D01*
X49461072Y-67047619D01*
X49508691Y-67000000D01*
X49603929Y-66952380D01*
X49794406Y-66952380D01*
X49889644Y-67000000D01*
X49937263Y-67047619D01*
X49984882Y-67142857D01*
X49984882Y-67190476D01*
X49937263Y-67285714D01*
X49889644Y-67333333D01*
X49794406Y-67380952D01*
X49603929Y-67380952D01*
X49508691Y-67428571D01*
X49461072Y-67476190D01*
X49413453Y-67571428D01*
X49413453Y-67761904D01*
X49461072Y-67857142D01*
X49508691Y-67904761D01*
X49603929Y-67952380D01*
X49794406Y-67952380D01*
X49889644Y-67904761D01*
X49937263Y-67857142D01*
X49984882Y-67761904D01*
X49984882Y-67571428D01*
X49937263Y-67476190D01*
X49889644Y-67428571D01*
X49794406Y-67380952D01*
%TO.C,Q4*%
X113154761Y-71047619D02*
X113059523Y-71000000D01*
X112964285Y-70904761D01*
X112821428Y-70761904D01*
X112726190Y-70714285D01*
X112630952Y-70714285D01*
X112678571Y-70952380D02*
X112583333Y-70904761D01*
X112488095Y-70809523D01*
X112440476Y-70619047D01*
X112440476Y-70285714D01*
X112488095Y-70095238D01*
X112583333Y-70000000D01*
X112678571Y-69952380D01*
X112869047Y-69952380D01*
X112964285Y-70000000D01*
X113059523Y-70095238D01*
X113107142Y-70285714D01*
X113107142Y-70619047D01*
X113059523Y-70809523D01*
X112964285Y-70904761D01*
X112869047Y-70952380D01*
X112678571Y-70952380D01*
X113964285Y-70285714D02*
X113964285Y-70952380D01*
X113726190Y-69904761D02*
X113488095Y-70619047D01*
X114107142Y-70619047D01*
%TO.C,J4*%
X123666666Y-112452380D02*
X123666666Y-113166666D01*
X123619047Y-113309523D01*
X123523809Y-113404761D01*
X123380952Y-113452380D01*
X123285714Y-113452380D01*
X124571428Y-112785714D02*
X124571428Y-113452380D01*
X124333333Y-112404761D02*
X124095238Y-113119047D01*
X124714285Y-113119047D01*
%TO.C,C1*%
X74567142Y-31539046D02*
X74614761Y-31586665D01*
X74662380Y-31729522D01*
X74662380Y-31824760D01*
X74614761Y-31967618D01*
X74519523Y-32062856D01*
X74424285Y-32110475D01*
X74233809Y-32158094D01*
X74090952Y-32158094D01*
X73900476Y-32110475D01*
X73805238Y-32062856D01*
X73710000Y-31967618D01*
X73662380Y-31824760D01*
X73662380Y-31729522D01*
X73710000Y-31586665D01*
X73757619Y-31539046D01*
X74662380Y-30586665D02*
X74662380Y-31158094D01*
X74662380Y-30872380D02*
X73662380Y-30872380D01*
X73805238Y-30967618D01*
X73900476Y-31062856D01*
X73948095Y-31158094D01*
%TO.C,K3*%
X101622380Y-90738095D02*
X100622380Y-90738095D01*
X101622380Y-90166666D02*
X101050952Y-90595238D01*
X100622380Y-90166666D02*
X101193809Y-90738095D01*
X100622380Y-89833333D02*
X100622380Y-89214285D01*
X101003333Y-89547619D01*
X101003333Y-89404761D01*
X101050952Y-89309523D01*
X101098571Y-89261904D01*
X101193809Y-89214285D01*
X101431904Y-89214285D01*
X101527142Y-89261904D01*
X101574761Y-89309523D01*
X101622380Y-89404761D01*
X101622380Y-89690476D01*
X101574761Y-89785714D01*
X101527142Y-89833333D01*
%TO.C,J9*%
X93767380Y-61558333D02*
X94481666Y-61558333D01*
X94624523Y-61605952D01*
X94719761Y-61701190D01*
X94767380Y-61844047D01*
X94767380Y-61939285D01*
X94767380Y-61034523D02*
X94767380Y-60844047D01*
X94719761Y-60748809D01*
X94672142Y-60701190D01*
X94529285Y-60605952D01*
X94338809Y-60558333D01*
X93957857Y-60558333D01*
X93862619Y-60605952D01*
X93815000Y-60653571D01*
X93767380Y-60748809D01*
X93767380Y-60939285D01*
X93815000Y-61034523D01*
X93862619Y-61082142D01*
X93957857Y-61129761D01*
X94195952Y-61129761D01*
X94291190Y-61082142D01*
X94338809Y-61034523D01*
X94386428Y-60939285D01*
X94386428Y-60748809D01*
X94338809Y-60653571D01*
X94291190Y-60605952D01*
X94195952Y-60558333D01*
%TO.C,K1*%
X51452380Y-90738095D02*
X50452380Y-90738095D01*
X51452380Y-90166666D02*
X50880952Y-90595238D01*
X50452380Y-90166666D02*
X51023809Y-90738095D01*
X51452380Y-89214285D02*
X51452380Y-89785714D01*
X51452380Y-89500000D02*
X50452380Y-89500000D01*
X50595238Y-89595238D01*
X50690476Y-89690476D01*
X50738095Y-89785714D01*
%TO.C,D2*%
X75761904Y-72952380D02*
X75761904Y-71952380D01*
X76000000Y-71952380D01*
X76142857Y-72000000D01*
X76238095Y-72095238D01*
X76285714Y-72190476D01*
X76333333Y-72380952D01*
X76333333Y-72523809D01*
X76285714Y-72714285D01*
X76238095Y-72809523D01*
X76142857Y-72904761D01*
X76000000Y-72952380D01*
X75761904Y-72952380D01*
X76714285Y-72047619D02*
X76761904Y-72000000D01*
X76857142Y-71952380D01*
X77095238Y-71952380D01*
X77190476Y-72000000D01*
X77238095Y-72047619D01*
X77285714Y-72142857D01*
X77285714Y-72238095D01*
X77238095Y-72380952D01*
X76666666Y-72952380D01*
X77285714Y-72952380D01*
%TO.C,J6*%
X24981280Y-34569533D02*
X25695566Y-34569533D01*
X25838423Y-34617152D01*
X25933661Y-34712390D01*
X25981280Y-34855247D01*
X25981280Y-34950485D01*
X24981280Y-33664771D02*
X24981280Y-33855247D01*
X25028900Y-33950485D01*
X25076519Y-33998104D01*
X25219376Y-34093342D01*
X25409852Y-34140961D01*
X25790804Y-34140961D01*
X25886042Y-34093342D01*
X25933661Y-34045723D01*
X25981280Y-33950485D01*
X25981280Y-33760009D01*
X25933661Y-33664771D01*
X25886042Y-33617152D01*
X25790804Y-33569533D01*
X25552709Y-33569533D01*
X25457471Y-33617152D01*
X25409852Y-33664771D01*
X25362233Y-33760009D01*
X25362233Y-33950485D01*
X25409852Y-34045723D01*
X25457471Y-34093342D01*
X25552709Y-34140961D01*
%TO.C, *%
%TO.C,Q5*%
X137904761Y-71217619D02*
X137809523Y-71170000D01*
X137714285Y-71074761D01*
X137571428Y-70931904D01*
X137476190Y-70884285D01*
X137380952Y-70884285D01*
X137428571Y-71122380D02*
X137333333Y-71074761D01*
X137238095Y-70979523D01*
X137190476Y-70789047D01*
X137190476Y-70455714D01*
X137238095Y-70265238D01*
X137333333Y-70170000D01*
X137428571Y-70122380D01*
X137619047Y-70122380D01*
X137714285Y-70170000D01*
X137809523Y-70265238D01*
X137857142Y-70455714D01*
X137857142Y-70789047D01*
X137809523Y-70979523D01*
X137714285Y-71074761D01*
X137619047Y-71122380D01*
X137428571Y-71122380D01*
X138761904Y-70122380D02*
X138285714Y-70122380D01*
X138238095Y-70598571D01*
X138285714Y-70550952D01*
X138380952Y-70503333D01*
X138619047Y-70503333D01*
X138714285Y-70550952D01*
X138761904Y-70598571D01*
X138809523Y-70693809D01*
X138809523Y-70931904D01*
X138761904Y-71027142D01*
X138714285Y-71074761D01*
X138619047Y-71122380D01*
X138380952Y-71122380D01*
X138285714Y-71074761D01*
X138238095Y-71027142D01*
%TO.C,D5*%
X150761904Y-72952380D02*
X150761904Y-71952380D01*
X151000000Y-71952380D01*
X151142857Y-72000000D01*
X151238095Y-72095238D01*
X151285714Y-72190476D01*
X151333333Y-72380952D01*
X151333333Y-72523809D01*
X151285714Y-72714285D01*
X151238095Y-72809523D01*
X151142857Y-72904761D01*
X151000000Y-72952380D01*
X150761904Y-72952380D01*
X152238095Y-71952380D02*
X151761904Y-71952380D01*
X151714285Y-72428571D01*
X151761904Y-72380952D01*
X151857142Y-72333333D01*
X152095238Y-72333333D01*
X152190476Y-72380952D01*
X152238095Y-72428571D01*
X152285714Y-72523809D01*
X152285714Y-72761904D01*
X152238095Y-72857142D01*
X152190476Y-72904761D01*
X152095238Y-72952380D01*
X151857142Y-72952380D01*
X151761904Y-72904761D01*
X151714285Y-72857142D01*
%TO.C,R9*%
X110352380Y-72826666D02*
X109876190Y-73160000D01*
X110352380Y-73398095D02*
X109352380Y-73398095D01*
X109352380Y-73017142D01*
X109400000Y-72921904D01*
X109447619Y-72874285D01*
X109542857Y-72826666D01*
X109685714Y-72826666D01*
X109780952Y-72874285D01*
X109828571Y-72921904D01*
X109876190Y-73017142D01*
X109876190Y-73398095D01*
X110352380Y-72350476D02*
X110352380Y-72160000D01*
X110304761Y-72064761D01*
X110257142Y-72017142D01*
X110114285Y-71921904D01*
X109923809Y-71874285D01*
X109542857Y-71874285D01*
X109447619Y-71921904D01*
X109400000Y-71969523D01*
X109352380Y-72064761D01*
X109352380Y-72255238D01*
X109400000Y-72350476D01*
X109447619Y-72398095D01*
X109542857Y-72445714D01*
X109780952Y-72445714D01*
X109876190Y-72398095D01*
X109923809Y-72350476D01*
X109971428Y-72255238D01*
X109971428Y-72064761D01*
X109923809Y-71969523D01*
X109876190Y-71921904D01*
X109780952Y-71874285D01*
%TO.C,R1*%
X108333333Y-24452380D02*
X108000000Y-23976190D01*
X107761904Y-24452380D02*
X107761904Y-23452380D01*
X108142857Y-23452380D01*
X108238095Y-23500000D01*
X108285714Y-23547619D01*
X108333333Y-23642857D01*
X108333333Y-23785714D01*
X108285714Y-23880952D01*
X108238095Y-23928571D01*
X108142857Y-23976190D01*
X107761904Y-23976190D01*
X109285714Y-24452380D02*
X108714285Y-24452380D01*
X109000000Y-24452380D02*
X109000000Y-23452380D01*
X108904761Y-23595238D01*
X108809523Y-23690476D01*
X108714285Y-23738095D01*
%TO.C,C4*%
X47577142Y-49836666D02*
X47624761Y-49884285D01*
X47672380Y-50027142D01*
X47672380Y-50122380D01*
X47624761Y-50265238D01*
X47529523Y-50360476D01*
X47434285Y-50408095D01*
X47243809Y-50455714D01*
X47100952Y-50455714D01*
X46910476Y-50408095D01*
X46815238Y-50360476D01*
X46720000Y-50265238D01*
X46672380Y-50122380D01*
X46672380Y-50027142D01*
X46720000Y-49884285D01*
X46767619Y-49836666D01*
X47005714Y-48979523D02*
X47672380Y-48979523D01*
X46624761Y-49217619D02*
X47339047Y-49455714D01*
X47339047Y-48836666D01*
%TO.C,R3*%
X129452380Y-24166666D02*
X128976190Y-24500000D01*
X129452380Y-24738095D02*
X128452380Y-24738095D01*
X128452380Y-24357142D01*
X128500000Y-24261904D01*
X128547619Y-24214285D01*
X128642857Y-24166666D01*
X128785714Y-24166666D01*
X128880952Y-24214285D01*
X128928571Y-24261904D01*
X128976190Y-24357142D01*
X128976190Y-24738095D01*
X128452380Y-23833333D02*
X128452380Y-23214285D01*
X128833333Y-23547619D01*
X128833333Y-23404761D01*
X128880952Y-23309523D01*
X128928571Y-23261904D01*
X129023809Y-23214285D01*
X129261904Y-23214285D01*
X129357142Y-23261904D01*
X129404761Y-23309523D01*
X129452380Y-23404761D01*
X129452380Y-23690476D01*
X129404761Y-23785714D01*
X129357142Y-23833333D01*
%TO.C,C3*%
X47594442Y-33169166D02*
X47642061Y-33216785D01*
X47689680Y-33359642D01*
X47689680Y-33454880D01*
X47642061Y-33597738D01*
X47546823Y-33692976D01*
X47451585Y-33740595D01*
X47261109Y-33788214D01*
X47118252Y-33788214D01*
X46927776Y-33740595D01*
X46832538Y-33692976D01*
X46737300Y-33597738D01*
X46689680Y-33454880D01*
X46689680Y-33359642D01*
X46737300Y-33216785D01*
X46784919Y-33169166D01*
X46689680Y-32835833D02*
X46689680Y-32216785D01*
X47070633Y-32550119D01*
X47070633Y-32407261D01*
X47118252Y-32312023D01*
X47165871Y-32264404D01*
X47261109Y-32216785D01*
X47499204Y-32216785D01*
X47594442Y-32264404D01*
X47642061Y-32312023D01*
X47689680Y-32407261D01*
X47689680Y-32692976D01*
X47642061Y-32788214D01*
X47594442Y-32835833D01*
%TO.C,K5*%
X151452380Y-90738095D02*
X150452380Y-90738095D01*
X151452380Y-90166666D02*
X150880952Y-90595238D01*
X150452380Y-90166666D02*
X151023809Y-90738095D01*
X150452380Y-89261904D02*
X150452380Y-89738095D01*
X150928571Y-89785714D01*
X150880952Y-89738095D01*
X150833333Y-89642857D01*
X150833333Y-89404761D01*
X150880952Y-89309523D01*
X150928571Y-89261904D01*
X151023809Y-89214285D01*
X151261904Y-89214285D01*
X151357142Y-89261904D01*
X151404761Y-89309523D01*
X151452380Y-89404761D01*
X151452380Y-89642857D01*
X151404761Y-89738095D01*
X151357142Y-89785714D01*
%TO.C,K4*%
X126452380Y-90738095D02*
X125452380Y-90738095D01*
X126452380Y-90166666D02*
X125880952Y-90595238D01*
X125452380Y-90166666D02*
X126023809Y-90738095D01*
X125785714Y-89309523D02*
X126452380Y-89309523D01*
X125404761Y-89547619D02*
X126119047Y-89785714D01*
X126119047Y-89166666D01*
%TO.C,R2*%
X111052380Y-28806666D02*
X110576190Y-29140000D01*
X111052380Y-29378095D02*
X110052380Y-29378095D01*
X110052380Y-28997142D01*
X110100000Y-28901904D01*
X110147619Y-28854285D01*
X110242857Y-28806666D01*
X110385714Y-28806666D01*
X110480952Y-28854285D01*
X110528571Y-28901904D01*
X110576190Y-28997142D01*
X110576190Y-29378095D01*
X110147619Y-28425714D02*
X110100000Y-28378095D01*
X110052380Y-28282857D01*
X110052380Y-28044761D01*
X110100000Y-27949523D01*
X110147619Y-27901904D01*
X110242857Y-27854285D01*
X110338095Y-27854285D01*
X110480952Y-27901904D01*
X111052380Y-28473333D01*
X111052380Y-27854285D01*
%TO.C,S2*%
X136128095Y-24194761D02*
X136270952Y-24242380D01*
X136509047Y-24242380D01*
X136604285Y-24194761D01*
X136651904Y-24147142D01*
X136699523Y-24051904D01*
X136699523Y-23956666D01*
X136651904Y-23861428D01*
X136604285Y-23813809D01*
X136509047Y-23766190D01*
X136318571Y-23718571D01*
X136223333Y-23670952D01*
X136175714Y-23623333D01*
X136128095Y-23528095D01*
X136128095Y-23432857D01*
X136175714Y-23337619D01*
X136223333Y-23290000D01*
X136318571Y-23242380D01*
X136556666Y-23242380D01*
X136699523Y-23290000D01*
X137080476Y-23337619D02*
X137128095Y-23290000D01*
X137223333Y-23242380D01*
X137461428Y-23242380D01*
X137556666Y-23290000D01*
X137604285Y-23337619D01*
X137651904Y-23432857D01*
X137651904Y-23528095D01*
X137604285Y-23670952D01*
X137032857Y-24242380D01*
X137651904Y-24242380D01*
%TO.C,S1*%
X117738095Y-24304761D02*
X117880952Y-24352380D01*
X118119047Y-24352380D01*
X118214285Y-24304761D01*
X118261904Y-24257142D01*
X118309523Y-24161904D01*
X118309523Y-24066666D01*
X118261904Y-23971428D01*
X118214285Y-23923809D01*
X118119047Y-23876190D01*
X117928571Y-23828571D01*
X117833333Y-23780952D01*
X117785714Y-23733333D01*
X117738095Y-23638095D01*
X117738095Y-23542857D01*
X117785714Y-23447619D01*
X117833333Y-23400000D01*
X117928571Y-23352380D01*
X118166666Y-23352380D01*
X118309523Y-23400000D01*
X119261904Y-24352380D02*
X118690476Y-24352380D01*
X118976190Y-24352380D02*
X118976190Y-23352380D01*
X118880952Y-23495238D01*
X118785714Y-23590476D01*
X118690476Y-23638095D01*
%TO.C,C5*%
X50137142Y-47206666D02*
X50184761Y-47254285D01*
X50232380Y-47397142D01*
X50232380Y-47492380D01*
X50184761Y-47635238D01*
X50089523Y-47730476D01*
X49994285Y-47778095D01*
X49803809Y-47825714D01*
X49660952Y-47825714D01*
X49470476Y-47778095D01*
X49375238Y-47730476D01*
X49280000Y-47635238D01*
X49232380Y-47492380D01*
X49232380Y-47397142D01*
X49280000Y-47254285D01*
X49327619Y-47206666D01*
X49232380Y-46301904D02*
X49232380Y-46778095D01*
X49708571Y-46825714D01*
X49660952Y-46778095D01*
X49613333Y-46682857D01*
X49613333Y-46444761D01*
X49660952Y-46349523D01*
X49708571Y-46301904D01*
X49803809Y-46254285D01*
X50041904Y-46254285D01*
X50137142Y-46301904D01*
X50184761Y-46349523D01*
X50232380Y-46444761D01*
X50232380Y-46682857D01*
X50184761Y-46778095D01*
X50137142Y-46825714D01*
%TO.C,D4*%
X125761904Y-72952380D02*
X125761904Y-71952380D01*
X126000000Y-71952380D01*
X126142857Y-72000000D01*
X126238095Y-72095238D01*
X126285714Y-72190476D01*
X126333333Y-72380952D01*
X126333333Y-72523809D01*
X126285714Y-72714285D01*
X126238095Y-72809523D01*
X126142857Y-72904761D01*
X126000000Y-72952380D01*
X125761904Y-72952380D01*
X127190476Y-72285714D02*
X127190476Y-72952380D01*
X126952380Y-71904761D02*
X126714285Y-72619047D01*
X127333333Y-72619047D01*
%TO.C,J1*%
X48666666Y-112452380D02*
X48666666Y-113166666D01*
X48619047Y-113309523D01*
X48523809Y-113404761D01*
X48380952Y-113452380D01*
X48285714Y-113452380D01*
X49666666Y-113452380D02*
X49095238Y-113452380D01*
X49380952Y-113452380D02*
X49380952Y-112452380D01*
X49285714Y-112595238D01*
X49190476Y-112690476D01*
X49095238Y-112738095D01*
%TO.C,D6*%
X38950804Y-30458580D02*
X38950804Y-29458580D01*
X39188900Y-29458580D01*
X39331757Y-29506200D01*
X39426995Y-29601438D01*
X39474614Y-29696676D01*
X39522233Y-29887152D01*
X39522233Y-30030009D01*
X39474614Y-30220485D01*
X39426995Y-30315723D01*
X39331757Y-30410961D01*
X39188900Y-30458580D01*
X38950804Y-30458580D01*
X40379376Y-29458580D02*
X40188900Y-29458580D01*
X40093661Y-29506200D01*
X40046042Y-29553819D01*
X39950804Y-29696676D01*
X39903185Y-29887152D01*
X39903185Y-30268104D01*
X39950804Y-30363342D01*
X39998423Y-30410961D01*
X40093661Y-30458580D01*
X40284138Y-30458580D01*
X40379376Y-30410961D01*
X40426995Y-30363342D01*
X40474614Y-30268104D01*
X40474614Y-30030009D01*
X40426995Y-29934771D01*
X40379376Y-29887152D01*
X40284138Y-29839533D01*
X40093661Y-29839533D01*
X39998423Y-29887152D01*
X39950804Y-29934771D01*
X39903185Y-30030009D01*
%TO.C,R5*%
X42562233Y-52203580D02*
X42228900Y-51727390D01*
X41990804Y-52203580D02*
X41990804Y-51203580D01*
X42371757Y-51203580D01*
X42466995Y-51251200D01*
X42514614Y-51298819D01*
X42562233Y-51394057D01*
X42562233Y-51536914D01*
X42514614Y-51632152D01*
X42466995Y-51679771D01*
X42371757Y-51727390D01*
X41990804Y-51727390D01*
X43466995Y-51203580D02*
X42990804Y-51203580D01*
X42943185Y-51679771D01*
X42990804Y-51632152D01*
X43086042Y-51584533D01*
X43324138Y-51584533D01*
X43419376Y-51632152D01*
X43466995Y-51679771D01*
X43514614Y-51775009D01*
X43514614Y-52013104D01*
X43466995Y-52108342D01*
X43419376Y-52155961D01*
X43324138Y-52203580D01*
X43086042Y-52203580D01*
X42990804Y-52155961D01*
X42943185Y-52108342D01*
%TO.C,R15*%
X141557968Y-68162380D02*
X141224635Y-67686190D01*
X140986540Y-68162380D02*
X140986540Y-67162380D01*
X141367492Y-67162380D01*
X141462730Y-67210000D01*
X141510349Y-67257619D01*
X141557968Y-67352857D01*
X141557968Y-67495714D01*
X141510349Y-67590952D01*
X141462730Y-67638571D01*
X141367492Y-67686190D01*
X140986540Y-67686190D01*
X142510349Y-68162380D02*
X141938921Y-68162380D01*
X142224635Y-68162380D02*
X142224635Y-67162380D01*
X142129397Y-67305238D01*
X142034159Y-67400476D01*
X141938921Y-67448095D01*
X143415111Y-67162380D02*
X142938921Y-67162380D01*
X142891302Y-67638571D01*
X142938921Y-67590952D01*
X143034159Y-67543333D01*
X143272254Y-67543333D01*
X143367492Y-67590952D01*
X143415111Y-67638571D01*
X143462730Y-67733809D01*
X143462730Y-67971904D01*
X143415111Y-68067142D01*
X143367492Y-68114761D01*
X143272254Y-68162380D01*
X143034159Y-68162380D01*
X142938921Y-68114761D01*
X142891302Y-68067142D01*
%TO.C, *%
%TO.C,D14*%
X136525714Y-43782380D02*
X136525714Y-42782380D01*
X136763809Y-42782380D01*
X136906666Y-42830000D01*
X137001904Y-42925238D01*
X137049523Y-43020476D01*
X137097142Y-43210952D01*
X137097142Y-43353809D01*
X137049523Y-43544285D01*
X137001904Y-43639523D01*
X136906666Y-43734761D01*
X136763809Y-43782380D01*
X136525714Y-43782380D01*
X138049523Y-43782380D02*
X137478095Y-43782380D01*
X137763809Y-43782380D02*
X137763809Y-42782380D01*
X137668571Y-42925238D01*
X137573333Y-43020476D01*
X137478095Y-43068095D01*
X138906666Y-43115714D02*
X138906666Y-43782380D01*
X138668571Y-42734761D02*
X138430476Y-43449047D01*
X139049523Y-43449047D01*
%TO.C,U1*%
X108655095Y-29685380D02*
X108655095Y-30494904D01*
X108702714Y-30590142D01*
X108750333Y-30637761D01*
X108845571Y-30685380D01*
X109036047Y-30685380D01*
X109131285Y-30637761D01*
X109178904Y-30590142D01*
X109226523Y-30494904D01*
X109226523Y-29685380D01*
X110226523Y-30685380D02*
X109655095Y-30685380D01*
X109940809Y-30685380D02*
X109940809Y-29685380D01*
X109845571Y-29828238D01*
X109750333Y-29923476D01*
X109655095Y-29971095D01*
X104646571Y-46710428D02*
X104646571Y-46377095D01*
X105170380Y-46234238D02*
X105170380Y-46710428D01*
X104170380Y-46710428D01*
X104170380Y-46234238D01*
X105122761Y-45853285D02*
X105170380Y-45758047D01*
X105170380Y-45567571D01*
X105122761Y-45472333D01*
X105027523Y-45424714D01*
X104979904Y-45424714D01*
X104884666Y-45472333D01*
X104837047Y-45567571D01*
X104837047Y-45710428D01*
X104789428Y-45805666D01*
X104694190Y-45853285D01*
X104646571Y-45853285D01*
X104551333Y-45805666D01*
X104503714Y-45710428D01*
X104503714Y-45567571D01*
X104551333Y-45472333D01*
X104503714Y-44996142D02*
X105503714Y-44996142D01*
X104551333Y-44996142D02*
X104503714Y-44900904D01*
X104503714Y-44710428D01*
X104551333Y-44615190D01*
X104598952Y-44567571D01*
X104694190Y-44519952D01*
X104979904Y-44519952D01*
X105075142Y-44567571D01*
X105122761Y-44615190D01*
X105170380Y-44710428D01*
X105170380Y-44900904D01*
X105122761Y-44996142D01*
X105170380Y-44091380D02*
X104503714Y-44091380D01*
X104694190Y-44091380D02*
X104598952Y-44043761D01*
X104551333Y-43996142D01*
X104503714Y-43900904D01*
X104503714Y-43805666D01*
X105122761Y-43091380D02*
X105170380Y-43186619D01*
X105170380Y-43377095D01*
X105122761Y-43472333D01*
X105027523Y-43519952D01*
X104646571Y-43519952D01*
X104551333Y-43472333D01*
X104503714Y-43377095D01*
X104503714Y-43186619D01*
X104551333Y-43091380D01*
X104646571Y-43043761D01*
X104741809Y-43043761D01*
X104837047Y-43519952D01*
X105122761Y-42662809D02*
X105170380Y-42567571D01*
X105170380Y-42377095D01*
X105122761Y-42281857D01*
X105027523Y-42234238D01*
X104979904Y-42234238D01*
X104884666Y-42281857D01*
X104837047Y-42377095D01*
X104837047Y-42519952D01*
X104789428Y-42615190D01*
X104694190Y-42662809D01*
X104646571Y-42662809D01*
X104551333Y-42615190D01*
X104503714Y-42519952D01*
X104503714Y-42377095D01*
X104551333Y-42281857D01*
X105122761Y-41853285D02*
X105170380Y-41758047D01*
X105170380Y-41567571D01*
X105122761Y-41472333D01*
X105027523Y-41424714D01*
X104979904Y-41424714D01*
X104884666Y-41472333D01*
X104837047Y-41567571D01*
X104837047Y-41710428D01*
X104789428Y-41805666D01*
X104694190Y-41853285D01*
X104646571Y-41853285D01*
X104551333Y-41805666D01*
X104503714Y-41710428D01*
X104503714Y-41567571D01*
X104551333Y-41472333D01*
X105170380Y-40996142D02*
X104503714Y-40996142D01*
X104170380Y-40996142D02*
X104218000Y-41043761D01*
X104265619Y-40996142D01*
X104218000Y-40948523D01*
X104170380Y-40996142D01*
X104265619Y-40996142D01*
X104503714Y-40662809D02*
X104503714Y-40281857D01*
X105170380Y-40519952D02*
X104313238Y-40519952D01*
X104218000Y-40472333D01*
X104170380Y-40377095D01*
X104170380Y-40281857D01*
X105122761Y-39234238D02*
X105170380Y-39091380D01*
X105170380Y-38853285D01*
X105122761Y-38758047D01*
X105075142Y-38710428D01*
X104979904Y-38662809D01*
X104884666Y-38662809D01*
X104789428Y-38710428D01*
X104741809Y-38758047D01*
X104694190Y-38853285D01*
X104646571Y-39043761D01*
X104598952Y-39139000D01*
X104551333Y-39186619D01*
X104456095Y-39234238D01*
X104360857Y-39234238D01*
X104265619Y-39186619D01*
X104218000Y-39139000D01*
X104170380Y-39043761D01*
X104170380Y-38805666D01*
X104218000Y-38662809D01*
X104503714Y-38329476D02*
X105170380Y-38091380D01*
X104503714Y-37853285D02*
X105170380Y-38091380D01*
X105408476Y-38186619D01*
X105456095Y-38234238D01*
X105503714Y-38329476D01*
X105122761Y-37519952D02*
X105170380Y-37424714D01*
X105170380Y-37234238D01*
X105122761Y-37139000D01*
X105027523Y-37091380D01*
X104979904Y-37091380D01*
X104884666Y-37139000D01*
X104837047Y-37234238D01*
X104837047Y-37377095D01*
X104789428Y-37472333D01*
X104694190Y-37519952D01*
X104646571Y-37519952D01*
X104551333Y-37472333D01*
X104503714Y-37377095D01*
X104503714Y-37234238D01*
X104551333Y-37139000D01*
X104503714Y-36805666D02*
X104503714Y-36424714D01*
X104170380Y-36662809D02*
X105027523Y-36662809D01*
X105122761Y-36615190D01*
X105170380Y-36519952D01*
X105170380Y-36424714D01*
X105122761Y-35710428D02*
X105170380Y-35805666D01*
X105170380Y-35996142D01*
X105122761Y-36091380D01*
X105027523Y-36139000D01*
X104646571Y-36139000D01*
X104551333Y-36091380D01*
X104503714Y-35996142D01*
X104503714Y-35805666D01*
X104551333Y-35710428D01*
X104646571Y-35662809D01*
X104741809Y-35662809D01*
X104837047Y-36139000D01*
X105170380Y-35234238D02*
X104503714Y-35234238D01*
X104598952Y-35234238D02*
X104551333Y-35186619D01*
X104503714Y-35091380D01*
X104503714Y-34948523D01*
X104551333Y-34853285D01*
X104646571Y-34805666D01*
X105170380Y-34805666D01*
X104646571Y-34805666D02*
X104551333Y-34758047D01*
X104503714Y-34662809D01*
X104503714Y-34519952D01*
X104551333Y-34424714D01*
X104646571Y-34377095D01*
X105170380Y-34377095D01*
X105122761Y-33948523D02*
X105170380Y-33853285D01*
X105170380Y-33662809D01*
X105122761Y-33567571D01*
X105027523Y-33519952D01*
X104979904Y-33519952D01*
X104884666Y-33567571D01*
X104837047Y-33662809D01*
X104837047Y-33805666D01*
X104789428Y-33900904D01*
X104694190Y-33948523D01*
X104646571Y-33948523D01*
X104551333Y-33900904D01*
X104503714Y-33805666D01*
X104503714Y-33662809D01*
X104551333Y-33567571D01*
X102995571Y-44448380D02*
X102995571Y-44115047D01*
X103519380Y-43972190D02*
X103519380Y-44448380D01*
X102519380Y-44448380D01*
X102519380Y-43972190D01*
X103471761Y-43591238D02*
X103519380Y-43448380D01*
X103519380Y-43210285D01*
X103471761Y-43115047D01*
X103424142Y-43067428D01*
X103328904Y-43019809D01*
X103233666Y-43019809D01*
X103138428Y-43067428D01*
X103090809Y-43115047D01*
X103043190Y-43210285D01*
X102995571Y-43400761D01*
X102947952Y-43496000D01*
X102900333Y-43543619D01*
X102805095Y-43591238D01*
X102709857Y-43591238D01*
X102614619Y-43543619D01*
X102567000Y-43496000D01*
X102519380Y-43400761D01*
X102519380Y-43162666D01*
X102567000Y-43019809D01*
X103519380Y-42591238D02*
X102519380Y-42591238D01*
X102519380Y-42210285D01*
X102567000Y-42115047D01*
X102614619Y-42067428D01*
X102709857Y-42019809D01*
X102852714Y-42019809D01*
X102947952Y-42067428D01*
X102995571Y-42115047D01*
X103043190Y-42210285D01*
X103043190Y-42591238D01*
X102519380Y-41686476D02*
X102519380Y-41067428D01*
X102900333Y-41400761D01*
X102900333Y-41257904D01*
X102947952Y-41162666D01*
X102995571Y-41115047D01*
X103090809Y-41067428D01*
X103328904Y-41067428D01*
X103424142Y-41115047D01*
X103471761Y-41162666D01*
X103519380Y-41257904D01*
X103519380Y-41543619D01*
X103471761Y-41638857D01*
X103424142Y-41686476D01*
X102614619Y-40686476D02*
X102567000Y-40638857D01*
X102519380Y-40543619D01*
X102519380Y-40305523D01*
X102567000Y-40210285D01*
X102614619Y-40162666D01*
X102709857Y-40115047D01*
X102805095Y-40115047D01*
X102947952Y-40162666D01*
X103519380Y-40734095D01*
X103519380Y-40115047D01*
X103138428Y-39686476D02*
X103138428Y-38924571D01*
X102519380Y-38543619D02*
X103519380Y-38305523D01*
X102805095Y-38115047D01*
X103519380Y-37924571D01*
X102519380Y-37686476D01*
X103519380Y-36734095D02*
X103043190Y-37067428D01*
X103519380Y-37305523D02*
X102519380Y-37305523D01*
X102519380Y-36924571D01*
X102567000Y-36829333D01*
X102614619Y-36781714D01*
X102709857Y-36734095D01*
X102852714Y-36734095D01*
X102947952Y-36781714D01*
X102995571Y-36829333D01*
X103043190Y-36924571D01*
X103043190Y-37305523D01*
X102519380Y-36115047D02*
X102519380Y-35924571D01*
X102567000Y-35829333D01*
X102662238Y-35734095D01*
X102852714Y-35686476D01*
X103186047Y-35686476D01*
X103376523Y-35734095D01*
X103471761Y-35829333D01*
X103519380Y-35924571D01*
X103519380Y-36115047D01*
X103471761Y-36210285D01*
X103376523Y-36305523D01*
X103186047Y-36353142D01*
X102852714Y-36353142D01*
X102662238Y-36305523D01*
X102567000Y-36210285D01*
X102519380Y-36115047D01*
X102519380Y-35067428D02*
X102519380Y-34876952D01*
X102567000Y-34781714D01*
X102662238Y-34686476D01*
X102852714Y-34638857D01*
X103186047Y-34638857D01*
X103376523Y-34686476D01*
X103471761Y-34781714D01*
X103519380Y-34876952D01*
X103519380Y-35067428D01*
X103471761Y-35162666D01*
X103376523Y-35257904D01*
X103186047Y-35305523D01*
X102852714Y-35305523D01*
X102662238Y-35257904D01*
X102567000Y-35162666D01*
X102519380Y-35067428D01*
X103519380Y-34210285D02*
X102519380Y-34210285D01*
X103233666Y-33876952D01*
X102519380Y-33543619D01*
X103519380Y-33543619D01*
%TO.C,R10*%
X135352380Y-73302857D02*
X134876190Y-73636190D01*
X135352380Y-73874285D02*
X134352380Y-73874285D01*
X134352380Y-73493333D01*
X134400000Y-73398095D01*
X134447619Y-73350476D01*
X134542857Y-73302857D01*
X134685714Y-73302857D01*
X134780952Y-73350476D01*
X134828571Y-73398095D01*
X134876190Y-73493333D01*
X134876190Y-73874285D01*
X135352380Y-72350476D02*
X135352380Y-72921904D01*
X135352380Y-72636190D02*
X134352380Y-72636190D01*
X134495238Y-72731428D01*
X134590476Y-72826666D01*
X134638095Y-72921904D01*
X134352380Y-71731428D02*
X134352380Y-71636190D01*
X134400000Y-71540952D01*
X134447619Y-71493333D01*
X134542857Y-71445714D01*
X134733333Y-71398095D01*
X134971428Y-71398095D01*
X135161904Y-71445714D01*
X135257142Y-71493333D01*
X135304761Y-71540952D01*
X135352380Y-71636190D01*
X135352380Y-71731428D01*
X135304761Y-71826666D01*
X135257142Y-71874285D01*
X135161904Y-71921904D01*
X134971428Y-71969523D01*
X134733333Y-71969523D01*
X134542857Y-71921904D01*
X134447619Y-71874285D01*
X134400000Y-71826666D01*
X134352380Y-71731428D01*
%TO.C,D12*%
X147785714Y-67952380D02*
X147785714Y-66952380D01*
X148023809Y-66952380D01*
X148166666Y-67000000D01*
X148261904Y-67095238D01*
X148309523Y-67190476D01*
X148357142Y-67380952D01*
X148357142Y-67523809D01*
X148309523Y-67714285D01*
X148261904Y-67809523D01*
X148166666Y-67904761D01*
X148023809Y-67952380D01*
X147785714Y-67952380D01*
X149309523Y-67952380D02*
X148738095Y-67952380D01*
X149023809Y-67952380D02*
X149023809Y-66952380D01*
X148928571Y-67095238D01*
X148833333Y-67190476D01*
X148738095Y-67238095D01*
X149690476Y-67047619D02*
X149738095Y-67000000D01*
X149833333Y-66952380D01*
X150071428Y-66952380D01*
X150166666Y-67000000D01*
X150214285Y-67047619D01*
X150261904Y-67142857D01*
X150261904Y-67238095D01*
X150214285Y-67380952D01*
X149642857Y-67952380D01*
X150261904Y-67952380D01*
%TO.C,J2*%
X73666666Y-112452380D02*
X73666666Y-113166666D01*
X73619047Y-113309523D01*
X73523809Y-113404761D01*
X73380952Y-113452380D01*
X73285714Y-113452380D01*
X74095238Y-112547619D02*
X74142857Y-112500000D01*
X74238095Y-112452380D01*
X74476190Y-112452380D01*
X74571428Y-112500000D01*
X74619047Y-112547619D01*
X74666666Y-112642857D01*
X74666666Y-112738095D01*
X74619047Y-112880952D01*
X74047619Y-113452380D01*
X74666666Y-113452380D01*
%TO.C,J7*%
X153046666Y-37612380D02*
X153046666Y-38326666D01*
X152999047Y-38469523D01*
X152903809Y-38564761D01*
X152760952Y-38612380D01*
X152665714Y-38612380D01*
X153427619Y-37612380D02*
X154094285Y-37612380D01*
X153665714Y-38612380D01*
%TO.C,R14*%
X116977142Y-68162380D02*
X116643809Y-67686190D01*
X116405714Y-68162380D02*
X116405714Y-67162380D01*
X116786666Y-67162380D01*
X116881904Y-67210000D01*
X116929523Y-67257619D01*
X116977142Y-67352857D01*
X116977142Y-67495714D01*
X116929523Y-67590952D01*
X116881904Y-67638571D01*
X116786666Y-67686190D01*
X116405714Y-67686190D01*
X117929523Y-68162380D02*
X117358095Y-68162380D01*
X117643809Y-68162380D02*
X117643809Y-67162380D01*
X117548571Y-67305238D01*
X117453333Y-67400476D01*
X117358095Y-67448095D01*
X118786666Y-67495714D02*
X118786666Y-68162380D01*
X118548571Y-67114761D02*
X118310476Y-67829047D01*
X118929523Y-67829047D01*
%TO.C,R7*%
X60352380Y-72826666D02*
X59876190Y-73160000D01*
X60352380Y-73398095D02*
X59352380Y-73398095D01*
X59352380Y-73017142D01*
X59400000Y-72921904D01*
X59447619Y-72874285D01*
X59542857Y-72826666D01*
X59685714Y-72826666D01*
X59780952Y-72874285D01*
X59828571Y-72921904D01*
X59876190Y-73017142D01*
X59876190Y-73398095D01*
X59352380Y-72493333D02*
X59352380Y-71826666D01*
X60352380Y-72255238D01*
%TO.C,Q1*%
X38074761Y-71217619D02*
X37979523Y-71170000D01*
X37884285Y-71074761D01*
X37741428Y-70931904D01*
X37646190Y-70884285D01*
X37550952Y-70884285D01*
X37598571Y-71122380D02*
X37503333Y-71074761D01*
X37408095Y-70979523D01*
X37360476Y-70789047D01*
X37360476Y-70455714D01*
X37408095Y-70265238D01*
X37503333Y-70170000D01*
X37598571Y-70122380D01*
X37789047Y-70122380D01*
X37884285Y-70170000D01*
X37979523Y-70265238D01*
X38027142Y-70455714D01*
X38027142Y-70789047D01*
X37979523Y-70979523D01*
X37884285Y-71074761D01*
X37789047Y-71122380D01*
X37598571Y-71122380D01*
X38979523Y-71122380D02*
X38408095Y-71122380D01*
X38693809Y-71122380D02*
X38693809Y-70122380D01*
X38598571Y-70265238D01*
X38503333Y-70360476D01*
X38408095Y-70408095D01*
%TO.C,D1*%
X50761904Y-72952380D02*
X50761904Y-71952380D01*
X51000000Y-71952380D01*
X51142857Y-72000000D01*
X51238095Y-72095238D01*
X51285714Y-72190476D01*
X51333333Y-72380952D01*
X51333333Y-72523809D01*
X51285714Y-72714285D01*
X51238095Y-72809523D01*
X51142857Y-72904761D01*
X51000000Y-72952380D01*
X50761904Y-72952380D01*
X52285714Y-72952380D02*
X51714285Y-72952380D01*
X52000000Y-72952380D02*
X52000000Y-71952380D01*
X51904761Y-72095238D01*
X51809523Y-72190476D01*
X51714285Y-72238095D01*
%TO.C,J3*%
X98666666Y-112452380D02*
X98666666Y-113166666D01*
X98619047Y-113309523D01*
X98523809Y-113404761D01*
X98380952Y-113452380D01*
X98285714Y-113452380D01*
X99047619Y-112452380D02*
X99666666Y-112452380D01*
X99333333Y-112833333D01*
X99476190Y-112833333D01*
X99571428Y-112880952D01*
X99619047Y-112928571D01*
X99666666Y-113023809D01*
X99666666Y-113261904D01*
X99619047Y-113357142D01*
X99571428Y-113404761D01*
X99476190Y-113452380D01*
X99190476Y-113452380D01*
X99095238Y-113404761D01*
X99047619Y-113357142D01*
%TO.C,R16*%
X132557142Y-49752380D02*
X132223809Y-49276190D01*
X131985714Y-49752380D02*
X131985714Y-48752380D01*
X132366666Y-48752380D01*
X132461904Y-48800000D01*
X132509523Y-48847619D01*
X132557142Y-48942857D01*
X132557142Y-49085714D01*
X132509523Y-49180952D01*
X132461904Y-49228571D01*
X132366666Y-49276190D01*
X131985714Y-49276190D01*
X133509523Y-49752380D02*
X132938095Y-49752380D01*
X133223809Y-49752380D02*
X133223809Y-48752380D01*
X133128571Y-48895238D01*
X133033333Y-48990476D01*
X132938095Y-49038095D01*
X134366666Y-48752380D02*
X134176190Y-48752380D01*
X134080952Y-48800000D01*
X134033333Y-48847619D01*
X133938095Y-48990476D01*
X133890476Y-49180952D01*
X133890476Y-49561904D01*
X133938095Y-49657142D01*
X133985714Y-49704761D01*
X134080952Y-49752380D01*
X134271428Y-49752380D01*
X134366666Y-49704761D01*
X134414285Y-49657142D01*
X134461904Y-49561904D01*
X134461904Y-49323809D01*
X134414285Y-49228571D01*
X134366666Y-49180952D01*
X134271428Y-49133333D01*
X134080952Y-49133333D01*
X133985714Y-49180952D01*
X133938095Y-49228571D01*
X133890476Y-49323809D01*
%TO.C,J5*%
X148666666Y-112452380D02*
X148666666Y-113166666D01*
X148619047Y-113309523D01*
X148523809Y-113404761D01*
X148380952Y-113452380D01*
X148285714Y-113452380D01*
X149619047Y-112452380D02*
X149142857Y-112452380D01*
X149095238Y-112928571D01*
X149142857Y-112880952D01*
X149238095Y-112833333D01*
X149476190Y-112833333D01*
X149571428Y-112880952D01*
X149619047Y-112928571D01*
X149666666Y-113023809D01*
X149666666Y-113261904D01*
X149619047Y-113357142D01*
X149571428Y-113404761D01*
X149476190Y-113452380D01*
X149238095Y-113452380D01*
X149142857Y-113404761D01*
X149095238Y-113357142D01*
%TO.C,D3*%
X100761904Y-72952380D02*
X100761904Y-71952380D01*
X101000000Y-71952380D01*
X101142857Y-72000000D01*
X101238095Y-72095238D01*
X101285714Y-72190476D01*
X101333333Y-72380952D01*
X101333333Y-72523809D01*
X101285714Y-72714285D01*
X101238095Y-72809523D01*
X101142857Y-72904761D01*
X101000000Y-72952380D01*
X100761904Y-72952380D01*
X101666666Y-71952380D02*
X102285714Y-71952380D01*
X101952380Y-72333333D01*
X102095238Y-72333333D01*
X102190476Y-72380952D01*
X102238095Y-72428571D01*
X102285714Y-72523809D01*
X102285714Y-72761904D01*
X102238095Y-72857142D01*
X102190476Y-72904761D01*
X102095238Y-72952380D01*
X101809523Y-72952380D01*
X101714285Y-72904761D01*
X101666666Y-72857142D01*
%TO.C,R4*%
X126452380Y-24166666D02*
X125976190Y-24500000D01*
X126452380Y-24738095D02*
X125452380Y-24738095D01*
X125452380Y-24357142D01*
X125500000Y-24261904D01*
X125547619Y-24214285D01*
X125642857Y-24166666D01*
X125785714Y-24166666D01*
X125880952Y-24214285D01*
X125928571Y-24261904D01*
X125976190Y-24357142D01*
X125976190Y-24738095D01*
X125785714Y-23309523D02*
X126452380Y-23309523D01*
X125404761Y-23547619D02*
X126119047Y-23785714D01*
X126119047Y-23166666D01*
%TO.C,D10*%
X97785714Y-67952380D02*
X97785714Y-66952380D01*
X98023809Y-66952380D01*
X98166666Y-67000000D01*
X98261904Y-67095238D01*
X98309523Y-67190476D01*
X98357142Y-67380952D01*
X98357142Y-67523809D01*
X98309523Y-67714285D01*
X98261904Y-67809523D01*
X98166666Y-67904761D01*
X98023809Y-67952380D01*
X97785714Y-67952380D01*
X99309523Y-67952380D02*
X98738095Y-67952380D01*
X99023809Y-67952380D02*
X99023809Y-66952380D01*
X98928571Y-67095238D01*
X98833333Y-67190476D01*
X98738095Y-67238095D01*
X99928571Y-66952380D02*
X100023809Y-66952380D01*
X100119047Y-67000000D01*
X100166666Y-67047619D01*
X100214285Y-67142857D01*
X100261904Y-67333333D01*
X100261904Y-67571428D01*
X100214285Y-67761904D01*
X100166666Y-67857142D01*
X100119047Y-67904761D01*
X100023809Y-67952380D01*
X99928571Y-67952380D01*
X99833333Y-67904761D01*
X99785714Y-67857142D01*
X99738095Y-67761904D01*
X99690476Y-67571428D01*
X99690476Y-67333333D01*
X99738095Y-67142857D01*
X99785714Y-67047619D01*
X99833333Y-67000000D01*
X99928571Y-66952380D01*
%TO.C, *%
%TO.C,D7*%
X42060804Y-49143580D02*
X42060804Y-48143580D01*
X42298900Y-48143580D01*
X42441757Y-48191200D01*
X42536995Y-48286438D01*
X42584614Y-48381676D01*
X42632233Y-48572152D01*
X42632233Y-48715009D01*
X42584614Y-48905485D01*
X42536995Y-49000723D01*
X42441757Y-49095961D01*
X42298900Y-49143580D01*
X42060804Y-49143580D01*
X42965566Y-48143580D02*
X43632233Y-48143580D01*
X43203661Y-49143580D01*
%TO.C,D11*%
X122847382Y-67952380D02*
X122847382Y-66952380D01*
X123085477Y-66952380D01*
X123228334Y-67000000D01*
X123323572Y-67095238D01*
X123371191Y-67190476D01*
X123418810Y-67380952D01*
X123418810Y-67523809D01*
X123371191Y-67714285D01*
X123323572Y-67809523D01*
X123228334Y-67904761D01*
X123085477Y-67952380D01*
X122847382Y-67952380D01*
X124371191Y-67952380D02*
X123799763Y-67952380D01*
X124085477Y-67952380D02*
X124085477Y-66952380D01*
X123990239Y-67095238D01*
X123895001Y-67190476D01*
X123799763Y-67238095D01*
X125323572Y-67952380D02*
X124752144Y-67952380D01*
X125037858Y-67952380D02*
X125037858Y-66952380D01*
X124942620Y-67095238D01*
X124847382Y-67190476D01*
X124752144Y-67238095D01*
%TO.C,C2*%
X53226042Y-30635366D02*
X53273661Y-30682985D01*
X53321280Y-30825842D01*
X53321280Y-30921080D01*
X53273661Y-31063938D01*
X53178423Y-31159176D01*
X53083185Y-31206795D01*
X52892709Y-31254414D01*
X52749852Y-31254414D01*
X52559376Y-31206795D01*
X52464138Y-31159176D01*
X52368900Y-31063938D01*
X52321280Y-30921080D01*
X52321280Y-30825842D01*
X52368900Y-30682985D01*
X52416519Y-30635366D01*
X52416519Y-30254414D02*
X52368900Y-30206795D01*
X52321280Y-30111557D01*
X52321280Y-29873461D01*
X52368900Y-29778223D01*
X52416519Y-29730604D01*
X52511757Y-29682985D01*
X52606995Y-29682985D01*
X52749852Y-29730604D01*
X53321280Y-30302033D01*
X53321280Y-29682985D01*
%TO.C,R6*%
X35352380Y-72826666D02*
X34876190Y-73160000D01*
X35352380Y-73398095D02*
X34352380Y-73398095D01*
X34352380Y-73017142D01*
X34400000Y-72921904D01*
X34447619Y-72874285D01*
X34542857Y-72826666D01*
X34685714Y-72826666D01*
X34780952Y-72874285D01*
X34828571Y-72921904D01*
X34876190Y-73017142D01*
X34876190Y-73398095D01*
X34352380Y-71969523D02*
X34352380Y-72160000D01*
X34400000Y-72255238D01*
X34447619Y-72302857D01*
X34590476Y-72398095D01*
X34780952Y-72445714D01*
X35161904Y-72445714D01*
X35257142Y-72398095D01*
X35304761Y-72350476D01*
X35352380Y-72255238D01*
X35352380Y-72064761D01*
X35304761Y-71969523D01*
X35257142Y-71921904D01*
X35161904Y-71874285D01*
X34923809Y-71874285D01*
X34828571Y-71921904D01*
X34780952Y-71969523D01*
X34733333Y-72064761D01*
X34733333Y-72255238D01*
X34780952Y-72350476D01*
X34828571Y-72398095D01*
X34923809Y-72445714D01*
%TO.C,R8*%
X85352380Y-72826666D02*
X84876190Y-73160000D01*
X85352380Y-73398095D02*
X84352380Y-73398095D01*
X84352380Y-73017142D01*
X84400000Y-72921904D01*
X84447619Y-72874285D01*
X84542857Y-72826666D01*
X84685714Y-72826666D01*
X84780952Y-72874285D01*
X84828571Y-72921904D01*
X84876190Y-73017142D01*
X84876190Y-73398095D01*
X84780952Y-72255238D02*
X84733333Y-72350476D01*
X84685714Y-72398095D01*
X84590476Y-72445714D01*
X84542857Y-72445714D01*
X84447619Y-72398095D01*
X84400000Y-72350476D01*
X84352380Y-72255238D01*
X84352380Y-72064761D01*
X84400000Y-71969523D01*
X84447619Y-71921904D01*
X84542857Y-71874285D01*
X84590476Y-71874285D01*
X84685714Y-71921904D01*
X84733333Y-71969523D01*
X84780952Y-72064761D01*
X84780952Y-72255238D01*
X84828571Y-72350476D01*
X84876190Y-72398095D01*
X84971428Y-72445714D01*
X85161904Y-72445714D01*
X85257142Y-72398095D01*
X85304761Y-72350476D01*
X85352380Y-72255238D01*
X85352380Y-72064761D01*
X85304761Y-71969523D01*
X85257142Y-71921904D01*
X85161904Y-71874285D01*
X84971428Y-71874285D01*
X84876190Y-71921904D01*
X84828571Y-71969523D01*
X84780952Y-72064761D01*
%TO.C,D13*%
X136428214Y-49752380D02*
X136428214Y-48752380D01*
X136666309Y-48752380D01*
X136809166Y-48800000D01*
X136904404Y-48895238D01*
X136952023Y-48990476D01*
X136999642Y-49180952D01*
X136999642Y-49323809D01*
X136952023Y-49514285D01*
X136904404Y-49609523D01*
X136809166Y-49704761D01*
X136666309Y-49752380D01*
X136428214Y-49752380D01*
X137952023Y-49752380D02*
X137380595Y-49752380D01*
X137666309Y-49752380D02*
X137666309Y-48752380D01*
X137571071Y-48895238D01*
X137475833Y-48990476D01*
X137380595Y-49038095D01*
X138285357Y-48752380D02*
X138904404Y-48752380D01*
X138571071Y-49133333D01*
X138713928Y-49133333D01*
X138809166Y-49180952D01*
X138856785Y-49228571D01*
X138904404Y-49323809D01*
X138904404Y-49561904D01*
X138856785Y-49657142D01*
X138809166Y-49704761D01*
X138713928Y-49752380D01*
X138428214Y-49752380D01*
X138332976Y-49704761D01*
X138285357Y-49657142D01*
%TO.C,R12*%
X66927142Y-68162380D02*
X66593809Y-67686190D01*
X66355714Y-68162380D02*
X66355714Y-67162380D01*
X66736666Y-67162380D01*
X66831904Y-67210000D01*
X66879523Y-67257619D01*
X66927142Y-67352857D01*
X66927142Y-67495714D01*
X66879523Y-67590952D01*
X66831904Y-67638571D01*
X66736666Y-67686190D01*
X66355714Y-67686190D01*
X67879523Y-68162380D02*
X67308095Y-68162380D01*
X67593809Y-68162380D02*
X67593809Y-67162380D01*
X67498571Y-67305238D01*
X67403333Y-67400476D01*
X67308095Y-67448095D01*
X68260476Y-67257619D02*
X68308095Y-67210000D01*
X68403333Y-67162380D01*
X68641428Y-67162380D01*
X68736666Y-67210000D01*
X68784285Y-67257619D01*
X68831904Y-67352857D01*
X68831904Y-67448095D01*
X68784285Y-67590952D01*
X68212857Y-68162380D01*
X68831904Y-68162380D01*
%TO.C,R17*%
X132527142Y-43782380D02*
X132193809Y-43306190D01*
X131955714Y-43782380D02*
X131955714Y-42782380D01*
X132336666Y-42782380D01*
X132431904Y-42830000D01*
X132479523Y-42877619D01*
X132527142Y-42972857D01*
X132527142Y-43115714D01*
X132479523Y-43210952D01*
X132431904Y-43258571D01*
X132336666Y-43306190D01*
X131955714Y-43306190D01*
X133479523Y-43782380D02*
X132908095Y-43782380D01*
X133193809Y-43782380D02*
X133193809Y-42782380D01*
X133098571Y-42925238D01*
X133003333Y-43020476D01*
X132908095Y-43068095D01*
X133812857Y-42782380D02*
X134479523Y-42782380D01*
X134050952Y-43782380D01*
%TO.C,Q2*%
X62904761Y-71047619D02*
X62809523Y-71000000D01*
X62714285Y-70904761D01*
X62571428Y-70761904D01*
X62476190Y-70714285D01*
X62380952Y-70714285D01*
X62428571Y-70952380D02*
X62333333Y-70904761D01*
X62238095Y-70809523D01*
X62190476Y-70619047D01*
X62190476Y-70285714D01*
X62238095Y-70095238D01*
X62333333Y-70000000D01*
X62428571Y-69952380D01*
X62619047Y-69952380D01*
X62714285Y-70000000D01*
X62809523Y-70095238D01*
X62857142Y-70285714D01*
X62857142Y-70619047D01*
X62809523Y-70809523D01*
X62714285Y-70904761D01*
X62619047Y-70952380D01*
X62428571Y-70952380D01*
X63238095Y-70047619D02*
X63285714Y-70000000D01*
X63380952Y-69952380D01*
X63619047Y-69952380D01*
X63714285Y-70000000D01*
X63761904Y-70047619D01*
X63809523Y-70142857D01*
X63809523Y-70238095D01*
X63761904Y-70380952D01*
X63190476Y-70952380D01*
X63809523Y-70952380D01*
%TO.C,R13*%
X91947142Y-68162380D02*
X91613809Y-67686190D01*
X91375714Y-68162380D02*
X91375714Y-67162380D01*
X91756666Y-67162380D01*
X91851904Y-67210000D01*
X91899523Y-67257619D01*
X91947142Y-67352857D01*
X91947142Y-67495714D01*
X91899523Y-67590952D01*
X91851904Y-67638571D01*
X91756666Y-67686190D01*
X91375714Y-67686190D01*
X92899523Y-68162380D02*
X92328095Y-68162380D01*
X92613809Y-68162380D02*
X92613809Y-67162380D01*
X92518571Y-67305238D01*
X92423333Y-67400476D01*
X92328095Y-67448095D01*
X93232857Y-67162380D02*
X93851904Y-67162380D01*
X93518571Y-67543333D01*
X93661428Y-67543333D01*
X93756666Y-67590952D01*
X93804285Y-67638571D01*
X93851904Y-67733809D01*
X93851904Y-67971904D01*
X93804285Y-68067142D01*
X93756666Y-68114761D01*
X93661428Y-68162380D01*
X93375714Y-68162380D01*
X93280476Y-68114761D01*
X93232857Y-68067142D01*
D12*
%TO.C,U2*%
X63488900Y-28391200D02*
X63488900Y-29651200D01*
X59728900Y-35211200D02*
X63488900Y-35211200D01*
X57478900Y-28391200D02*
X63488900Y-28391200D01*
X63488900Y-35211200D02*
X63488900Y-33951200D01*
%TO.C,U3*%
X63488900Y-44815000D02*
X63488900Y-46075000D01*
X59728900Y-51635000D02*
X63488900Y-51635000D01*
X63488900Y-51635000D02*
X63488900Y-50375000D01*
X57478900Y-44815000D02*
X63488900Y-44815000D01*
%TO.C,K2*%
X61700000Y-105550000D02*
X74800000Y-105550000D01*
X70850000Y-82510000D02*
X72120000Y-82510000D01*
X65770000Y-83780000D02*
X70850000Y-83780000D01*
X64500000Y-82510000D02*
X65770000Y-82510000D01*
X74800000Y-105550000D02*
X74800000Y-76150000D01*
X63000000Y-75950000D02*
X61500000Y-75950000D01*
X61500000Y-75950000D02*
X61500000Y-77450000D01*
X64500000Y-81240000D02*
X64500000Y-82510000D01*
X70850000Y-83780000D02*
X70850000Y-81240000D01*
X65770000Y-82510000D02*
X65770000Y-83780000D01*
D13*
X67040000Y-81240000D02*
X68310000Y-83780000D01*
D12*
X72120000Y-82510000D02*
X72120000Y-81240000D01*
X61700000Y-76150000D02*
X61700000Y-105550000D01*
X65770000Y-81240000D02*
X65770000Y-82510000D01*
X70850000Y-81240000D02*
X65770000Y-81240000D01*
X74800000Y-76150000D02*
X61700000Y-76150000D01*
%TO.C,J8*%
X128960000Y-43740000D02*
X128960000Y-48880000D01*
X126300000Y-41140000D02*
X127630000Y-41140000D01*
X126300000Y-48880000D02*
X128960000Y-48880000D01*
X126300000Y-43740000D02*
X126300000Y-48880000D01*
X126300000Y-42470000D02*
X126300000Y-41140000D01*
X126300000Y-43740000D02*
X128960000Y-43740000D01*
%TO.C,R11*%
X42530436Y-70095000D02*
X42984564Y-70095000D01*
X42530436Y-68625000D02*
X42984564Y-68625000D01*
%TO.C,D9*%
X75871668Y-70320000D02*
X75871668Y-68400000D01*
X73011668Y-70320000D02*
X75871668Y-70320000D01*
X75871668Y-68400000D02*
X73011668Y-68400000D01*
%TO.C,Q3*%
X88340000Y-71510000D02*
X88990000Y-71510000D01*
X88340000Y-74630000D02*
X87690000Y-74630000D01*
X88340000Y-71510000D02*
X86665000Y-71510000D01*
X88340000Y-74630000D02*
X88990000Y-74630000D01*
%TO.C,D8*%
X48199168Y-70320000D02*
X51059168Y-70320000D01*
X51059168Y-68400000D02*
X48199168Y-68400000D01*
X51059168Y-70320000D02*
X51059168Y-68400000D01*
%TO.C,Q4*%
X113250000Y-71530000D02*
X113900000Y-71530000D01*
X113250000Y-74650000D02*
X112600000Y-74650000D01*
X113250000Y-71530000D02*
X111575000Y-71530000D01*
X113250000Y-74650000D02*
X113900000Y-74650000D01*
%TO.C,J4*%
X114150000Y-113790000D02*
X114920000Y-113790000D01*
X113910000Y-114590000D02*
X114410000Y-114590000D01*
X114150000Y-108490000D02*
X122350000Y-108490000D01*
X122350000Y-108030000D02*
X122350000Y-114350000D01*
X114150000Y-114350000D02*
X114920000Y-114350000D01*
X121580000Y-114350000D02*
X122350000Y-114350000D01*
X116500000Y-114350000D02*
X117460000Y-114350000D01*
X113910000Y-113850000D02*
X113910000Y-114590000D01*
X114150000Y-108030000D02*
X114150000Y-114350000D01*
X121580000Y-113790000D02*
X122350000Y-113790000D01*
X114150000Y-108030000D02*
X122350000Y-108030000D01*
X119040000Y-114350000D02*
X120000000Y-114350000D01*
X116500000Y-113790000D02*
X117460000Y-113790000D01*
X119040000Y-113790000D02*
X120000000Y-113790000D01*
%TO.C,C1*%
X79650000Y-29891380D02*
X81486000Y-29891380D01*
X79650000Y-30331380D02*
X81671000Y-30331380D01*
X75460000Y-30651380D02*
X77570000Y-30651380D01*
X77101000Y-28491380D02*
X80119000Y-28491380D01*
X75920000Y-29571380D02*
X77570000Y-29571380D01*
X79650000Y-31012380D02*
X81821000Y-31012380D01*
X75798000Y-29771380D02*
X77570000Y-29771380D01*
X75714000Y-29931380D02*
X77570000Y-29931380D01*
X79650000Y-29091380D02*
X80915000Y-29091380D01*
X79650000Y-29931380D02*
X81506000Y-29931380D01*
X75694000Y-29971380D02*
X77570000Y-29971380D01*
X75524000Y-30411380D02*
X77570000Y-30411380D01*
X75894000Y-29611380D02*
X77570000Y-29611380D01*
X75409000Y-30932380D02*
X77570000Y-30932380D01*
X78208000Y-28131380D02*
X79012000Y-28131380D01*
X76032000Y-29411380D02*
X77570000Y-29411380D01*
X75382000Y-31252380D02*
X81838000Y-31252380D01*
X77551000Y-28291380D02*
X79669000Y-28291380D01*
X76386000Y-29011380D02*
X80834000Y-29011380D01*
X79650000Y-30251380D02*
X81643000Y-30251380D01*
X79650000Y-29851380D02*
X81466000Y-29851380D01*
X75469000Y-30611380D02*
X77570000Y-30611380D01*
X76267000Y-29131380D02*
X77570000Y-29131380D01*
X77260000Y-28411380D02*
X79960000Y-28411380D01*
X76834000Y-28651380D02*
X80386000Y-28651380D01*
X76094000Y-29331380D02*
X77570000Y-29331380D01*
X75435000Y-30772380D02*
X77570000Y-30772380D01*
X75974000Y-29491380D02*
X77570000Y-29491380D01*
X79650000Y-30411380D02*
X81696000Y-30411380D01*
X75479000Y-30571380D02*
X77570000Y-30571380D01*
X76305000Y-29091380D02*
X77570000Y-29091380D01*
X79650000Y-30171380D02*
X81612000Y-30171380D01*
X76345000Y-29051380D02*
X80875000Y-29051380D01*
X79650000Y-29531380D02*
X81274000Y-29531380D01*
X79650000Y-30812380D02*
X81792000Y-30812380D01*
X75512000Y-30451380D02*
X77570000Y-30451380D01*
X75399000Y-31012380D02*
X77570000Y-31012380D01*
X79650000Y-30451380D02*
X81708000Y-30451380D01*
X79650000Y-29611380D02*
X81326000Y-29611380D01*
X79650000Y-31092380D02*
X81828000Y-31092380D01*
X79650000Y-30732380D02*
X81777000Y-30732380D01*
X79650000Y-30932380D02*
X81811000Y-30932380D01*
X77029000Y-28531380D02*
X80191000Y-28531380D01*
X79650000Y-30371380D02*
X81684000Y-30371380D01*
X76896000Y-28611380D02*
X80324000Y-28611380D01*
X79650000Y-31052380D02*
X81825000Y-31052380D01*
X79650000Y-30211380D02*
X81628000Y-30211380D01*
X76615000Y-28811380D02*
X80605000Y-28811380D01*
X79650000Y-30051380D02*
X81562000Y-30051380D01*
X79650000Y-29571380D02*
X81300000Y-29571380D01*
X75380000Y-31332380D02*
X81840000Y-31332380D01*
X79650000Y-30892380D02*
X81805000Y-30892380D01*
X75395000Y-31052380D02*
X77570000Y-31052380D01*
X76126000Y-29291380D02*
X77570000Y-29291380D01*
X79650000Y-29491380D02*
X81246000Y-29491380D01*
X79650000Y-30692380D02*
X81769000Y-30692380D01*
X75489000Y-30531380D02*
X77570000Y-30531380D01*
X79650000Y-29771380D02*
X81422000Y-29771380D01*
X75388000Y-31132380D02*
X77570000Y-31132380D01*
X75946000Y-29531380D02*
X77570000Y-29531380D01*
X79650000Y-30852380D02*
X81799000Y-30852380D01*
X79650000Y-30571380D02*
X81741000Y-30571380D01*
X79650000Y-29131380D02*
X80953000Y-29131380D01*
X79650000Y-29251380D02*
X81060000Y-29251380D01*
X75563000Y-30291380D02*
X77570000Y-30291380D01*
X79650000Y-30091380D02*
X81580000Y-30091380D01*
X79650000Y-29651380D02*
X81352000Y-29651380D01*
X76720000Y-28731380D02*
X80500000Y-28731380D01*
X75549000Y-30331380D02*
X77570000Y-30331380D01*
X76003000Y-29451380D02*
X77570000Y-29451380D01*
X76194000Y-29211380D02*
X77570000Y-29211380D01*
X79650000Y-29211380D02*
X81026000Y-29211380D01*
X75640000Y-30091380D02*
X77570000Y-30091380D01*
X75428000Y-30812380D02*
X77570000Y-30812380D01*
X75624000Y-30131380D02*
X77570000Y-30131380D01*
X79650000Y-30011380D02*
X81544000Y-30011380D01*
X76160000Y-29251380D02*
X77570000Y-29251380D01*
X75820000Y-29731380D02*
X77570000Y-29731380D01*
X79650000Y-29691380D02*
X81376000Y-29691380D01*
X79650000Y-29971380D02*
X81526000Y-29971380D01*
X75386000Y-31172380D02*
X81834000Y-31172380D01*
X75592000Y-30211380D02*
X77570000Y-30211380D01*
X76428000Y-28971380D02*
X80792000Y-28971380D01*
X79650000Y-30611380D02*
X81751000Y-30611380D01*
X76771000Y-34872621D02*
X76771000Y-34242621D01*
X77445000Y-28331380D02*
X79775000Y-28331380D01*
X79650000Y-29411380D02*
X81188000Y-29411380D01*
X76230000Y-29171380D02*
X77570000Y-29171380D01*
X76960000Y-28571380D02*
X80260000Y-28571380D01*
X76566000Y-28851380D02*
X80654000Y-28851380D01*
X75380000Y-31372380D02*
X81840000Y-31372380D01*
X75608000Y-30171380D02*
X77570000Y-30171380D01*
X77670000Y-28251380D02*
X79550000Y-28251380D01*
X75380000Y-31292380D02*
X81840000Y-31292380D01*
X76062000Y-29371380D02*
X77570000Y-29371380D01*
X75415000Y-30892380D02*
X77570000Y-30892380D01*
X79650000Y-29731380D02*
X81400000Y-29731380D01*
X75443000Y-30732380D02*
X77570000Y-30732380D01*
X76666000Y-28771380D02*
X80554000Y-28771380D01*
X77348000Y-28371380D02*
X79872000Y-28371380D01*
X76473000Y-28931380D02*
X80747000Y-28931380D01*
X79650000Y-30772380D02*
X81785000Y-30772380D01*
X79650000Y-30972380D02*
X81816000Y-30972380D01*
X75577000Y-30251380D02*
X77570000Y-30251380D01*
X76518000Y-28891380D02*
X80702000Y-28891380D01*
X75754000Y-29851380D02*
X77570000Y-29851380D01*
X79650000Y-29171380D02*
X80990000Y-29171380D01*
X79650000Y-30651380D02*
X81760000Y-30651380D01*
X75451000Y-30692380D02*
X77570000Y-30692380D01*
X76776000Y-28691380D02*
X80444000Y-28691380D01*
X75536000Y-30371380D02*
X77570000Y-30371380D01*
X75500000Y-30491380D02*
X77570000Y-30491380D01*
X79650000Y-29451380D02*
X81217000Y-29451380D01*
X75404000Y-30972380D02*
X77570000Y-30972380D01*
X75734000Y-29891380D02*
X77570000Y-29891380D01*
X79650000Y-30291380D02*
X81657000Y-30291380D01*
X75868000Y-29651380D02*
X77570000Y-29651380D01*
X75383000Y-31212380D02*
X81837000Y-31212380D01*
X75392000Y-31092380D02*
X77570000Y-31092380D01*
X79650000Y-30131380D02*
X81596000Y-30131380D01*
X79650000Y-29371380D02*
X81158000Y-29371380D01*
X75421000Y-30852380D02*
X77570000Y-30852380D01*
X79650000Y-29291380D02*
X81094000Y-29291380D01*
X77808000Y-28211380D02*
X79412000Y-28211380D01*
X77178000Y-28451380D02*
X80042000Y-28451380D01*
X79650000Y-30491380D02*
X81720000Y-30491380D01*
X77977000Y-28171380D02*
X79243000Y-28171380D01*
X76456000Y-34557621D02*
X77086000Y-34557621D01*
X75776000Y-29811380D02*
X77570000Y-29811380D01*
X79650000Y-29811380D02*
X81444000Y-29811380D01*
X75844000Y-29691380D02*
X77570000Y-29691380D01*
X75658000Y-30051380D02*
X77570000Y-30051380D01*
X79650000Y-30531380D02*
X81731000Y-30531380D01*
X79650000Y-31132380D02*
X81832000Y-31132380D01*
X79650000Y-29331380D02*
X81126000Y-29331380D01*
X75676000Y-30011380D02*
X77570000Y-30011380D01*
X81880000Y-31372380D02*
G75*
G03*
X81880000Y-31372380I-3270000J0D01*
G01*
%TO.C,K3*%
X86670000Y-75950000D02*
X86670000Y-77450000D01*
X90940000Y-82510000D02*
X90940000Y-83780000D01*
X88170000Y-75950000D02*
X86670000Y-75950000D01*
X96020000Y-82510000D02*
X97290000Y-82510000D01*
X99970000Y-105550000D02*
X99970000Y-76150000D01*
D13*
X92210000Y-81240000D02*
X93480000Y-83780000D01*
D12*
X86870000Y-105550000D02*
X99970000Y-105550000D01*
X89670000Y-82510000D02*
X90940000Y-82510000D01*
X90940000Y-81240000D02*
X90940000Y-82510000D01*
X96020000Y-81240000D02*
X90940000Y-81240000D01*
X96020000Y-83780000D02*
X96020000Y-81240000D01*
X89670000Y-81240000D02*
X89670000Y-82510000D01*
X99970000Y-76150000D02*
X86870000Y-76150000D01*
X90940000Y-83780000D02*
X96020000Y-83780000D01*
X86870000Y-76150000D02*
X86870000Y-105550000D01*
X97290000Y-82510000D02*
X97290000Y-81240000D01*
%TO.C,J9*%
X90715000Y-58625000D02*
X90715000Y-61225000D01*
X90715000Y-61225000D02*
X93315000Y-61225000D01*
X93315000Y-63825000D02*
X47475000Y-63825000D01*
X93315000Y-58625000D02*
X93315000Y-59955000D01*
X91985000Y-58625000D02*
X93315000Y-58625000D01*
X90715000Y-58625000D02*
X47475000Y-58625000D01*
X47475000Y-58625000D02*
X47475000Y-63825000D01*
X93315000Y-61225000D02*
X93315000Y-63825000D01*
%TO.C,K1*%
X40770000Y-81240000D02*
X40770000Y-82510000D01*
X36700000Y-76150000D02*
X36700000Y-105550000D01*
D13*
X42040000Y-81240000D02*
X43310000Y-83780000D01*
D12*
X40770000Y-83780000D02*
X45850000Y-83780000D01*
X38000000Y-75950000D02*
X36500000Y-75950000D01*
X36500000Y-75950000D02*
X36500000Y-77450000D01*
X47120000Y-82510000D02*
X47120000Y-81240000D01*
X45850000Y-81240000D02*
X40770000Y-81240000D01*
X45850000Y-82510000D02*
X47120000Y-82510000D01*
X40770000Y-82510000D02*
X40770000Y-83780000D01*
X49800000Y-76150000D02*
X36700000Y-76150000D01*
X49800000Y-105550000D02*
X49800000Y-76150000D01*
X39500000Y-81240000D02*
X39500000Y-82510000D01*
X45850000Y-83780000D02*
X45850000Y-81240000D01*
X39500000Y-82510000D02*
X40770000Y-82510000D01*
X36700000Y-105550000D02*
X49800000Y-105550000D01*
%TO.C,D2*%
X75190000Y-71420000D02*
X68290000Y-71420000D01*
X75190000Y-74720000D02*
X68290000Y-74720000D01*
X75190000Y-74720000D02*
X75190000Y-71420000D01*
%TO.C,J6*%
X32348900Y-37306200D02*
X33088900Y-37306200D01*
X26988900Y-37066200D02*
X26988900Y-31406200D01*
X32288900Y-32176200D02*
X32288900Y-31406200D01*
X32848900Y-34716200D02*
X32848900Y-33756200D01*
X32848900Y-37066200D02*
X32848900Y-36296200D01*
X26528900Y-37066200D02*
X32848900Y-37066200D01*
X32288900Y-34716200D02*
X32288900Y-33756200D01*
X33088900Y-37306200D02*
X33088900Y-36806200D01*
X26528900Y-37066200D02*
X26528900Y-31406200D01*
X32848900Y-32176200D02*
X32848900Y-31406200D01*
X32288900Y-37066200D02*
X32288900Y-36296200D01*
X26528900Y-31406200D02*
X32848900Y-31406200D01*
%TO.C,Q5*%
X138170000Y-71510000D02*
X136495000Y-71510000D01*
X138170000Y-74630000D02*
X137520000Y-74630000D01*
X138170000Y-71510000D02*
X138820000Y-71510000D01*
X138170000Y-74630000D02*
X138820000Y-74630000D01*
%TO.C,D5*%
X150230000Y-74720000D02*
X150230000Y-71420000D01*
X150230000Y-74720000D02*
X143330000Y-74720000D01*
X150230000Y-71420000D02*
X143330000Y-71420000D01*
%TO.C,R9*%
X107515000Y-72432936D02*
X107515000Y-72887064D01*
X108985000Y-72432936D02*
X108985000Y-72887064D01*
%TO.C,R1*%
X107645000Y-26907064D02*
X107645000Y-26452936D01*
X109115000Y-26907064D02*
X109115000Y-26452936D01*
%TO.C,C4*%
X48165000Y-49931252D02*
X48165000Y-49408748D01*
X49635000Y-49931252D02*
X49635000Y-49408748D01*
%TO.C,R3*%
X128595000Y-26867064D02*
X128595000Y-26412936D01*
X130065000Y-26867064D02*
X130065000Y-26412936D01*
%TO.C,C3*%
X49652300Y-33263752D02*
X49652300Y-32741248D01*
X48182300Y-33263752D02*
X48182300Y-32741248D01*
%TO.C,K5*%
X145850000Y-83780000D02*
X145850000Y-81240000D01*
X145850000Y-81240000D02*
X140770000Y-81240000D01*
X145850000Y-82510000D02*
X147120000Y-82510000D01*
X136700000Y-105550000D02*
X149800000Y-105550000D01*
X140770000Y-81240000D02*
X140770000Y-82510000D01*
X136500000Y-75950000D02*
X136500000Y-77450000D01*
X140770000Y-82510000D02*
X140770000Y-83780000D01*
X140770000Y-83780000D02*
X145850000Y-83780000D01*
X136700000Y-76150000D02*
X136700000Y-105550000D01*
X149800000Y-76150000D02*
X136700000Y-76150000D01*
X138000000Y-75950000D02*
X136500000Y-75950000D01*
D13*
X142040000Y-81240000D02*
X143310000Y-83780000D01*
D12*
X139500000Y-82510000D02*
X140770000Y-82510000D01*
X139500000Y-81240000D02*
X139500000Y-82510000D01*
X147120000Y-82510000D02*
X147120000Y-81240000D01*
X149800000Y-105550000D02*
X149800000Y-76150000D01*
%TO.C,K4*%
X113000000Y-75420000D02*
X111500000Y-75420000D01*
X114500000Y-81980000D02*
X115770000Y-81980000D01*
X120850000Y-80710000D02*
X115770000Y-80710000D01*
X111700000Y-105020000D02*
X124800000Y-105020000D01*
X114500000Y-80710000D02*
X114500000Y-81980000D01*
X124800000Y-105020000D02*
X124800000Y-75620000D01*
X120850000Y-83250000D02*
X120850000Y-80710000D01*
X122120000Y-81980000D02*
X122120000Y-80710000D01*
X115770000Y-81980000D02*
X115770000Y-83250000D01*
X111500000Y-75420000D02*
X111500000Y-76920000D01*
D13*
X117040000Y-80710000D02*
X118310000Y-83250000D01*
D12*
X120850000Y-81980000D02*
X122120000Y-81980000D01*
X124800000Y-75620000D02*
X111700000Y-75620000D01*
X111700000Y-75620000D02*
X111700000Y-105020000D01*
X115770000Y-80710000D02*
X115770000Y-81980000D01*
X115770000Y-83250000D02*
X120850000Y-83250000D01*
%TO.C,R2*%
X112985000Y-28867064D02*
X112985000Y-28412936D01*
X111515000Y-28867064D02*
X111515000Y-28412936D01*
%TO.C,S2*%
X134170000Y-28430000D02*
X134170000Y-26350000D01*
X135440000Y-30110000D02*
X138340000Y-30110000D01*
X139610000Y-28430000D02*
X139610000Y-26350000D01*
X135440000Y-24670000D02*
X134950000Y-25160000D01*
X135440000Y-30110000D02*
X134950000Y-29620000D01*
X138340000Y-24670000D02*
X138830000Y-25160000D01*
X135440000Y-24670000D02*
X138340000Y-24670000D01*
X138340000Y-30110000D02*
X138830000Y-29620000D01*
%TO.C,S1*%
X117050000Y-30220000D02*
X116560000Y-29730000D01*
X119950000Y-24780000D02*
X120440000Y-25270000D01*
X121220000Y-28540000D02*
X121220000Y-26460000D01*
X115780000Y-28540000D02*
X115780000Y-26460000D01*
X119950000Y-30220000D02*
X120440000Y-29730000D01*
X117050000Y-24780000D02*
X116560000Y-25270000D01*
X117050000Y-30220000D02*
X119950000Y-30220000D01*
X117050000Y-24780000D02*
X119950000Y-24780000D01*
%TO.C,C5*%
X50725000Y-47301252D02*
X50725000Y-46778748D01*
X52195000Y-47301252D02*
X52195000Y-46778748D01*
%TO.C,D4*%
X125230000Y-71440000D02*
X118330000Y-71440000D01*
X125230000Y-74740000D02*
X125230000Y-71440000D01*
X125230000Y-74740000D02*
X118330000Y-74740000D01*
%TO.C,J1*%
X39150000Y-108470000D02*
X47350000Y-108470000D01*
X39150000Y-114330000D02*
X39920000Y-114330000D01*
X38910000Y-114570000D02*
X39410000Y-114570000D01*
X46580000Y-113770000D02*
X47350000Y-113770000D01*
X41500000Y-114330000D02*
X42460000Y-114330000D01*
X41500000Y-113770000D02*
X42460000Y-113770000D01*
X38910000Y-113830000D02*
X38910000Y-114570000D01*
X39150000Y-108010000D02*
X47350000Y-108010000D01*
X39150000Y-113770000D02*
X39920000Y-113770000D01*
X47350000Y-108010000D02*
X47350000Y-114330000D01*
X39150000Y-108010000D02*
X39150000Y-114330000D01*
X46580000Y-114330000D02*
X47350000Y-114330000D01*
X44040000Y-113770000D02*
X45000000Y-113770000D01*
X44040000Y-114330000D02*
X45000000Y-114330000D01*
%TO.C,D6*%
X35288900Y-34156200D02*
X42188900Y-34156200D01*
X35288900Y-30856200D02*
X42188900Y-30856200D01*
X35288900Y-30856200D02*
X35288900Y-34156200D01*
%TO.C,R5*%
X42955964Y-49366200D02*
X42501836Y-49366200D01*
X42955964Y-50836200D02*
X42501836Y-50836200D01*
%TO.C,R15*%
X141973762Y-68625000D02*
X142427890Y-68625000D01*
X141973762Y-70095000D02*
X142427890Y-70095000D01*
%TO.C,D14*%
X139530000Y-44090000D02*
X136670000Y-44090000D01*
X136670000Y-46010000D02*
X139530000Y-46010000D01*
X139530000Y-46010000D02*
X139530000Y-44090000D01*
D11*
%TO.C,U1*%
X106860000Y-26500000D02*
X88860000Y-26500000D01*
X106860000Y-52000000D02*
X88860000Y-52000000D01*
X106860000Y-26500000D02*
X106860000Y-52000000D01*
X88860000Y-26500000D02*
X88860000Y-52000000D01*
X106860000Y-32500000D02*
X88860000Y-32500000D01*
D14*
X88237981Y-32646000D02*
G75*
G03*
X88237981Y-32646000I-283981J0D01*
G01*
D12*
%TO.C,R10*%
X132515000Y-72432936D02*
X132515000Y-72887064D01*
X133985000Y-72432936D02*
X133985000Y-72887064D01*
%TO.C,D12*%
X150717500Y-68400000D02*
X147857500Y-68400000D01*
X150717500Y-70320000D02*
X150717500Y-68400000D01*
X147857500Y-70320000D02*
X150717500Y-70320000D01*
%TO.C,J2*%
X64150000Y-108010000D02*
X64150000Y-114330000D01*
X64150000Y-114330000D02*
X64920000Y-114330000D01*
X63910000Y-114570000D02*
X64410000Y-114570000D01*
X71580000Y-113770000D02*
X72350000Y-113770000D01*
X71580000Y-114330000D02*
X72350000Y-114330000D01*
X69040000Y-114330000D02*
X70000000Y-114330000D01*
X64150000Y-108010000D02*
X72350000Y-108010000D01*
X69040000Y-113770000D02*
X70000000Y-113770000D01*
X64150000Y-108470000D02*
X72350000Y-108470000D01*
X66500000Y-114330000D02*
X67460000Y-114330000D01*
X66500000Y-113770000D02*
X67460000Y-113770000D01*
X64150000Y-113770000D02*
X64920000Y-113770000D01*
X63910000Y-113830000D02*
X63910000Y-114570000D01*
X72350000Y-108010000D02*
X72350000Y-114330000D01*
%TO.C,J7*%
X152050000Y-41760000D02*
X152050000Y-49440000D01*
X152050000Y-49440000D02*
X154710000Y-49440000D01*
X152050000Y-40490000D02*
X152050000Y-39160000D01*
X152050000Y-39160000D02*
X153380000Y-39160000D01*
X152050000Y-41760000D02*
X154710000Y-41760000D01*
X154710000Y-41760000D02*
X154710000Y-49440000D01*
%TO.C,R14*%
X117392936Y-68625000D02*
X117847064Y-68625000D01*
X117392936Y-70095000D02*
X117847064Y-70095000D01*
%TO.C,R7*%
X57515000Y-72432936D02*
X57515000Y-72887064D01*
X58985000Y-72432936D02*
X58985000Y-72887064D01*
%TO.C,Q1*%
X38170000Y-74630000D02*
X37520000Y-74630000D01*
X38170000Y-71510000D02*
X36495000Y-71510000D01*
X38170000Y-71510000D02*
X38820000Y-71510000D01*
X38170000Y-74630000D02*
X38820000Y-74630000D01*
%TO.C,D1*%
X50230000Y-74720000D02*
X50230000Y-71420000D01*
X50230000Y-71420000D02*
X43330000Y-71420000D01*
X50230000Y-74720000D02*
X43330000Y-74720000D01*
%TO.C,J3*%
X96580000Y-114330000D02*
X97350000Y-114330000D01*
X88910000Y-113830000D02*
X88910000Y-114570000D01*
X89150000Y-108470000D02*
X97350000Y-108470000D01*
X91500000Y-113770000D02*
X92460000Y-113770000D01*
X89150000Y-113770000D02*
X89920000Y-113770000D01*
X89150000Y-114330000D02*
X89920000Y-114330000D01*
X89150000Y-108010000D02*
X97350000Y-108010000D01*
X89150000Y-108010000D02*
X89150000Y-114330000D01*
X94040000Y-113770000D02*
X95000000Y-113770000D01*
X91500000Y-114330000D02*
X92460000Y-114330000D01*
X97350000Y-108010000D02*
X97350000Y-114330000D01*
X88910000Y-114570000D02*
X89410000Y-114570000D01*
X94040000Y-114330000D02*
X95000000Y-114330000D01*
X96580000Y-113770000D02*
X97350000Y-113770000D01*
%TO.C,R16*%
X132922936Y-46815000D02*
X133377064Y-46815000D01*
X132922936Y-48285000D02*
X133377064Y-48285000D01*
%TO.C,J5*%
X144040000Y-113770000D02*
X145000000Y-113770000D01*
X146580000Y-114330000D02*
X147350000Y-114330000D01*
X139150000Y-113770000D02*
X139920000Y-113770000D01*
X139150000Y-114330000D02*
X139920000Y-114330000D01*
X146580000Y-113770000D02*
X147350000Y-113770000D01*
X139150000Y-108470000D02*
X147350000Y-108470000D01*
X147350000Y-108010000D02*
X147350000Y-114330000D01*
X141500000Y-114330000D02*
X142460000Y-114330000D01*
X141500000Y-113770000D02*
X142460000Y-113770000D01*
X139150000Y-108010000D02*
X147350000Y-108010000D01*
X139150000Y-108010000D02*
X139150000Y-114330000D01*
X138910000Y-114570000D02*
X139410000Y-114570000D01*
X138910000Y-113830000D02*
X138910000Y-114570000D01*
X144040000Y-114330000D02*
X145000000Y-114330000D01*
%TO.C,D3*%
X100400000Y-71420000D02*
X93500000Y-71420000D01*
X100400000Y-74720000D02*
X100400000Y-71420000D01*
X100400000Y-74720000D02*
X93500000Y-74720000D01*
%TO.C,R4*%
X126335000Y-26442936D02*
X126335000Y-26897064D01*
X124865000Y-26442936D02*
X124865000Y-26897064D01*
%TO.C,D10*%
X100891668Y-68400000D02*
X98031668Y-68400000D01*
X98031668Y-70320000D02*
X100891668Y-70320000D01*
X100891668Y-70320000D02*
X100891668Y-68400000D01*
%TO.C,D7*%
X41798900Y-48001200D02*
X44658900Y-48001200D01*
X44658900Y-46081200D02*
X41798900Y-46081200D01*
X44658900Y-48001200D02*
X44658900Y-46081200D01*
%TO.C,D11*%
X125921668Y-70320000D02*
X125921668Y-68400000D01*
X123061668Y-70320000D02*
X125921668Y-70320000D01*
X125921668Y-68400000D02*
X123061668Y-68400000D01*
%TO.C,C2*%
X51923900Y-30207448D02*
X51923900Y-30729952D01*
X50453900Y-30207448D02*
X50453900Y-30729952D01*
%TO.C,R6*%
X33985000Y-72432936D02*
X33985000Y-72887064D01*
X32515000Y-72432936D02*
X32515000Y-72887064D01*
%TO.C,R8*%
X83985000Y-72432936D02*
X83985000Y-72887064D01*
X82515000Y-72432936D02*
X82515000Y-72887064D01*
%TO.C,D13*%
X139502500Y-48560000D02*
X139502500Y-46640000D01*
X139502500Y-46640000D02*
X136642500Y-46640000D01*
X136642500Y-48560000D02*
X139502500Y-48560000D01*
%TO.C,R12*%
X67342936Y-68625000D02*
X67797064Y-68625000D01*
X67342936Y-70095000D02*
X67797064Y-70095000D01*
%TO.C,R17*%
X132942936Y-44245000D02*
X133397064Y-44245000D01*
X132942936Y-45715000D02*
X133397064Y-45715000D01*
%TO.C,Q2*%
X63170000Y-71510000D02*
X63820000Y-71510000D01*
X63170000Y-71510000D02*
X61495000Y-71510000D01*
X63170000Y-74630000D02*
X63820000Y-74630000D01*
X63170000Y-74630000D02*
X62520000Y-74630000D01*
%TO.C,R13*%
X92362936Y-70095000D02*
X92817064Y-70095000D01*
X92362936Y-68625000D02*
X92817064Y-68625000D01*
%TD*%
M02*
