%TF.GenerationSoftware,KiCad,Pcbnew,(6.0.5)*%
%TF.CreationDate,2022-06-14T15:57:39+02:00*%
%TF.ProjectId,SmartWatering,536d6172-7457-4617-9465-72696e672e6b,rev?*%
%TF.SameCoordinates,Original*%
%TF.FileFunction,Soldermask,Top*%
%TF.FilePolarity,Negative*%
%FSLAX46Y46*%
G04 Gerber Fmt 4.6, Leading zero omitted, Abs format (unit mm)*
G04 Created by KiCad (PCBNEW (6.0.5)) date 2022-06-14 15:57:39*
%MOMM*%
%LPD*%
G01*
G04 APERTURE LIST*
G04 Aperture macros list*
%AMRoundRect*
0 Rectangle with rounded corners*
0 $1 Rounding radius*
0 $2 $3 $4 $5 $6 $7 $8 $9 X,Y pos of 4 corners*
0 Add a 4 corners polygon primitive as box body*
4,1,4,$2,$3,$4,$5,$6,$7,$8,$9,$2,$3,0*
0 Add four circle primitives for the rounded corners*
1,1,$1+$1,$2,$3*
1,1,$1+$1,$4,$5*
1,1,$1+$1,$6,$7*
1,1,$1+$1,$8,$9*
0 Add four rect primitives between the rounded corners*
20,1,$1+$1,$2,$3,$4,$5,0*
20,1,$1+$1,$4,$5,$6,$7,0*
20,1,$1+$1,$6,$7,$8,$9,0*
20,1,$1+$1,$8,$9,$2,$3,0*%
G04 Aperture macros list end*
%ADD10C,2.000000*%
%ADD11R,2.000000X1.500000*%
%ADD12R,4.000000X6.000000*%
%ADD13O,3.000000X2.000000*%
%ADD14R,2.000000X3.000000*%
%ADD15O,2.000000X3.000000*%
%ADD16R,1.700000X1.700000*%
%ADD17O,1.700000X1.700000*%
%ADD18RoundRect,0.250000X-0.350000X-0.450000X0.350000X-0.450000X0.350000X0.450000X-0.350000X0.450000X0*%
%ADD19RoundRect,0.250000X0.325000X0.450000X-0.325000X0.450000X-0.325000X-0.450000X0.325000X-0.450000X0*%
%ADD20C,0.800000*%
%ADD21C,6.400000*%
%ADD22RoundRect,0.150000X-0.587500X-0.150000X0.587500X-0.150000X0.587500X0.150000X-0.587500X0.150000X0*%
%ADD23C,1.100000*%
%ADD24R,2.200000X2.200000*%
%ADD25C,2.200000*%
%ADD26R,1.600000X1.600000*%
%ADD27C,1.600000*%
%ADD28R,3.500000X1.800000*%
%ADD29RoundRect,0.250000X-0.450000X0.350000X-0.450000X-0.350000X0.450000X-0.350000X0.450000X0.350000X0*%
%ADD30RoundRect,0.250000X0.450000X-0.350000X0.450000X0.350000X-0.450000X0.350000X-0.450000X-0.350000X0*%
%ADD31RoundRect,0.250000X0.475000X-0.337500X0.475000X0.337500X-0.475000X0.337500X-0.475000X-0.337500X0*%
%ADD32R,1.800000X1.100000*%
%ADD33RoundRect,0.250000X0.350000X0.450000X-0.350000X0.450000X-0.350000X-0.450000X0.350000X-0.450000X0*%
%ADD34O,2.500000X0.900000*%
%ADD35O,0.900000X2.500000*%
%ADD36R,6.000000X6.000000*%
%ADD37RoundRect,0.250000X-0.475000X0.337500X-0.475000X-0.337500X0.475000X-0.337500X0.475000X0.337500X0*%
G04 APERTURE END LIST*
D10*
%TO.C,U2*%
X63578900Y-29801200D03*
X65578900Y-29801200D03*
X63578900Y-33801200D03*
X65578900Y-33801200D03*
D11*
X58428900Y-29501200D03*
X58428900Y-31801200D03*
D12*
X64578900Y-31801200D03*
D11*
X58428900Y-34101200D03*
%TD*%
D10*
%TO.C,U3*%
X65578900Y-50225000D03*
X63578900Y-46225000D03*
X65578900Y-46225000D03*
X63578900Y-50225000D03*
D11*
X58428900Y-45925000D03*
X58428900Y-48225000D03*
D12*
X64578900Y-48225000D03*
D11*
X58428900Y-50525000D03*
%TD*%
D13*
%TO.C,K2*%
X72000000Y-99000000D03*
X64500000Y-99000000D03*
X64500000Y-93960000D03*
X72000000Y-93960000D03*
X72000000Y-104040000D03*
X64500000Y-104040000D03*
D14*
X64500000Y-78700000D03*
D15*
X72000000Y-78700000D03*
%TD*%
D16*
%TO.C,J8*%
X127630000Y-42470000D03*
D17*
X127630000Y-45010000D03*
X127630000Y-47550000D03*
%TD*%
D18*
%TO.C,R11*%
X41757500Y-69360000D03*
X43757500Y-69360000D03*
%TD*%
D19*
%TO.C,D9*%
X75036668Y-69360000D03*
X72986668Y-69360000D03*
%TD*%
D20*
%TO.C, *%
X23302944Y-26697056D03*
X25000000Y-27400000D03*
D21*
X25000000Y-25000000D03*
D20*
X26697056Y-26697056D03*
X27400000Y-25000000D03*
X23302944Y-23302944D03*
X22600000Y-25000000D03*
X25000000Y-22600000D03*
X26697056Y-23302944D03*
%TD*%
D22*
%TO.C,Q3*%
X87402500Y-72120000D03*
X87402500Y-74020000D03*
X89277500Y-73070000D03*
%TD*%
D19*
%TO.C,D8*%
X50224168Y-69360000D03*
X48174168Y-69360000D03*
%TD*%
D22*
%TO.C,Q4*%
X112312500Y-72140000D03*
X112312500Y-74040000D03*
X114187500Y-73090000D03*
%TD*%
D23*
%TO.C,J4*%
X118250000Y-113730000D03*
X120790000Y-113730000D03*
X115710000Y-113730000D03*
D24*
X115710000Y-111190000D03*
D25*
X118250000Y-111190000D03*
X120790000Y-111190000D03*
%TD*%
D26*
%TO.C,C1*%
X78610000Y-32622380D03*
D27*
X78610000Y-30122380D03*
%TD*%
D13*
%TO.C,K3*%
X97170000Y-99000000D03*
X89670000Y-99000000D03*
X97170000Y-93960000D03*
X89670000Y-93960000D03*
X89670000Y-104040000D03*
X97170000Y-104040000D03*
D14*
X89670000Y-78700000D03*
D15*
X97170000Y-78700000D03*
%TD*%
D16*
%TO.C,J9*%
X91985000Y-59955000D03*
D17*
X91985000Y-62495000D03*
X89445000Y-59955000D03*
X89445000Y-62495000D03*
X86905000Y-59955000D03*
X86905000Y-62495000D03*
X84365000Y-59955000D03*
X84365000Y-62495000D03*
X81825000Y-59955000D03*
X81825000Y-62495000D03*
X79285000Y-59955000D03*
X79285000Y-62495000D03*
X76745000Y-59955000D03*
X76745000Y-62495000D03*
X74205000Y-59955000D03*
X74205000Y-62495000D03*
X71665000Y-59955000D03*
X71665000Y-62495000D03*
X69125000Y-59955000D03*
X69125000Y-62495000D03*
X66585000Y-59955000D03*
X66585000Y-62495000D03*
X64045000Y-59955000D03*
X64045000Y-62495000D03*
X61505000Y-59955000D03*
X61505000Y-62495000D03*
X58965000Y-59955000D03*
X58965000Y-62495000D03*
X56425000Y-59955000D03*
X56425000Y-62495000D03*
X53885000Y-59955000D03*
X53885000Y-62495000D03*
X51345000Y-59955000D03*
X51345000Y-62495000D03*
X48805000Y-59955000D03*
X48805000Y-62495000D03*
%TD*%
D13*
%TO.C,K1*%
X47000000Y-99000000D03*
X39500000Y-99000000D03*
X47000000Y-93960000D03*
X39500000Y-93960000D03*
X47000000Y-104040000D03*
X39500000Y-104040000D03*
D14*
X39500000Y-78700000D03*
D15*
X47000000Y-78700000D03*
%TD*%
D28*
%TO.C,D2*%
X73290000Y-73070000D03*
X68290000Y-73070000D03*
%TD*%
D23*
%TO.C,J6*%
X32228900Y-35506200D03*
X32228900Y-32966200D03*
D24*
X29688900Y-35506200D03*
D25*
X29688900Y-32966200D03*
%TD*%
D20*
%TO.C, *%
X22600000Y-115000000D03*
X25000000Y-112600000D03*
X25000000Y-117400000D03*
D21*
X25000000Y-115000000D03*
D20*
X23302944Y-116697056D03*
X26697056Y-116697056D03*
X27400000Y-115000000D03*
X26697056Y-113302944D03*
X23302944Y-113302944D03*
%TD*%
D22*
%TO.C,Q5*%
X137232500Y-72120000D03*
X137232500Y-74020000D03*
X139107500Y-73070000D03*
%TD*%
D28*
%TO.C,D5*%
X148330000Y-73070000D03*
X143330000Y-73070000D03*
%TD*%
D29*
%TO.C,R9*%
X108250000Y-71660000D03*
X108250000Y-73660000D03*
%TD*%
D30*
%TO.C,R1*%
X108380000Y-27680000D03*
X108380000Y-25680000D03*
%TD*%
D31*
%TO.C,C4*%
X48900000Y-50707500D03*
X48900000Y-48632500D03*
%TD*%
D30*
%TO.C,R3*%
X129330000Y-27640000D03*
X129330000Y-25640000D03*
%TD*%
D31*
%TO.C,C3*%
X48917300Y-34040000D03*
X48917300Y-31965000D03*
%TD*%
D13*
%TO.C,K5*%
X139500000Y-99000000D03*
X147000000Y-99000000D03*
X139500000Y-93960000D03*
X147000000Y-93960000D03*
X147000000Y-104040000D03*
X139500000Y-104040000D03*
D14*
X139500000Y-78700000D03*
D15*
X147000000Y-78700000D03*
%TD*%
D13*
%TO.C,K4*%
X122000000Y-98470000D03*
X114500000Y-98470000D03*
X122000000Y-93430000D03*
X114500000Y-93430000D03*
X114500000Y-103510000D03*
X122000000Y-103510000D03*
D14*
X114500000Y-78170000D03*
D15*
X122000000Y-78170000D03*
%TD*%
D30*
%TO.C,R2*%
X112250000Y-29640000D03*
X112250000Y-27640000D03*
%TD*%
D32*
%TO.C,S2*%
X133790000Y-25540000D03*
X139990000Y-25540000D03*
X139990000Y-29240000D03*
X133790000Y-29240000D03*
%TD*%
%TO.C,S1*%
X121600000Y-25650000D03*
X115400000Y-25650000D03*
X121600000Y-29350000D03*
X115400000Y-29350000D03*
%TD*%
D31*
%TO.C,C5*%
X51460000Y-48077500D03*
X51460000Y-46002500D03*
%TD*%
D28*
%TO.C,D4*%
X123330000Y-73090000D03*
X118330000Y-73090000D03*
%TD*%
D23*
%TO.C,J1*%
X43250000Y-113710000D03*
X40710000Y-113710000D03*
X45790000Y-113710000D03*
D24*
X40710000Y-111170000D03*
D25*
X43250000Y-111170000D03*
X45790000Y-111170000D03*
%TD*%
D28*
%TO.C,D6*%
X37188900Y-32506200D03*
X42188900Y-32506200D03*
%TD*%
D33*
%TO.C,R5*%
X43728900Y-50101200D03*
X41728900Y-50101200D03*
%TD*%
D18*
%TO.C,R15*%
X141200826Y-69360000D03*
X143200826Y-69360000D03*
%TD*%
D20*
%TO.C, *%
X166697056Y-116697056D03*
X166697056Y-113302944D03*
X165000000Y-112600000D03*
X163302944Y-116697056D03*
X165000000Y-117400000D03*
X162600000Y-115000000D03*
X163302944Y-113302944D03*
D21*
X165000000Y-115000000D03*
D20*
X167400000Y-115000000D03*
%TD*%
D19*
%TO.C,D14*%
X138695000Y-45050000D03*
X136645000Y-45050000D03*
%TD*%
D34*
%TO.C,U1*%
X88860000Y-34000000D03*
X88860000Y-35270000D03*
X88860000Y-36540000D03*
X88860000Y-37810000D03*
X88860000Y-39080000D03*
X88860000Y-40350000D03*
X88860000Y-41620000D03*
X88860000Y-42890000D03*
X88860000Y-44160000D03*
X88860000Y-45430000D03*
X88860000Y-46700000D03*
X88860000Y-47970000D03*
X88860000Y-49240000D03*
X88860000Y-50510000D03*
D35*
X92145000Y-52000000D03*
X93415000Y-52000000D03*
X94685000Y-52000000D03*
X95955000Y-52000000D03*
X97225000Y-52000000D03*
X98495000Y-52000000D03*
X99765000Y-52000000D03*
X101035000Y-52000000D03*
X102305000Y-52000000D03*
X103575000Y-52000000D03*
D34*
X106860000Y-50510000D03*
X106860000Y-49240000D03*
X106860000Y-47970000D03*
X106860000Y-46700000D03*
X106860000Y-45430000D03*
X106860000Y-44160000D03*
X106860000Y-42890000D03*
X106860000Y-41620000D03*
X106860000Y-40350000D03*
X106860000Y-39080000D03*
X106860000Y-37810000D03*
X106860000Y-36540000D03*
X106860000Y-35270000D03*
X106860000Y-34000000D03*
D36*
X97560000Y-41700000D03*
%TD*%
D29*
%TO.C,R10*%
X133250000Y-71660000D03*
X133250000Y-73660000D03*
%TD*%
D19*
%TO.C,D12*%
X149882500Y-69360000D03*
X147832500Y-69360000D03*
%TD*%
D23*
%TO.C,J2*%
X70790000Y-113710000D03*
X65710000Y-113710000D03*
X68250000Y-113710000D03*
D24*
X65710000Y-111170000D03*
D25*
X68250000Y-111170000D03*
X70790000Y-111170000D03*
%TD*%
D16*
%TO.C,J7*%
X153380000Y-40490000D03*
D17*
X153380000Y-43030000D03*
X153380000Y-45570000D03*
X153380000Y-48110000D03*
%TD*%
D18*
%TO.C,R14*%
X116620000Y-69360000D03*
X118620000Y-69360000D03*
%TD*%
D29*
%TO.C,R7*%
X58250000Y-71660000D03*
X58250000Y-73660000D03*
%TD*%
D22*
%TO.C,Q1*%
X37232500Y-72120000D03*
X37232500Y-74020000D03*
X39107500Y-73070000D03*
%TD*%
D28*
%TO.C,D1*%
X48330000Y-73070000D03*
X43330000Y-73070000D03*
%TD*%
D23*
%TO.C,J3*%
X95790000Y-113710000D03*
X93250000Y-113710000D03*
X90710000Y-113710000D03*
D24*
X90710000Y-111170000D03*
D25*
X93250000Y-111170000D03*
X95790000Y-111170000D03*
%TD*%
D18*
%TO.C,R16*%
X132150000Y-47550000D03*
X134150000Y-47550000D03*
%TD*%
D23*
%TO.C,J5*%
X145790000Y-113710000D03*
X140710000Y-113710000D03*
X143250000Y-113710000D03*
D24*
X140710000Y-111170000D03*
D25*
X143250000Y-111170000D03*
X145790000Y-111170000D03*
%TD*%
D28*
%TO.C,D3*%
X98500000Y-73070000D03*
X93500000Y-73070000D03*
%TD*%
D29*
%TO.C,R4*%
X125600000Y-25670000D03*
X125600000Y-27670000D03*
%TD*%
D19*
%TO.C,D10*%
X100056668Y-69360000D03*
X98006668Y-69360000D03*
%TD*%
D20*
%TO.C, *%
X162600000Y-25000000D03*
X165000000Y-22600000D03*
X163302944Y-23302944D03*
X163302944Y-26697056D03*
X165000000Y-27400000D03*
D21*
X165000000Y-25000000D03*
D20*
X167400000Y-25000000D03*
X166697056Y-23302944D03*
X166697056Y-26697056D03*
%TD*%
D19*
%TO.C,D7*%
X43823900Y-47041200D03*
X41773900Y-47041200D03*
%TD*%
%TO.C,D11*%
X125086668Y-69360000D03*
X123036668Y-69360000D03*
%TD*%
D37*
%TO.C,C2*%
X51188900Y-29431200D03*
X51188900Y-31506200D03*
%TD*%
D29*
%TO.C,R6*%
X33250000Y-71660000D03*
X33250000Y-73660000D03*
%TD*%
%TO.C,R8*%
X83250000Y-71660000D03*
X83250000Y-73660000D03*
%TD*%
D19*
%TO.C,D13*%
X138667500Y-47600000D03*
X136617500Y-47600000D03*
%TD*%
D18*
%TO.C,R12*%
X66570000Y-69360000D03*
X68570000Y-69360000D03*
%TD*%
%TO.C,R17*%
X132170000Y-44980000D03*
X134170000Y-44980000D03*
%TD*%
D22*
%TO.C,Q2*%
X62232500Y-72120000D03*
X62232500Y-74020000D03*
X64107500Y-73070000D03*
%TD*%
D18*
%TO.C,R13*%
X91590000Y-69360000D03*
X93590000Y-69360000D03*
%TD*%
G36*
X54052121Y-91280002D02*
G01*
X54098614Y-91333658D01*
X54110000Y-91386000D01*
X54110000Y-116534000D01*
X54089998Y-116602121D01*
X54036342Y-116648614D01*
X53984000Y-116660000D01*
X33376000Y-116660000D01*
X33307879Y-116639998D01*
X33261386Y-116586342D01*
X33250000Y-116534000D01*
X33250000Y-91386000D01*
X33270002Y-91317879D01*
X33323658Y-91271386D01*
X33376000Y-91260000D01*
X53984000Y-91260000D01*
X54052121Y-91280002D01*
G37*
G36*
X79052121Y-91280002D02*
G01*
X79098614Y-91333658D01*
X79110000Y-91386000D01*
X79110000Y-116534000D01*
X79089998Y-116602121D01*
X79036342Y-116648614D01*
X78984000Y-116660000D01*
X58376000Y-116660000D01*
X58307879Y-116639998D01*
X58261386Y-116586342D01*
X58250000Y-116534000D01*
X58250000Y-91386000D01*
X58270002Y-91317879D01*
X58323658Y-91271386D01*
X58376000Y-91260000D01*
X78984000Y-91260000D01*
X79052121Y-91280002D01*
G37*
G36*
X129052121Y-91280002D02*
G01*
X129098614Y-91333658D01*
X129110000Y-91386000D01*
X129110000Y-116534000D01*
X129089998Y-116602121D01*
X129036342Y-116648614D01*
X128984000Y-116660000D01*
X108376000Y-116660000D01*
X108307879Y-116639998D01*
X108261386Y-116586342D01*
X108250000Y-116534000D01*
X108250000Y-91386000D01*
X108270002Y-91317879D01*
X108323658Y-91271386D01*
X108376000Y-91260000D01*
X128984000Y-91260000D01*
X129052121Y-91280002D01*
G37*
G36*
X104052121Y-91280002D02*
G01*
X104098614Y-91333658D01*
X104110000Y-91386000D01*
X104110000Y-116534000D01*
X104089998Y-116602121D01*
X104036342Y-116648614D01*
X103984000Y-116660000D01*
X83376000Y-116660000D01*
X83307879Y-116639998D01*
X83261386Y-116586342D01*
X83250000Y-116534000D01*
X83250000Y-91386000D01*
X83270002Y-91317879D01*
X83323658Y-91271386D01*
X83376000Y-91260000D01*
X103984000Y-91260000D01*
X104052121Y-91280002D01*
G37*
G36*
X154192121Y-91280002D02*
G01*
X154238614Y-91333658D01*
X154250000Y-91386000D01*
X154250000Y-116534000D01*
X154229998Y-116602121D01*
X154176342Y-116648614D01*
X154124000Y-116660000D01*
X133516000Y-116660000D01*
X133447879Y-116639998D01*
X133401386Y-116586342D01*
X133390000Y-116534000D01*
X133390000Y-91386000D01*
X133410002Y-91317879D01*
X133463658Y-91271386D01*
X133516000Y-91260000D01*
X154124000Y-91260000D01*
X154192121Y-91280002D01*
G37*
M02*
