%TF.GenerationSoftware,KiCad,Pcbnew,(6.0.5)*%
%TF.CreationDate,2022-06-14T20:52:32+02:00*%
%TF.ProjectId,SmartWatering,536d6172-7457-4617-9465-72696e672e6b,rev?*%
%TF.SameCoordinates,Original*%
%TF.FileFunction,Copper,L1,Top*%
%TF.FilePolarity,Positive*%
%FSLAX46Y46*%
G04 Gerber Fmt 4.6, Leading zero omitted, Abs format (unit mm)*
G04 Created by KiCad (PCBNEW (6.0.5)) date 2022-06-14 20:52:32*
%MOMM*%
%LPD*%
G01*
G04 APERTURE LIST*
G04 Aperture macros list*
%AMRoundRect*
0 Rectangle with rounded corners*
0 $1 Rounding radius*
0 $2 $3 $4 $5 $6 $7 $8 $9 X,Y pos of 4 corners*
0 Add a 4 corners polygon primitive as box body*
4,1,4,$2,$3,$4,$5,$6,$7,$8,$9,$2,$3,0*
0 Add four circle primitives for the rounded corners*
1,1,$1+$1,$2,$3*
1,1,$1+$1,$4,$5*
1,1,$1+$1,$6,$7*
1,1,$1+$1,$8,$9*
0 Add four rect primitives between the rounded corners*
20,1,$1+$1,$2,$3,$4,$5,0*
20,1,$1+$1,$4,$5,$6,$7,0*
20,1,$1+$1,$6,$7,$8,$9,0*
20,1,$1+$1,$8,$9,$2,$3,0*%
G04 Aperture macros list end*
%TA.AperFunction,ComponentPad*%
%ADD10O,3.000000X2.000000*%
%TD*%
%TA.AperFunction,ComponentPad*%
%ADD11R,2.000000X3.000000*%
%TD*%
%TA.AperFunction,ComponentPad*%
%ADD12O,2.000000X3.000000*%
%TD*%
%TA.AperFunction,ComponentPad*%
%ADD13R,1.700000X1.700000*%
%TD*%
%TA.AperFunction,ComponentPad*%
%ADD14O,1.700000X1.700000*%
%TD*%
%TA.AperFunction,SMDPad,CuDef*%
%ADD15RoundRect,0.250000X-0.350000X-0.450000X0.350000X-0.450000X0.350000X0.450000X-0.350000X0.450000X0*%
%TD*%
%TA.AperFunction,SMDPad,CuDef*%
%ADD16RoundRect,0.250000X0.325000X0.450000X-0.325000X0.450000X-0.325000X-0.450000X0.325000X-0.450000X0*%
%TD*%
%TA.AperFunction,ComponentPad*%
%ADD17C,0.800000*%
%TD*%
%TA.AperFunction,ComponentPad*%
%ADD18C,6.400000*%
%TD*%
%TA.AperFunction,SMDPad,CuDef*%
%ADD19RoundRect,0.150000X-0.587500X-0.150000X0.587500X-0.150000X0.587500X0.150000X-0.587500X0.150000X0*%
%TD*%
%TA.AperFunction,ComponentPad*%
%ADD20R,2.200000X2.200000*%
%TD*%
%TA.AperFunction,ComponentPad*%
%ADD21C,2.200000*%
%TD*%
%TA.AperFunction,ComponentPad*%
%ADD22R,1.600000X1.600000*%
%TD*%
%TA.AperFunction,ComponentPad*%
%ADD23C,1.600000*%
%TD*%
%TA.AperFunction,SMDPad,CuDef*%
%ADD24R,3.500000X1.800000*%
%TD*%
%TA.AperFunction,SMDPad,CuDef*%
%ADD25RoundRect,0.250000X-0.450000X0.350000X-0.450000X-0.350000X0.450000X-0.350000X0.450000X0.350000X0*%
%TD*%
%TA.AperFunction,SMDPad,CuDef*%
%ADD26RoundRect,0.250000X0.450000X-0.350000X0.450000X0.350000X-0.450000X0.350000X-0.450000X-0.350000X0*%
%TD*%
%TA.AperFunction,SMDPad,CuDef*%
%ADD27RoundRect,0.250000X0.475000X-0.337500X0.475000X0.337500X-0.475000X0.337500X-0.475000X-0.337500X0*%
%TD*%
%TA.AperFunction,SMDPad,CuDef*%
%ADD28R,1.800000X1.100000*%
%TD*%
%TA.AperFunction,SMDPad,CuDef*%
%ADD29RoundRect,0.250000X0.350000X0.450000X-0.350000X0.450000X-0.350000X-0.450000X0.350000X-0.450000X0*%
%TD*%
%TA.AperFunction,SMDPad,CuDef*%
%ADD30O,2.500000X0.900000*%
%TD*%
%TA.AperFunction,SMDPad,CuDef*%
%ADD31O,0.900000X2.500000*%
%TD*%
%TA.AperFunction,SMDPad,CuDef*%
%ADD32R,6.000000X6.000000*%
%TD*%
%TA.AperFunction,SMDPad,CuDef*%
%ADD33R,2.000000X1.500000*%
%TD*%
%TA.AperFunction,SMDPad,CuDef*%
%ADD34R,4.000000X6.000000*%
%TD*%
%TA.AperFunction,SMDPad,CuDef*%
%ADD35RoundRect,0.250000X-0.475000X0.337500X-0.475000X-0.337500X0.475000X-0.337500X0.475000X0.337500X0*%
%TD*%
%TA.AperFunction,ViaPad*%
%ADD36C,0.800000*%
%TD*%
%TA.AperFunction,Conductor*%
%ADD37C,1.000000*%
%TD*%
%TA.AperFunction,Conductor*%
%ADD38C,0.500000*%
%TD*%
%TA.AperFunction,Conductor*%
%ADD39C,0.750000*%
%TD*%
%TA.AperFunction,Conductor*%
%ADD40C,2.000000*%
%TD*%
%TA.AperFunction,Conductor*%
%ADD41C,0.250000*%
%TD*%
G04 APERTURE END LIST*
D10*
%TO.P,K2,11*%
%TO.N,Net-(J2-Pad3)*%
X72000000Y-99000000D03*
X64500000Y-99000000D03*
%TO.P,K2,12*%
%TO.N,Net-(J2-Pad1)*%
X64500000Y-93960000D03*
X72000000Y-93960000D03*
%TO.P,K2,14*%
%TO.N,Net-(J2-Pad2)*%
X72000000Y-104040000D03*
X64500000Y-104040000D03*
D11*
%TO.P,K2,A1*%
%TO.N,VDD*%
X64500000Y-78700000D03*
D12*
%TO.P,K2,A2*%
%TO.N,Net-(D2-Pad1)*%
X72000000Y-78700000D03*
%TD*%
D13*
%TO.P,J8,1,Pin_1*%
%TO.N,GND*%
X127630000Y-42470000D03*
D14*
%TO.P,J8,2,Pin_2*%
%TO.N,/RX*%
X127630000Y-45010000D03*
%TO.P,J8,3,Pin_3*%
%TO.N,/TX*%
X127630000Y-47550000D03*
%TD*%
D15*
%TO.P,R11,1*%
%TO.N,Net-(D1-Pad1)*%
X41757500Y-69360000D03*
%TO.P,R11,2*%
%TO.N,Net-(D8-Pad2)*%
X43757500Y-69360000D03*
%TD*%
D16*
%TO.P,D9,1,K*%
%TO.N,GND*%
X75036668Y-69360000D03*
%TO.P,D9,2,A*%
%TO.N,Net-(D9-Pad2)*%
X72986668Y-69360000D03*
%TD*%
D17*
%TO.P, ,1*%
%TO.N,N/C*%
X23302944Y-26697056D03*
X25000000Y-27400000D03*
D18*
X25000000Y-25000000D03*
D17*
X26697056Y-26697056D03*
X27400000Y-25000000D03*
X23302944Y-23302944D03*
X22600000Y-25000000D03*
X25000000Y-22600000D03*
X26697056Y-23302944D03*
%TD*%
D19*
%TO.P,Q3,1,G*%
%TO.N,/Relay3*%
X87402500Y-72120000D03*
%TO.P,Q3,2,S*%
%TO.N,GND*%
X87402500Y-74020000D03*
%TO.P,Q3,3,D*%
%TO.N,Net-(D3-Pad1)*%
X89277500Y-73070000D03*
%TD*%
D16*
%TO.P,D8,1,K*%
%TO.N,GND*%
X50224168Y-69360000D03*
%TO.P,D8,2,A*%
%TO.N,Net-(D8-Pad2)*%
X48174168Y-69360000D03*
%TD*%
D19*
%TO.P,Q4,1,G*%
%TO.N,/Relay4*%
X112312500Y-72140000D03*
%TO.P,Q4,2,S*%
%TO.N,GND*%
X112312500Y-74040000D03*
%TO.P,Q4,3,D*%
%TO.N,Net-(D4-Pad1)*%
X114187500Y-73090000D03*
%TD*%
D20*
%TO.P,J4,1,Pin_1*%
%TO.N,Net-(J4-Pad1)*%
X115710000Y-111190000D03*
D21*
%TO.P,J4,2,Pin_2*%
%TO.N,Net-(J4-Pad2)*%
X118250000Y-111190000D03*
%TO.P,J4,3,Pin_3*%
%TO.N,Net-(J4-Pad3)*%
X120790000Y-111190000D03*
%TD*%
D22*
%TO.P,C1,1*%
%TO.N,+3V3*%
X78610000Y-32622380D03*
D23*
%TO.P,C1,2*%
%TO.N,GND*%
X78610000Y-30122380D03*
%TD*%
D10*
%TO.P,K3,11*%
%TO.N,Net-(J3-Pad3)*%
X97170000Y-99000000D03*
X89670000Y-99000000D03*
%TO.P,K3,12*%
%TO.N,Net-(J3-Pad1)*%
X97170000Y-93960000D03*
X89670000Y-93960000D03*
%TO.P,K3,14*%
%TO.N,Net-(J3-Pad2)*%
X89670000Y-104040000D03*
X97170000Y-104040000D03*
D11*
%TO.P,K3,A1*%
%TO.N,VDD*%
X89670000Y-78700000D03*
D12*
%TO.P,K3,A2*%
%TO.N,Net-(D3-Pad1)*%
X97170000Y-78700000D03*
%TD*%
D13*
%TO.P,J9,1,Pin_1*%
%TO.N,/IO26*%
X91985000Y-59955000D03*
D14*
%TO.P,J9,2,Pin_2*%
%TO.N,/IO27*%
X91985000Y-62495000D03*
%TO.P,J9,3,Pin_3*%
%TO.N,/IO25*%
X89445000Y-59955000D03*
%TO.P,J9,4,Pin_4*%
%TO.N,/IO14*%
X89445000Y-62495000D03*
%TO.P,J9,5,Pin_5*%
%TO.N,/IO33*%
X86905000Y-59955000D03*
%TO.P,J9,6,Pin_6*%
%TO.N,/IO12*%
X86905000Y-62495000D03*
%TO.P,J9,7,Pin_7*%
%TO.N,/IO32*%
X84365000Y-59955000D03*
%TO.P,J9,8,Pin_8*%
%TO.N,/IO21*%
X84365000Y-62495000D03*
%TO.P,J9,9,Pin_9*%
%TO.N,/IO35*%
X81825000Y-59955000D03*
%TO.P,J9,10,Pin_10*%
%TO.N,/IO19*%
X81825000Y-62495000D03*
%TO.P,J9,11,Pin_11*%
%TO.N,/IO34*%
X79285000Y-59955000D03*
%TO.P,J9,12,Pin_12*%
%TO.N,GND*%
X79285000Y-62495000D03*
%TO.P,J9,13,Pin_13*%
%TO.N,+5V*%
X76745000Y-59955000D03*
%TO.P,J9,14,Pin_14*%
%TO.N,GND*%
X76745000Y-62495000D03*
%TO.P,J9,15,Pin_15*%
%TO.N,+5V*%
X74205000Y-59955000D03*
%TO.P,J9,16,Pin_16*%
%TO.N,GND*%
X74205000Y-62495000D03*
%TO.P,J9,17,Pin_17*%
%TO.N,+5V*%
X71665000Y-59955000D03*
%TO.P,J9,18,Pin_18*%
%TO.N,GND*%
X71665000Y-62495000D03*
%TO.P,J9,19,Pin_19*%
%TO.N,+5V*%
X69125000Y-59955000D03*
%TO.P,J9,20,Pin_20*%
%TO.N,GND*%
X69125000Y-62495000D03*
%TO.P,J9,21,Pin_21*%
%TO.N,+5V*%
X66585000Y-59955000D03*
%TO.P,J9,22,Pin_22*%
%TO.N,GND*%
X66585000Y-62495000D03*
%TO.P,J9,23,Pin_23*%
%TO.N,+3V3*%
X64045000Y-59955000D03*
%TO.P,J9,24,Pin_24*%
%TO.N,GND*%
X64045000Y-62495000D03*
%TO.P,J9,25,Pin_25*%
%TO.N,+3V3*%
X61505000Y-59955000D03*
%TO.P,J9,26,Pin_26*%
%TO.N,GND*%
X61505000Y-62495000D03*
%TO.P,J9,27,Pin_27*%
%TO.N,+3V3*%
X58965000Y-59955000D03*
%TO.P,J9,28,Pin_28*%
%TO.N,GND*%
X58965000Y-62495000D03*
%TO.P,J9,29,Pin_29*%
%TO.N,+3V3*%
X56425000Y-59955000D03*
%TO.P,J9,30,Pin_30*%
%TO.N,GND*%
X56425000Y-62495000D03*
%TO.P,J9,31,Pin_31*%
%TO.N,VDD*%
X53885000Y-59955000D03*
%TO.P,J9,32,Pin_32*%
%TO.N,GND*%
X53885000Y-62495000D03*
%TO.P,J9,33,Pin_33*%
%TO.N,VDD*%
X51345000Y-59955000D03*
%TO.P,J9,34,Pin_34*%
%TO.N,GND*%
X51345000Y-62495000D03*
%TO.P,J9,35,Pin_35*%
%TO.N,VDD*%
X48805000Y-59955000D03*
%TO.P,J9,36*%
%TO.N,N/C*%
X48805000Y-62495000D03*
%TD*%
D10*
%TO.P,K1,11*%
%TO.N,Net-(J1-Pad3)*%
X47000000Y-99000000D03*
X39500000Y-99000000D03*
%TO.P,K1,12*%
%TO.N,Net-(J1-Pad1)*%
X47000000Y-93960000D03*
X39500000Y-93960000D03*
%TO.P,K1,14*%
%TO.N,Net-(J1-Pad2)*%
X47000000Y-104040000D03*
X39500000Y-104040000D03*
D11*
%TO.P,K1,A1*%
%TO.N,VDD*%
X39500000Y-78700000D03*
D12*
%TO.P,K1,A2*%
%TO.N,Net-(D1-Pad1)*%
X47000000Y-78700000D03*
%TD*%
D24*
%TO.P,D2,1,A*%
%TO.N,Net-(D2-Pad1)*%
X73290000Y-73070000D03*
%TO.P,D2,2,K*%
%TO.N,VDD*%
X68290000Y-73070000D03*
%TD*%
D20*
%TO.P,J6,1,Pin_1*%
%TO.N,GND*%
X29688900Y-35506200D03*
D21*
%TO.P,J6,2,Pin_2*%
%TO.N,Net-(D6-Pad1)*%
X29688900Y-32966200D03*
%TD*%
D17*
%TO.P, ,1*%
%TO.N,N/C*%
X22600000Y-115000000D03*
X25000000Y-112600000D03*
X25000000Y-117400000D03*
D18*
X25000000Y-115000000D03*
D17*
X23302944Y-116697056D03*
X26697056Y-116697056D03*
X27400000Y-115000000D03*
X26697056Y-113302944D03*
X23302944Y-113302944D03*
%TD*%
D19*
%TO.P,Q5,1,G*%
%TO.N,/Relay5*%
X137232500Y-72120000D03*
%TO.P,Q5,2,S*%
%TO.N,GND*%
X137232500Y-74020000D03*
%TO.P,Q5,3,D*%
%TO.N,Net-(D5-Pad1)*%
X139107500Y-73070000D03*
%TD*%
D24*
%TO.P,D5,1,A*%
%TO.N,Net-(D5-Pad1)*%
X148330000Y-73070000D03*
%TO.P,D5,2,K*%
%TO.N,VDD*%
X143330000Y-73070000D03*
%TD*%
D25*
%TO.P,R9,1*%
%TO.N,/Relay4*%
X108250000Y-71660000D03*
%TO.P,R9,2*%
%TO.N,GND*%
X108250000Y-73660000D03*
%TD*%
D26*
%TO.P,R1,1*%
%TO.N,/IO0*%
X108380000Y-27680000D03*
%TO.P,R1,2*%
%TO.N,Net-(R1-Pad2)*%
X108380000Y-25680000D03*
%TD*%
D27*
%TO.P,C4,1*%
%TO.N,VDD*%
X48900000Y-50707500D03*
%TO.P,C4,2*%
%TO.N,GND*%
X48900000Y-48632500D03*
%TD*%
D26*
%TO.P,R3,1*%
%TO.N,/EN*%
X129330000Y-27640000D03*
%TO.P,R3,2*%
%TO.N,Net-(R3-Pad2)*%
X129330000Y-25640000D03*
%TD*%
D27*
%TO.P,C3,1*%
%TO.N,+5V*%
X48917300Y-34040000D03*
%TO.P,C3,2*%
%TO.N,GND*%
X48917300Y-31965000D03*
%TD*%
D10*
%TO.P,K5,11*%
%TO.N,Net-(J5-Pad3)*%
X139500000Y-99000000D03*
X147000000Y-99000000D03*
%TO.P,K5,12*%
%TO.N,Net-(J5-Pad1)*%
X139500000Y-93960000D03*
X147000000Y-93960000D03*
%TO.P,K5,14*%
%TO.N,Net-(J5-Pad2)*%
X147000000Y-104040000D03*
X139500000Y-104040000D03*
D11*
%TO.P,K5,A1*%
%TO.N,VDD*%
X139500000Y-78700000D03*
D12*
%TO.P,K5,A2*%
%TO.N,Net-(D5-Pad1)*%
X147000000Y-78700000D03*
%TD*%
D10*
%TO.P,K4,11*%
%TO.N,Net-(J4-Pad3)*%
X122000000Y-98470000D03*
X114500000Y-98470000D03*
%TO.P,K4,12*%
%TO.N,Net-(J4-Pad1)*%
X122000000Y-93430000D03*
X114500000Y-93430000D03*
%TO.P,K4,14*%
%TO.N,Net-(J4-Pad2)*%
X114500000Y-103510000D03*
X122000000Y-103510000D03*
D11*
%TO.P,K4,A1*%
%TO.N,VDD*%
X114500000Y-78170000D03*
D12*
%TO.P,K4,A2*%
%TO.N,Net-(D4-Pad1)*%
X122000000Y-78170000D03*
%TD*%
D26*
%TO.P,R2,1*%
%TO.N,+3V3*%
X112250000Y-29640000D03*
%TO.P,R2,2*%
%TO.N,/IO0*%
X112250000Y-27640000D03*
%TD*%
D28*
%TO.P,S2,1,1*%
%TO.N,Net-(R3-Pad2)*%
X133790000Y-25540000D03*
X139990000Y-25540000D03*
%TO.P,S2,2,2*%
%TO.N,GND*%
X139990000Y-29240000D03*
X133790000Y-29240000D03*
%TD*%
%TO.P,S1,1,1*%
%TO.N,Net-(R1-Pad2)*%
X121600000Y-25650000D03*
X115400000Y-25650000D03*
%TO.P,S1,2,2*%
%TO.N,GND*%
X121600000Y-29350000D03*
X115400000Y-29350000D03*
%TD*%
D27*
%TO.P,C5,1*%
%TO.N,+3V3*%
X51460000Y-48077500D03*
%TO.P,C5,2*%
%TO.N,GND*%
X51460000Y-46002500D03*
%TD*%
D24*
%TO.P,D4,1,A*%
%TO.N,Net-(D4-Pad1)*%
X123330000Y-73090000D03*
%TO.P,D4,2,K*%
%TO.N,VDD*%
X118330000Y-73090000D03*
%TD*%
D20*
%TO.P,J1,1,Pin_1*%
%TO.N,Net-(J1-Pad1)*%
X40710000Y-111170000D03*
D21*
%TO.P,J1,2,Pin_2*%
%TO.N,Net-(J1-Pad2)*%
X43250000Y-111170000D03*
%TO.P,J1,3,Pin_3*%
%TO.N,Net-(J1-Pad3)*%
X45790000Y-111170000D03*
%TD*%
D24*
%TO.P,D6,1,A*%
%TO.N,Net-(D6-Pad1)*%
X37188900Y-32506200D03*
%TO.P,D6,2,K*%
%TO.N,VDD*%
X42188900Y-32506200D03*
%TD*%
D29*
%TO.P,R5,1*%
%TO.N,+3V3*%
X43728900Y-50101200D03*
%TO.P,R5,2*%
%TO.N,Net-(D7-Pad2)*%
X41728900Y-50101200D03*
%TD*%
D15*
%TO.P,R15,1*%
%TO.N,Net-(D5-Pad1)*%
X141200826Y-69360000D03*
%TO.P,R15,2*%
%TO.N,Net-(D12-Pad2)*%
X143200826Y-69360000D03*
%TD*%
D17*
%TO.P, ,1*%
%TO.N,N/C*%
X166697056Y-116697056D03*
X166697056Y-113302944D03*
X165000000Y-112600000D03*
X163302944Y-116697056D03*
X165000000Y-117400000D03*
X162600000Y-115000000D03*
X163302944Y-113302944D03*
D18*
X165000000Y-115000000D03*
D17*
X167400000Y-115000000D03*
%TD*%
D16*
%TO.P,D14,1,K*%
%TO.N,GND*%
X138695000Y-45050000D03*
%TO.P,D14,2,A*%
%TO.N,Net-(D14-Pad2)*%
X136645000Y-45050000D03*
%TD*%
D30*
%TO.P,U1,1,GND*%
%TO.N,GND*%
X88860000Y-34000000D03*
%TO.P,U1,2,3V3*%
%TO.N,+3V3*%
X88860000Y-35270000D03*
%TO.P,U1,3,EN*%
%TO.N,/EN*%
X88860000Y-36540000D03*
%TO.P,U1,4,SENSOR_VP*%
%TO.N,unconnected-(U1-Pad4)*%
X88860000Y-37810000D03*
%TO.P,U1,5,SENSOR_VN*%
%TO.N,unconnected-(U1-Pad5)*%
X88860000Y-39080000D03*
%TO.P,U1,6,IO34*%
%TO.N,/IO34*%
X88860000Y-40350000D03*
%TO.P,U1,7,IO35*%
%TO.N,/IO35*%
X88860000Y-41620000D03*
%TO.P,U1,8,IO32*%
%TO.N,/IO32*%
X88860000Y-42890000D03*
%TO.P,U1,9,IO33*%
%TO.N,/IO33*%
X88860000Y-44160000D03*
%TO.P,U1,10,IO25*%
%TO.N,/IO25*%
X88860000Y-45430000D03*
%TO.P,U1,11,IO26*%
%TO.N,/IO26*%
X88860000Y-46700000D03*
%TO.P,U1,12,IO27*%
%TO.N,/IO27*%
X88860000Y-47970000D03*
%TO.P,U1,13,IO14*%
%TO.N,/IO14*%
X88860000Y-49240000D03*
%TO.P,U1,14,IO12*%
%TO.N,/IO12*%
X88860000Y-50510000D03*
D31*
%TO.P,U1,15,GND*%
%TO.N,GND*%
X92145000Y-52000000D03*
%TO.P,U1,16,IO13*%
%TO.N,unconnected-(U1-Pad16)*%
X93415000Y-52000000D03*
%TO.P,U1,17,SD2*%
%TO.N,unconnected-(U1-Pad17)*%
X94685000Y-52000000D03*
%TO.P,U1,18,SD3*%
%TO.N,unconnected-(U1-Pad18)*%
X95955000Y-52000000D03*
%TO.P,U1,19,CMD*%
%TO.N,unconnected-(U1-Pad19)*%
X97225000Y-52000000D03*
%TO.P,U1,20,CLK*%
%TO.N,unconnected-(U1-Pad20)*%
X98495000Y-52000000D03*
%TO.P,U1,21,SDO*%
%TO.N,unconnected-(U1-Pad21)*%
X99765000Y-52000000D03*
%TO.P,U1,22,SD1*%
%TO.N,unconnected-(U1-Pad22)*%
X101035000Y-52000000D03*
%TO.P,U1,23,IO15*%
%TO.N,unconnected-(U1-Pad23)*%
X102305000Y-52000000D03*
%TO.P,U1,24,IO2*%
%TO.N,unconnected-(U1-Pad24)*%
X103575000Y-52000000D03*
D30*
%TO.P,U1,25,IO0*%
%TO.N,/IO0*%
X106860000Y-50510000D03*
%TO.P,U1,26,IO4*%
%TO.N,/Relay1*%
X106860000Y-49240000D03*
%TO.P,U1,27,IO16*%
%TO.N,/Relay2*%
X106860000Y-47970000D03*
%TO.P,U1,28,IO17*%
%TO.N,/Relay3*%
X106860000Y-46700000D03*
%TO.P,U1,29,IO5*%
%TO.N,/Relay4*%
X106860000Y-45430000D03*
%TO.P,U1,30,IO18*%
%TO.N,/Relay5*%
X106860000Y-44160000D03*
%TO.P,U1,31,IO19*%
%TO.N,/IO19*%
X106860000Y-42890000D03*
%TO.P,U1,32,NC*%
%TO.N,unconnected-(U1-Pad32)*%
X106860000Y-41620000D03*
%TO.P,U1,33,IO21*%
%TO.N,/IO21*%
X106860000Y-40350000D03*
%TO.P,U1,34,RXD0*%
%TO.N,/TX*%
X106860000Y-39080000D03*
%TO.P,U1,35,TXD0*%
%TO.N,/RX*%
X106860000Y-37810000D03*
%TO.P,U1,36,IO22*%
%TO.N,/Trig*%
X106860000Y-36540000D03*
%TO.P,U1,37,IO23*%
%TO.N,/Echo*%
X106860000Y-35270000D03*
%TO.P,U1,38,GND*%
%TO.N,GND*%
X106860000Y-34000000D03*
D32*
%TO.P,U1,39,GND-PAD*%
X97560000Y-41700000D03*
%TD*%
D25*
%TO.P,R10,1*%
%TO.N,/Relay5*%
X133250000Y-71660000D03*
%TO.P,R10,2*%
%TO.N,GND*%
X133250000Y-73660000D03*
%TD*%
D16*
%TO.P,D12,1,K*%
%TO.N,GND*%
X149882500Y-69360000D03*
%TO.P,D12,2,A*%
%TO.N,Net-(D12-Pad2)*%
X147832500Y-69360000D03*
%TD*%
D20*
%TO.P,J2,1,Pin_1*%
%TO.N,Net-(J2-Pad1)*%
X65710000Y-111170000D03*
D21*
%TO.P,J2,2,Pin_2*%
%TO.N,Net-(J2-Pad2)*%
X68250000Y-111170000D03*
%TO.P,J2,3,Pin_3*%
%TO.N,Net-(J2-Pad3)*%
X70790000Y-111170000D03*
%TD*%
D13*
%TO.P,J7,1,Pin_1*%
%TO.N,GND*%
X153380000Y-40490000D03*
D14*
%TO.P,J7,2,Pin_2*%
%TO.N,/Echo*%
X153380000Y-43030000D03*
%TO.P,J7,3,Pin_3*%
%TO.N,/Trig*%
X153380000Y-45570000D03*
%TO.P,J7,4,Pin_4*%
%TO.N,+5V*%
X153380000Y-48110000D03*
%TD*%
D15*
%TO.P,R14,1*%
%TO.N,Net-(D4-Pad1)*%
X116620000Y-69360000D03*
%TO.P,R14,2*%
%TO.N,Net-(D11-Pad2)*%
X118620000Y-69360000D03*
%TD*%
D25*
%TO.P,R7,1*%
%TO.N,/Relay2*%
X58250000Y-71660000D03*
%TO.P,R7,2*%
%TO.N,GND*%
X58250000Y-73660000D03*
%TD*%
D19*
%TO.P,Q1,1,G*%
%TO.N,/Relay1*%
X37232500Y-72120000D03*
%TO.P,Q1,2,S*%
%TO.N,GND*%
X37232500Y-74020000D03*
%TO.P,Q1,3,D*%
%TO.N,Net-(D1-Pad1)*%
X39107500Y-73070000D03*
%TD*%
D24*
%TO.P,D1,1,A*%
%TO.N,Net-(D1-Pad1)*%
X48330000Y-73070000D03*
%TO.P,D1,2,K*%
%TO.N,VDD*%
X43330000Y-73070000D03*
%TD*%
D20*
%TO.P,J3,1,Pin_1*%
%TO.N,Net-(J3-Pad1)*%
X90710000Y-111170000D03*
D21*
%TO.P,J3,2,Pin_2*%
%TO.N,Net-(J3-Pad2)*%
X93250000Y-111170000D03*
%TO.P,J3,3,Pin_3*%
%TO.N,Net-(J3-Pad3)*%
X95790000Y-111170000D03*
%TD*%
D15*
%TO.P,R16,1*%
%TO.N,/TX*%
X132150000Y-47550000D03*
%TO.P,R16,2*%
%TO.N,Net-(D13-Pad2)*%
X134150000Y-47550000D03*
%TD*%
D20*
%TO.P,J5,1,Pin_1*%
%TO.N,Net-(J5-Pad1)*%
X140710000Y-111170000D03*
D21*
%TO.P,J5,2,Pin_2*%
%TO.N,Net-(J5-Pad2)*%
X143250000Y-111170000D03*
%TO.P,J5,3,Pin_3*%
%TO.N,Net-(J5-Pad3)*%
X145790000Y-111170000D03*
%TD*%
D24*
%TO.P,D3,1,A*%
%TO.N,Net-(D3-Pad1)*%
X98500000Y-73070000D03*
%TO.P,D3,2,K*%
%TO.N,VDD*%
X93500000Y-73070000D03*
%TD*%
D25*
%TO.P,R4,1*%
%TO.N,+3V3*%
X125600000Y-25670000D03*
%TO.P,R4,2*%
%TO.N,/EN*%
X125600000Y-27670000D03*
%TD*%
D16*
%TO.P,D10,1,K*%
%TO.N,GND*%
X100056668Y-69360000D03*
%TO.P,D10,2,A*%
%TO.N,Net-(D10-Pad2)*%
X98006668Y-69360000D03*
%TD*%
D33*
%TO.P,U3,1,GND*%
%TO.N,GND*%
X58428900Y-45925000D03*
%TO.P,U3,2,VO*%
%TO.N,+3V3*%
X58428900Y-48225000D03*
D34*
X64578900Y-48225000D03*
D33*
%TO.P,U3,3,VI*%
%TO.N,VDD*%
X58428900Y-50525000D03*
%TD*%
D17*
%TO.P, ,1*%
%TO.N,N/C*%
X162600000Y-25000000D03*
X165000000Y-22600000D03*
X163302944Y-23302944D03*
X163302944Y-26697056D03*
X165000000Y-27400000D03*
D18*
X165000000Y-25000000D03*
D17*
X167400000Y-25000000D03*
X166697056Y-23302944D03*
X166697056Y-26697056D03*
%TD*%
D16*
%TO.P,D7,1,K*%
%TO.N,GND*%
X43823900Y-47041200D03*
%TO.P,D7,2,A*%
%TO.N,Net-(D7-Pad2)*%
X41773900Y-47041200D03*
%TD*%
D33*
%TO.P,U2,1,IN*%
%TO.N,VDD*%
X58428900Y-29501200D03*
%TO.P,U2,2,GND*%
%TO.N,GND*%
X58428900Y-31801200D03*
D34*
X64578900Y-31801200D03*
D33*
%TO.P,U2,3,OUT*%
%TO.N,+5V*%
X58428900Y-34101200D03*
%TD*%
D16*
%TO.P,D11,1,K*%
%TO.N,GND*%
X125086668Y-69360000D03*
%TO.P,D11,2,A*%
%TO.N,Net-(D11-Pad2)*%
X123036668Y-69360000D03*
%TD*%
D35*
%TO.P,C2,1*%
%TO.N,VDD*%
X51188900Y-29431200D03*
%TO.P,C2,2*%
%TO.N,GND*%
X51188900Y-31506200D03*
%TD*%
D25*
%TO.P,R6,1*%
%TO.N,/Relay1*%
X33250000Y-71660000D03*
%TO.P,R6,2*%
%TO.N,GND*%
X33250000Y-73660000D03*
%TD*%
%TO.P,R8,1*%
%TO.N,/Relay3*%
X83250000Y-71660000D03*
%TO.P,R8,2*%
%TO.N,GND*%
X83250000Y-73660000D03*
%TD*%
D16*
%TO.P,D13,1,K*%
%TO.N,GND*%
X138667500Y-47600000D03*
%TO.P,D13,2,A*%
%TO.N,Net-(D13-Pad2)*%
X136617500Y-47600000D03*
%TD*%
D15*
%TO.P,R12,1*%
%TO.N,Net-(D2-Pad1)*%
X66570000Y-69360000D03*
%TO.P,R12,2*%
%TO.N,Net-(D9-Pad2)*%
X68570000Y-69360000D03*
%TD*%
%TO.P,R17,1*%
%TO.N,/RX*%
X132170000Y-44980000D03*
%TO.P,R17,2*%
%TO.N,Net-(D14-Pad2)*%
X134170000Y-44980000D03*
%TD*%
D19*
%TO.P,Q2,1,G*%
%TO.N,/Relay2*%
X62232500Y-72120000D03*
%TO.P,Q2,2,S*%
%TO.N,GND*%
X62232500Y-74020000D03*
%TO.P,Q2,3,D*%
%TO.N,Net-(D2-Pad1)*%
X64107500Y-73070000D03*
%TD*%
D15*
%TO.P,R13,1*%
%TO.N,Net-(D3-Pad1)*%
X91590000Y-69360000D03*
%TO.P,R13,2*%
%TO.N,Net-(D10-Pad2)*%
X93590000Y-69360000D03*
%TD*%
D36*
%TO.N,+3V3*%
X86650000Y-35270000D03*
X107100000Y-29420000D03*
%TO.N,GND*%
X46188900Y-31506200D03*
X127640000Y-29350000D03*
X151910000Y-73630000D03*
X31250000Y-73660000D03*
X131250000Y-73660000D03*
X106250000Y-73660000D03*
X81250000Y-73660000D03*
X56250000Y-73660000D03*
%TO.N,VDD*%
X53292500Y-50707500D03*
%TO.N,/IO0*%
X110280000Y-27640000D03*
X103440000Y-48790000D03*
%TO.N,+5V*%
X57733700Y-38046100D03*
%TO.N,/EN*%
X127440000Y-27670000D03*
X85110000Y-36560000D03*
%TO.N,/IO27*%
X86040000Y-47970000D03*
%TO.N,/IO14*%
X86090000Y-49240000D03*
%TO.N,/IO12*%
X86140000Y-50510000D03*
%TO.N,/IO19*%
X109760000Y-42890000D03*
%TO.N,/IO21*%
X109635000Y-40325000D03*
%TD*%
D37*
%TO.N,+3V3*%
X60775000Y-48225000D02*
X60775000Y-54225000D01*
X51460000Y-48077500D02*
X58281400Y-48077500D01*
X48777700Y-55150000D02*
X43728900Y-50101200D01*
D38*
X106320000Y-24750000D02*
X107070000Y-24000000D01*
X123930000Y-24000000D02*
X125600000Y-25670000D01*
D37*
X58428900Y-48225000D02*
X60775000Y-48225000D01*
D38*
X107070000Y-24000000D02*
X123930000Y-24000000D01*
D39*
X88860000Y-35270000D02*
X86650000Y-35270000D01*
D37*
X60775000Y-54225000D02*
X57705000Y-57295000D01*
D38*
X112030000Y-29420000D02*
X112250000Y-29640000D01*
D39*
X78610000Y-32622380D02*
X78610000Y-38390000D01*
D37*
X57705000Y-57295000D02*
X55560000Y-55150000D01*
D39*
X68775000Y-48225000D02*
X64578900Y-48225000D01*
X78610000Y-32622380D02*
X81257620Y-35270000D01*
X81257620Y-35270000D02*
X86450000Y-35270000D01*
D38*
X107100000Y-29420000D02*
X112030000Y-29420000D01*
D37*
X60775000Y-48225000D02*
X64409379Y-48225000D01*
X64045000Y-59955000D02*
X56425000Y-59955000D01*
X55560000Y-55150000D02*
X48777700Y-55150000D01*
D39*
X86650000Y-35270000D02*
X86450000Y-35270000D01*
D37*
X58281400Y-48077500D02*
X58428900Y-48225000D01*
X58965000Y-59955000D02*
X58965000Y-58555000D01*
D39*
X78610000Y-38390000D02*
X68775000Y-48225000D01*
D37*
X58965000Y-58555000D02*
X57705000Y-57295000D01*
D38*
X107100000Y-29420000D02*
X106320000Y-28640000D01*
X106320000Y-28640000D02*
X106320000Y-24750000D01*
D37*
%TO.N,GND*%
X58428900Y-31801200D02*
X64409379Y-31801200D01*
D39*
X75036668Y-69360000D02*
X76950000Y-69360000D01*
D37*
X44831400Y-47041200D02*
X46398900Y-45473700D01*
D39*
X126950000Y-69360000D02*
X131250000Y-73660000D01*
D37*
X58428900Y-45925000D02*
X51537500Y-45925000D01*
D39*
X100056668Y-69360000D02*
X101950000Y-69360000D01*
D38*
X133610000Y-74020000D02*
X133250000Y-73660000D01*
D37*
X81250000Y-73660000D02*
X83250000Y-73660000D01*
D39*
X106860000Y-34000000D02*
X110750000Y-34000000D01*
D38*
X136960000Y-42470000D02*
X127630000Y-42470000D01*
X138695000Y-45050000D02*
X138695000Y-44205000D01*
D37*
X137232500Y-74020000D02*
X133610000Y-74020000D01*
X47613700Y-45473700D02*
X48545000Y-46405000D01*
D39*
X73877620Y-30122380D02*
X72198800Y-31801200D01*
D37*
X46188900Y-31506200D02*
X46188900Y-44048900D01*
D39*
X125086668Y-69360000D02*
X126950000Y-69360000D01*
X151910000Y-71387500D02*
X149882500Y-69360000D01*
X121600000Y-29350000D02*
X127640000Y-29350000D01*
X51950000Y-69360000D02*
X56250000Y-73660000D01*
X97560000Y-37970000D02*
X101530000Y-34000000D01*
D38*
X83610000Y-74020000D02*
X83250000Y-73660000D01*
D39*
X101530000Y-34000000D02*
X106860000Y-34000000D01*
D38*
X138667500Y-45077500D02*
X138695000Y-45050000D01*
D37*
X48900000Y-48632500D02*
X48900000Y-46760000D01*
X106250000Y-73660000D02*
X108250000Y-73660000D01*
X48545000Y-46405000D02*
X48900000Y-46760000D01*
D39*
X92145000Y-47115000D02*
X92145000Y-52000000D01*
X97560000Y-37970000D02*
X93590000Y-34000000D01*
D37*
X62232500Y-74020000D02*
X58610000Y-74020000D01*
D39*
X72198800Y-31801200D02*
X64578900Y-31801200D01*
D37*
X43823900Y-47041200D02*
X44831400Y-47041200D01*
X56250000Y-73660000D02*
X58250000Y-73660000D01*
D39*
X85130000Y-34000000D02*
X81252380Y-30122380D01*
D37*
X46188900Y-31506200D02*
X48458500Y-31506200D01*
X37232500Y-74020000D02*
X33610000Y-74020000D01*
D39*
X133680000Y-29350000D02*
X133790000Y-29240000D01*
D37*
X48458500Y-31506200D02*
X48917300Y-31965000D01*
X131250000Y-73660000D02*
X133250000Y-73660000D01*
D38*
X138667500Y-47600000D02*
X138667500Y-45077500D01*
D37*
X151240000Y-40490000D02*
X139990000Y-29240000D01*
D39*
X81252380Y-30122380D02*
X78610000Y-30122380D01*
X50224168Y-69360000D02*
X51950000Y-69360000D01*
X64953900Y-31801200D02*
X64953900Y-31774200D01*
D37*
X46398900Y-45473700D02*
X47613700Y-45473700D01*
X87402500Y-74020000D02*
X83610000Y-74020000D01*
X31250000Y-73660000D02*
X33250000Y-73660000D01*
D39*
X127640000Y-29350000D02*
X133680000Y-29350000D01*
X151910000Y-73630000D02*
X151910000Y-71387500D01*
D38*
X33610000Y-74020000D02*
X33250000Y-73660000D01*
D37*
X112312500Y-74040000D02*
X108630000Y-74040000D01*
D39*
X64953900Y-31774200D02*
X64941500Y-31761800D01*
D37*
X49657500Y-46002500D02*
X51460000Y-46002500D01*
D39*
X78610000Y-30122380D02*
X73877620Y-30122380D01*
D38*
X108630000Y-74040000D02*
X108250000Y-73660000D01*
D39*
X88860000Y-34000000D02*
X85130000Y-34000000D01*
X115400000Y-29350000D02*
X121600000Y-29350000D01*
X93590000Y-34000000D02*
X88860000Y-34000000D01*
X76950000Y-69360000D02*
X81250000Y-73660000D01*
D38*
X58610000Y-74020000D02*
X58250000Y-73660000D01*
D37*
X58133900Y-31506200D02*
X58428900Y-31801200D01*
D39*
X97560000Y-41700000D02*
X97560000Y-37970000D01*
D38*
X138695000Y-44205000D02*
X136960000Y-42470000D01*
D37*
X51188900Y-31506200D02*
X49376100Y-31506200D01*
X48900000Y-46760000D02*
X49657500Y-46002500D01*
X46188900Y-44048900D02*
X48545000Y-46405000D01*
X51188900Y-31506200D02*
X58133900Y-31506200D01*
D39*
X101950000Y-69360000D02*
X106250000Y-73660000D01*
D37*
X153380000Y-40490000D02*
X151240000Y-40490000D01*
D39*
X133790000Y-29240000D02*
X139990000Y-29240000D01*
D37*
X64848800Y-31801200D02*
X64953900Y-31801200D01*
D39*
X51537500Y-45925000D02*
X51460000Y-46002500D01*
X97560000Y-41700000D02*
X92145000Y-47115000D01*
D37*
X49376100Y-31506200D02*
X48917300Y-31965000D01*
D39*
X110750000Y-34000000D02*
X115400000Y-29350000D01*
D37*
%TO.N,VDD*%
X51188900Y-29431200D02*
X58358900Y-29431200D01*
X39500000Y-78700000D02*
X42460000Y-81660000D01*
X43330000Y-75580000D02*
X43330000Y-73070000D01*
X89670000Y-78700000D02*
X89670000Y-76900000D01*
X40210000Y-78700000D02*
X43330000Y-75580000D01*
X139500000Y-76900000D02*
X143330000Y-73070000D01*
X47055000Y-59955000D02*
X48805000Y-59955000D01*
X33385000Y-40735000D02*
X27590000Y-46530000D01*
X33385000Y-46285000D02*
X47055000Y-59955000D01*
X111250000Y-81660000D02*
X114500000Y-78410000D01*
X48805000Y-59955000D02*
X53885000Y-59955000D01*
X67460000Y-81660000D02*
X86710000Y-81660000D01*
X64500000Y-78700000D02*
X64500000Y-76860000D01*
X86710000Y-81660000D02*
X89670000Y-78700000D01*
X33385000Y-40735000D02*
X33385000Y-46285000D01*
X27590000Y-75000000D02*
X31290000Y-78700000D01*
X64500000Y-78700000D02*
X67460000Y-81660000D01*
X114500000Y-78170000D02*
X114760000Y-78170000D01*
X64500000Y-76860000D02*
X68290000Y-73070000D01*
X90290000Y-78700000D02*
X93250000Y-81660000D01*
X114500000Y-78170000D02*
X114500000Y-76920000D01*
X48900000Y-50707500D02*
X53292500Y-50707500D01*
X114500000Y-76920000D02*
X118330000Y-73090000D01*
X139500000Y-78700000D02*
X139500000Y-76900000D01*
X42188900Y-32506200D02*
X41613800Y-32506200D01*
X31290000Y-78700000D02*
X39500000Y-78700000D01*
X136540000Y-81660000D02*
X139500000Y-78700000D01*
X89670000Y-76900000D02*
X93500000Y-73070000D01*
X58246400Y-50707500D02*
X58428900Y-50525000D01*
X58358900Y-29431200D02*
X58428900Y-29501200D01*
X89670000Y-78700000D02*
X90290000Y-78700000D01*
X39500000Y-78700000D02*
X40210000Y-78700000D01*
X51188900Y-29431200D02*
X45263900Y-29431200D01*
X53292500Y-50707500D02*
X58246400Y-50707500D01*
X41613800Y-32506200D02*
X33385000Y-40735000D01*
X27590000Y-46530000D02*
X27590000Y-75000000D01*
X45263900Y-29431200D02*
X42188900Y-32506200D01*
X42460000Y-81660000D02*
X61250000Y-81660000D01*
X93250000Y-81660000D02*
X111250000Y-81660000D01*
X118250000Y-81660000D02*
X136540000Y-81660000D01*
X114760000Y-78170000D02*
X118250000Y-81660000D01*
X114500000Y-78410000D02*
X114500000Y-78170000D01*
X61250000Y-81660000D02*
X64210000Y-78700000D01*
D39*
%TO.N,/IO0*%
X112250000Y-27640000D02*
X110280000Y-27640000D01*
D38*
X106860000Y-50510000D02*
X105160000Y-50510000D01*
X105160000Y-50510000D02*
X103440000Y-48790000D01*
D39*
X110280000Y-27640000D02*
X108420000Y-27640000D01*
D37*
%TO.N,+5V*%
X58428900Y-37350900D02*
X57733700Y-38046100D01*
X48978500Y-34101200D02*
X48917300Y-34040000D01*
X58428900Y-34101200D02*
X48978500Y-34101200D01*
X58428900Y-34101200D02*
X58428900Y-37350900D01*
D39*
%TO.N,Net-(D1-Pad1)*%
X47560000Y-71120000D02*
X48330000Y-71890000D01*
X48330000Y-71890000D02*
X48330000Y-73070000D01*
X39107500Y-73070000D02*
X39107500Y-72010000D01*
D37*
X47000000Y-78700000D02*
X47000000Y-77910000D01*
D39*
X41757500Y-69360000D02*
X41757500Y-69877500D01*
D37*
X47000000Y-77910000D02*
X48330000Y-76580000D01*
D39*
X43000000Y-71120000D02*
X47560000Y-71120000D01*
X39107500Y-72010000D02*
X41757500Y-69360000D01*
D37*
X48330000Y-76580000D02*
X48330000Y-73070000D01*
D39*
X41757500Y-69877500D02*
X43000000Y-71120000D01*
%TO.N,Net-(D2-Pad1)*%
X64107500Y-73070000D02*
X64107500Y-71822500D01*
X64107500Y-71822500D02*
X66570000Y-69360000D01*
X66570000Y-70510000D02*
X67210000Y-71150000D01*
X66570000Y-69360000D02*
X66570000Y-70510000D01*
D37*
X73290000Y-77410000D02*
X72000000Y-78700000D01*
D39*
X72420000Y-71150000D02*
X73290000Y-72020000D01*
D37*
X73290000Y-73070000D02*
X73290000Y-77410000D01*
D39*
X67210000Y-71150000D02*
X72420000Y-71150000D01*
X73290000Y-72020000D02*
X73290000Y-73070000D01*
%TO.N,Net-(D3-Pad1)*%
X91590000Y-70140000D02*
X92570000Y-71120000D01*
X98500000Y-72080000D02*
X98500000Y-73070000D01*
X91590000Y-69360000D02*
X91590000Y-70140000D01*
X89277500Y-71672500D02*
X91590000Y-69360000D01*
X89277500Y-73070000D02*
X89277500Y-71672500D01*
D37*
X98500000Y-73070000D02*
X98500000Y-77370000D01*
D39*
X92570000Y-71120000D02*
X97540000Y-71120000D01*
D37*
X98500000Y-77370000D02*
X97170000Y-78700000D01*
D39*
X97540000Y-71120000D02*
X98500000Y-72080000D01*
%TO.N,Net-(D4-Pad1)*%
X123330000Y-71930000D02*
X123330000Y-73090000D01*
X114187500Y-73090000D02*
X114187500Y-71792500D01*
X117560000Y-71060000D02*
X122460000Y-71060000D01*
X122460000Y-71060000D02*
X123330000Y-71930000D01*
X114187500Y-71792500D02*
X116620000Y-69360000D01*
D37*
X123330000Y-76840000D02*
X122000000Y-78170000D01*
X123330000Y-73090000D02*
X123330000Y-76840000D01*
D39*
X116620000Y-69360000D02*
X116620000Y-70120000D01*
X116620000Y-70120000D02*
X117560000Y-71060000D01*
%TO.N,Net-(D5-Pad1)*%
X148330000Y-72340000D02*
X148330000Y-73070000D01*
D37*
X148330000Y-77370000D02*
X147000000Y-78700000D01*
D39*
X141200826Y-69360000D02*
X141240000Y-69399174D01*
D37*
X148330000Y-73070000D02*
X148330000Y-77370000D01*
D39*
X141240000Y-70310000D02*
X142110000Y-71180000D01*
X141240000Y-69399174D02*
X141240000Y-70310000D01*
X139107500Y-71453326D02*
X141200826Y-69360000D01*
X142110000Y-71180000D02*
X147170000Y-71180000D01*
X139107500Y-73070000D02*
X139107500Y-71453326D01*
X147170000Y-71180000D02*
X148330000Y-72340000D01*
D37*
%TO.N,Net-(D7-Pad2)*%
X41728900Y-50101200D02*
X41708900Y-50101200D01*
X41678900Y-47136200D02*
X41773900Y-47041200D01*
X41678900Y-50071200D02*
X41678900Y-47136200D01*
X41708900Y-50101200D02*
X41678900Y-50071200D01*
D40*
%TO.N,Net-(J1-Pad1)*%
X47000000Y-93960000D02*
X39500000Y-93960000D01*
X38040000Y-93960000D02*
X35000000Y-97000000D01*
X35000000Y-108000000D02*
X38170000Y-111170000D01*
X39500000Y-93960000D02*
X38040000Y-93960000D01*
X38170000Y-111170000D02*
X40710000Y-111170000D01*
X35000000Y-97000000D02*
X35000000Y-108000000D01*
%TO.N,Net-(J1-Pad3)*%
X52000000Y-101000000D02*
X52000000Y-107000000D01*
X47830000Y-111170000D02*
X45790000Y-111170000D01*
X52000000Y-107000000D02*
X47830000Y-111170000D01*
X50000000Y-99000000D02*
X52000000Y-101000000D01*
X39500000Y-99000000D02*
X47000000Y-99000000D01*
X47000000Y-99000000D02*
X50000000Y-99000000D01*
%TO.N,Net-(J2-Pad1)*%
X64170000Y-111170000D02*
X65710000Y-111170000D01*
X62040000Y-93960000D02*
X60000000Y-96000000D01*
X60000000Y-96000000D02*
X60000000Y-107000000D01*
X72000000Y-93960000D02*
X64500000Y-93960000D01*
X60000000Y-107000000D02*
X64170000Y-111170000D01*
X64500000Y-93960000D02*
X62040000Y-93960000D01*
%TO.N,Net-(J2-Pad3)*%
X75000000Y-99000000D02*
X77000000Y-101000000D01*
X72830000Y-111170000D02*
X70790000Y-111170000D01*
X64500000Y-99000000D02*
X72000000Y-99000000D01*
X77000000Y-101000000D02*
X77000000Y-107000000D01*
X72000000Y-99000000D02*
X75000000Y-99000000D01*
X77000000Y-107000000D02*
X72830000Y-111170000D01*
%TO.N,Net-(J3-Pad1)*%
X85000000Y-96000000D02*
X85000000Y-107000000D01*
X85000000Y-107000000D02*
X89170000Y-111170000D01*
X89670000Y-93960000D02*
X87040000Y-93960000D01*
X87040000Y-93960000D02*
X85000000Y-96000000D01*
X97170000Y-93960000D02*
X89670000Y-93960000D01*
X89170000Y-111170000D02*
X90710000Y-111170000D01*
%TO.N,Net-(J3-Pad3)*%
X89670000Y-99000000D02*
X97170000Y-99000000D01*
X97170000Y-99000000D02*
X100000000Y-99000000D01*
X100000000Y-99000000D02*
X102000000Y-101000000D01*
X102000000Y-101000000D02*
X102000000Y-107000000D01*
X97830000Y-111170000D02*
X95790000Y-111170000D01*
X102000000Y-107000000D02*
X97830000Y-111170000D01*
%TO.N,Net-(J4-Pad1)*%
X110000000Y-107000000D02*
X114190000Y-111190000D01*
X111570000Y-93430000D02*
X110000000Y-95000000D01*
X114190000Y-111190000D02*
X115710000Y-111190000D01*
X114500000Y-93430000D02*
X111570000Y-93430000D01*
X122000000Y-93430000D02*
X114500000Y-93430000D01*
X110000000Y-95000000D02*
X110000000Y-107000000D01*
%TO.N,Net-(J4-Pad3)*%
X114500000Y-98470000D02*
X122000000Y-98470000D01*
X122000000Y-98470000D02*
X125470000Y-98470000D01*
X122810000Y-111190000D02*
X120790000Y-111190000D01*
X127000000Y-100000000D02*
X127000000Y-107000000D01*
X127000000Y-107000000D02*
X122810000Y-111190000D01*
X125470000Y-98470000D02*
X127000000Y-100000000D01*
%TO.N,Net-(J5-Pad1)*%
X137040000Y-93960000D02*
X135000000Y-96000000D01*
X147000000Y-93960000D02*
X139500000Y-93960000D01*
X139170000Y-111170000D02*
X140710000Y-111170000D01*
X139500000Y-93960000D02*
X137040000Y-93960000D01*
X135000000Y-107000000D02*
X139170000Y-111170000D01*
X135000000Y-96000000D02*
X135000000Y-107000000D01*
%TO.N,Net-(J5-Pad3)*%
X152000000Y-108000000D02*
X148830000Y-111170000D01*
X147000000Y-99000000D02*
X150000000Y-99000000D01*
X150000000Y-99000000D02*
X152000000Y-101000000D01*
X148830000Y-111170000D02*
X145790000Y-111170000D01*
X139500000Y-99000000D02*
X147000000Y-99000000D01*
X152000000Y-101000000D02*
X152000000Y-108000000D01*
D38*
%TO.N,/Relay1*%
X114720000Y-60010000D02*
X114720000Y-54110000D01*
X36710000Y-72120000D02*
X36250000Y-71660000D01*
X36250000Y-71660000D02*
X33250000Y-71660000D01*
X109850000Y-49240000D02*
X106860000Y-49240000D01*
X108459040Y-66270960D02*
X38639040Y-66270960D01*
X37232500Y-72120000D02*
X36710000Y-72120000D01*
X38639040Y-66270960D02*
X33250000Y-71660000D01*
X114720000Y-54110000D02*
X109850000Y-49240000D01*
X114720000Y-60010000D02*
X108459040Y-66270960D01*
%TO.N,/Relay2*%
X106860000Y-47970000D02*
X110450000Y-47970000D01*
X109609520Y-66970480D02*
X62939520Y-66970480D01*
X61710000Y-72120000D02*
X61250000Y-71660000D01*
X61250000Y-71660000D02*
X58250000Y-71660000D01*
X62939520Y-66970480D02*
X58250000Y-71660000D01*
X62232500Y-72120000D02*
X61710000Y-72120000D01*
X116520000Y-60060000D02*
X109609520Y-66970480D01*
X116520000Y-54040000D02*
X116520000Y-60060000D01*
X110450000Y-47970000D02*
X116520000Y-54040000D01*
%TO.N,/Relay3*%
X110670000Y-67670000D02*
X87240000Y-67670000D01*
X118250000Y-60090000D02*
X110670000Y-67670000D01*
X87250000Y-71660000D02*
X83250000Y-71660000D01*
X87402500Y-71812500D02*
X87250000Y-71660000D01*
X87402500Y-72120000D02*
X87402500Y-71812500D01*
X118250000Y-54040000D02*
X118250000Y-60090000D01*
X106860000Y-46700000D02*
X110910000Y-46700000D01*
X87240000Y-67670000D02*
X83250000Y-71660000D01*
X110910000Y-46700000D02*
X118250000Y-54040000D01*
%TO.N,/Relay4*%
X119620000Y-53560000D02*
X111490000Y-45430000D01*
X119620000Y-60290000D02*
X119620000Y-53560000D01*
X111490000Y-45430000D02*
X106860000Y-45430000D01*
X108250000Y-71660000D02*
X119620000Y-60290000D01*
X112312500Y-71722500D02*
X112250000Y-71660000D01*
X112250000Y-71660000D02*
X108250000Y-71660000D01*
X112312500Y-72140000D02*
X112312500Y-71722500D01*
%TO.N,/Relay5*%
X137232500Y-72120000D02*
X136772500Y-71660000D01*
X133250000Y-65640000D02*
X133250000Y-71660000D01*
X111770000Y-44160000D02*
X133250000Y-65640000D01*
X136772500Y-71660000D02*
X133250000Y-71660000D01*
X111770000Y-44160000D02*
X106860000Y-44160000D01*
D39*
%TO.N,Net-(R1-Pad2)*%
X115400000Y-25650000D02*
X108410000Y-25650000D01*
X108410000Y-25650000D02*
X108380000Y-25680000D01*
X115400000Y-25650000D02*
X121600000Y-25650000D01*
%TO.N,Net-(R3-Pad2)*%
X129330000Y-25640000D02*
X133690000Y-25640000D01*
X133790000Y-25540000D02*
X139990000Y-25540000D01*
X133690000Y-25640000D02*
X133790000Y-25540000D01*
D37*
%TO.N,Net-(D6-Pad1)*%
X29688900Y-32966200D02*
X30988421Y-31666679D01*
X36349379Y-31666679D02*
X37188900Y-32506200D01*
X30988421Y-31666679D02*
X36349379Y-31666679D01*
D38*
%TO.N,/EN*%
X85130000Y-36540000D02*
X85110000Y-36560000D01*
D39*
X129300000Y-27670000D02*
X129330000Y-27640000D01*
D38*
X88860000Y-36540000D02*
X85130000Y-36540000D01*
D39*
X127440000Y-27670000D02*
X129300000Y-27670000D01*
X125600000Y-27670000D02*
X127440000Y-27670000D01*
%TO.N,Net-(D10-Pad2)*%
X93590000Y-69360000D02*
X98006668Y-69360000D01*
%TO.N,Net-(D11-Pad2)*%
X118620000Y-69360000D02*
X123036668Y-69360000D01*
%TO.N,Net-(D12-Pad2)*%
X143200826Y-69360000D02*
X147832500Y-69360000D01*
D38*
%TO.N,Net-(D13-Pad2)*%
X136567500Y-47550000D02*
X136617500Y-47600000D01*
X134150000Y-47550000D02*
X136567500Y-47550000D01*
%TO.N,Net-(D14-Pad2)*%
X134170000Y-44980000D02*
X136575000Y-44980000D01*
X136575000Y-44980000D02*
X136645000Y-45050000D01*
D41*
%TO.N,/IO34*%
X81030000Y-40350000D02*
X79285000Y-42095000D01*
X79285000Y-42095000D02*
X79285000Y-59955000D01*
X88860000Y-40350000D02*
X81030000Y-40350000D01*
%TO.N,/IO35*%
X80060000Y-58190000D02*
X81825000Y-59955000D01*
X88860000Y-41620000D02*
X80550000Y-41620000D01*
X80550000Y-41620000D02*
X80060000Y-42110000D01*
X80060000Y-42110000D02*
X80060000Y-58190000D01*
%TO.N,/IO32*%
X80780000Y-56370000D02*
X84365000Y-59955000D01*
X80780000Y-43240000D02*
X80780000Y-56370000D01*
X88860000Y-42890000D02*
X81130000Y-42890000D01*
X81130000Y-42890000D02*
X80780000Y-43240000D01*
%TO.N,/IO33*%
X81620000Y-54670000D02*
X86905000Y-59955000D01*
X82360000Y-44160000D02*
X81620000Y-44900000D01*
X88860000Y-44160000D02*
X82360000Y-44160000D01*
X81620000Y-44900000D02*
X81620000Y-54670000D01*
%TO.N,/IO25*%
X83640000Y-45430000D02*
X82490000Y-46580000D01*
X82490000Y-46580000D02*
X82490000Y-53000000D01*
X82490000Y-53000000D02*
X89445000Y-59955000D01*
X88860000Y-45430000D02*
X83640000Y-45430000D01*
%TO.N,/IO26*%
X91985000Y-59545000D02*
X91985000Y-59955000D01*
X83980000Y-51540000D02*
X91985000Y-59545000D01*
X83980000Y-47740000D02*
X85020000Y-46700000D01*
X85020000Y-46700000D02*
X88860000Y-46700000D01*
X83980000Y-51540000D02*
X83980000Y-47740000D01*
D39*
%TO.N,/Echo*%
X150480000Y-43030000D02*
X142720000Y-35270000D01*
X153380000Y-43030000D02*
X150480000Y-43030000D01*
X142720000Y-35270000D02*
X106860000Y-35270000D01*
%TO.N,/Trig*%
X149820000Y-45570000D02*
X140790000Y-36540000D01*
X153380000Y-45570000D02*
X149820000Y-45570000D01*
X140790000Y-36540000D02*
X106860000Y-36540000D01*
D38*
%TO.N,/TX*%
X119160000Y-39080000D02*
X127630000Y-47550000D01*
X106860000Y-39080000D02*
X119160000Y-39080000D01*
X127630000Y-47550000D02*
X132150000Y-47550000D01*
%TO.N,/RX*%
X127630000Y-45010000D02*
X132140000Y-45010000D01*
X106860000Y-37810000D02*
X120430000Y-37810000D01*
X120430000Y-37810000D02*
X127630000Y-45010000D01*
D39*
%TO.N,Net-(D8-Pad2)*%
X43757500Y-69360000D02*
X48174168Y-69360000D01*
%TO.N,Net-(D9-Pad2)*%
X68570000Y-69360000D02*
X72986668Y-69360000D01*
D41*
%TO.N,/IO27*%
X88860000Y-47970000D02*
X86040000Y-47970000D01*
%TO.N,/IO14*%
X88860000Y-49240000D02*
X86090000Y-49240000D01*
%TO.N,/IO12*%
X88860000Y-50510000D02*
X86140000Y-50510000D01*
D38*
%TO.N,/IO19*%
X106860000Y-42890000D02*
X109760000Y-42890000D01*
%TO.N,/IO21*%
X106860000Y-40350000D02*
X109610000Y-40350000D01*
%TD*%
M02*
