%FSLAX45Y45*%
G04 Gerber Fmt 4.5, Leading zero omitted, Abs format (unit mm)*
G04 Created by KiCad (PCBNEW (6.0.5)) date 2022-06-14 20:52:36*
%MOMM*%
%LPD*%
G01*
G04 APERTURE LIST*
%TA.AperFunction,Profile*%
%ADD10C,0.200000*%
%TD*%
%ADD11C,0.200000*%
%ADD12C,0.110000*%
G04 APERTURE END LIST*
D10*
X2000000Y-2000000D02*
X17000000Y-2000000D01*
X17000000Y-2000000D02*
X17000000Y-12000000D01*
X17000000Y-12000000D02*
X2000000Y-12000000D01*
X2000000Y-12000000D02*
X2000000Y-2000000D01*
D11*
D12*
X3167890Y-3241620D02*
X3277890Y-3351620D01*
X3277890Y-3241620D02*
X3167890Y-3351620D01*
X3167890Y-3495620D02*
X3277890Y-3605620D01*
X3277890Y-3495620D02*
X3167890Y-3605620D01*
X4016000Y-11316000D02*
X4126000Y-11426000D01*
X4126000Y-11316000D02*
X4016000Y-11426000D01*
X4270000Y-11316000D02*
X4380000Y-11426000D01*
X4380000Y-11316000D02*
X4270000Y-11426000D01*
X4524000Y-11316000D02*
X4634000Y-11426000D01*
X4634000Y-11316000D02*
X4524000Y-11426000D01*
X6516000Y-11316000D02*
X6626000Y-11426000D01*
X6626000Y-11316000D02*
X6516000Y-11426000D01*
X6770000Y-11316000D02*
X6880000Y-11426000D01*
X6880000Y-11316000D02*
X6770000Y-11426000D01*
X7024000Y-11316000D02*
X7134000Y-11426000D01*
X7134000Y-11316000D02*
X7024000Y-11426000D01*
X9016000Y-11316000D02*
X9126000Y-11426000D01*
X9126000Y-11316000D02*
X9016000Y-11426000D01*
X9270000Y-11316000D02*
X9380000Y-11426000D01*
X9380000Y-11316000D02*
X9270000Y-11426000D01*
X9524000Y-11316000D02*
X9634000Y-11426000D01*
X9634000Y-11316000D02*
X9524000Y-11426000D01*
X11516000Y-11318000D02*
X11626000Y-11428000D01*
X11626000Y-11318000D02*
X11516000Y-11428000D01*
X11770000Y-11318000D02*
X11880000Y-11428000D01*
X11880000Y-11318000D02*
X11770000Y-11428000D01*
X12024000Y-11318000D02*
X12134000Y-11428000D01*
X12134000Y-11318000D02*
X12024000Y-11428000D01*
X14016000Y-11316000D02*
X14126000Y-11426000D01*
X14126000Y-11316000D02*
X14016000Y-11426000D01*
X14270000Y-11316000D02*
X14380000Y-11426000D01*
X14380000Y-11316000D02*
X14270000Y-11426000D01*
X14524000Y-11316000D02*
X14634000Y-11426000D01*
X14634000Y-11316000D02*
X14524000Y-11426000D01*
D11*
X2247619Y-12320476D02*
X2247619Y-12120476D01*
X2295238Y-12120476D01*
X2323810Y-12130000D01*
X2342857Y-12149048D01*
X2352381Y-12168095D01*
X2361905Y-12206190D01*
X2361905Y-12234762D01*
X2352381Y-12272857D01*
X2342857Y-12291905D01*
X2323810Y-12310952D01*
X2295238Y-12320476D01*
X2247619Y-12320476D01*
X2447619Y-12320476D02*
X2447619Y-12187143D01*
X2447619Y-12225238D02*
X2457143Y-12206190D01*
X2466667Y-12196667D01*
X2485714Y-12187143D01*
X2504762Y-12187143D01*
X2571429Y-12320476D02*
X2571429Y-12187143D01*
X2571429Y-12120476D02*
X2561905Y-12130000D01*
X2571429Y-12139524D01*
X2580952Y-12130000D01*
X2571429Y-12120476D01*
X2571429Y-12139524D01*
X2695238Y-12320476D02*
X2676190Y-12310952D01*
X2666667Y-12291905D01*
X2666667Y-12120476D01*
X2800000Y-12320476D02*
X2780952Y-12310952D01*
X2771429Y-12291905D01*
X2771429Y-12120476D01*
X3028571Y-12320476D02*
X3028571Y-12120476D01*
X3095238Y-12263333D01*
X3161905Y-12120476D01*
X3161905Y-12320476D01*
X3342857Y-12320476D02*
X3342857Y-12215714D01*
X3333333Y-12196667D01*
X3314286Y-12187143D01*
X3276190Y-12187143D01*
X3257143Y-12196667D01*
X3342857Y-12310952D02*
X3323809Y-12320476D01*
X3276190Y-12320476D01*
X3257143Y-12310952D01*
X3247619Y-12291905D01*
X3247619Y-12272857D01*
X3257143Y-12253809D01*
X3276190Y-12244286D01*
X3323809Y-12244286D01*
X3342857Y-12234762D01*
X3438095Y-12187143D02*
X3438095Y-12387143D01*
X3438095Y-12196667D02*
X3457143Y-12187143D01*
X3495238Y-12187143D01*
X3514286Y-12196667D01*
X3523809Y-12206190D01*
X3533333Y-12225238D01*
X3533333Y-12282381D01*
X3523809Y-12301428D01*
X3514286Y-12310952D01*
X3495238Y-12320476D01*
X3457143Y-12320476D01*
X3438095Y-12310952D01*
X3619048Y-12301428D02*
X3628571Y-12310952D01*
X3619048Y-12320476D01*
X3609524Y-12310952D01*
X3619048Y-12301428D01*
X3619048Y-12320476D01*
X3619048Y-12196667D02*
X3628571Y-12206190D01*
X3619048Y-12215714D01*
X3609524Y-12206190D01*
X3619048Y-12196667D01*
X3619048Y-12215714D01*
D12*
X1880000Y-12595000D02*
X1990000Y-12705000D01*
X1990000Y-12595000D02*
X1880000Y-12705000D01*
D11*
X2352381Y-12740476D02*
X2238095Y-12740476D01*
X2295238Y-12740476D02*
X2295238Y-12540476D01*
X2276190Y-12569048D01*
X2257143Y-12588095D01*
X2238095Y-12597619D01*
X2438095Y-12721428D02*
X2447619Y-12730952D01*
X2438095Y-12740476D01*
X2428571Y-12730952D01*
X2438095Y-12721428D01*
X2438095Y-12740476D01*
X2638095Y-12740476D02*
X2523810Y-12740476D01*
X2580952Y-12740476D02*
X2580952Y-12540476D01*
X2561905Y-12569048D01*
X2542857Y-12588095D01*
X2523810Y-12597619D01*
X2761905Y-12540476D02*
X2780952Y-12540476D01*
X2800000Y-12550000D01*
X2809524Y-12559524D01*
X2819048Y-12578571D01*
X2828571Y-12616667D01*
X2828571Y-12664286D01*
X2819048Y-12702381D01*
X2809524Y-12721428D01*
X2800000Y-12730952D01*
X2780952Y-12740476D01*
X2761905Y-12740476D01*
X2742857Y-12730952D01*
X2733333Y-12721428D01*
X2723810Y-12702381D01*
X2714286Y-12664286D01*
X2714286Y-12616667D01*
X2723810Y-12578571D01*
X2733333Y-12559524D01*
X2742857Y-12550000D01*
X2761905Y-12540476D01*
X2952381Y-12540476D02*
X2971428Y-12540476D01*
X2990476Y-12550000D01*
X3000000Y-12559524D01*
X3009524Y-12578571D01*
X3019048Y-12616667D01*
X3019048Y-12664286D01*
X3009524Y-12702381D01*
X3000000Y-12721428D01*
X2990476Y-12730952D01*
X2971428Y-12740476D01*
X2952381Y-12740476D01*
X2933333Y-12730952D01*
X2923809Y-12721428D01*
X2914286Y-12702381D01*
X2904762Y-12664286D01*
X2904762Y-12616667D01*
X2914286Y-12578571D01*
X2923809Y-12559524D01*
X2933333Y-12550000D01*
X2952381Y-12540476D01*
X3104762Y-12740476D02*
X3104762Y-12607143D01*
X3104762Y-12626190D02*
X3114286Y-12616667D01*
X3133333Y-12607143D01*
X3161905Y-12607143D01*
X3180952Y-12616667D01*
X3190476Y-12635714D01*
X3190476Y-12740476D01*
X3190476Y-12635714D02*
X3200000Y-12616667D01*
X3219048Y-12607143D01*
X3247619Y-12607143D01*
X3266667Y-12616667D01*
X3276190Y-12635714D01*
X3276190Y-12740476D01*
X3371428Y-12740476D02*
X3371428Y-12607143D01*
X3371428Y-12626190D02*
X3380952Y-12616667D01*
X3400000Y-12607143D01*
X3428571Y-12607143D01*
X3447619Y-12616667D01*
X3457143Y-12635714D01*
X3457143Y-12740476D01*
X3457143Y-12635714D02*
X3466667Y-12616667D01*
X3485714Y-12607143D01*
X3514286Y-12607143D01*
X3533333Y-12616667D01*
X3542857Y-12635714D01*
X3542857Y-12740476D01*
X3933333Y-12530952D02*
X3761905Y-12788095D01*
X4190476Y-12540476D02*
X4209524Y-12540476D01*
X4228571Y-12550000D01*
X4238095Y-12559524D01*
X4247619Y-12578571D01*
X4257143Y-12616667D01*
X4257143Y-12664286D01*
X4247619Y-12702381D01*
X4238095Y-12721428D01*
X4228571Y-12730952D01*
X4209524Y-12740476D01*
X4190476Y-12740476D01*
X4171428Y-12730952D01*
X4161905Y-12721428D01*
X4152381Y-12702381D01*
X4142857Y-12664286D01*
X4142857Y-12616667D01*
X4152381Y-12578571D01*
X4161905Y-12559524D01*
X4171428Y-12550000D01*
X4190476Y-12540476D01*
X4342857Y-12721428D02*
X4352381Y-12730952D01*
X4342857Y-12740476D01*
X4333333Y-12730952D01*
X4342857Y-12721428D01*
X4342857Y-12740476D01*
X4476190Y-12540476D02*
X4495238Y-12540476D01*
X4514286Y-12550000D01*
X4523810Y-12559524D01*
X4533333Y-12578571D01*
X4542857Y-12616667D01*
X4542857Y-12664286D01*
X4533333Y-12702381D01*
X4523810Y-12721428D01*
X4514286Y-12730952D01*
X4495238Y-12740476D01*
X4476190Y-12740476D01*
X4457143Y-12730952D01*
X4447619Y-12721428D01*
X4438095Y-12702381D01*
X4428571Y-12664286D01*
X4428571Y-12616667D01*
X4438095Y-12578571D01*
X4447619Y-12559524D01*
X4457143Y-12550000D01*
X4476190Y-12540476D01*
X4714286Y-12607143D02*
X4714286Y-12740476D01*
X4666667Y-12530952D02*
X4619048Y-12673809D01*
X4742857Y-12673809D01*
X4800000Y-12540476D02*
X4923810Y-12540476D01*
X4857143Y-12616667D01*
X4885714Y-12616667D01*
X4904762Y-12626190D01*
X4914286Y-12635714D01*
X4923810Y-12654762D01*
X4923810Y-12702381D01*
X4914286Y-12721428D01*
X4904762Y-12730952D01*
X4885714Y-12740476D01*
X4828571Y-12740476D01*
X4809524Y-12730952D01*
X4800000Y-12721428D01*
X4990476Y-12540476D02*
X5114286Y-12540476D01*
X5047619Y-12616667D01*
X5076190Y-12616667D01*
X5095238Y-12626190D01*
X5104762Y-12635714D01*
X5114286Y-12654762D01*
X5114286Y-12702381D01*
X5104762Y-12721428D01*
X5095238Y-12730952D01*
X5076190Y-12740476D01*
X5019048Y-12740476D01*
X5000000Y-12730952D01*
X4990476Y-12721428D01*
X5190476Y-12540476D02*
X5190476Y-12578571D01*
X5266667Y-12540476D02*
X5266667Y-12578571D01*
X5561905Y-12816667D02*
X5552381Y-12807143D01*
X5533333Y-12778571D01*
X5523810Y-12759524D01*
X5514286Y-12730952D01*
X5504762Y-12683333D01*
X5504762Y-12645238D01*
X5514286Y-12597619D01*
X5523810Y-12569048D01*
X5533333Y-12550000D01*
X5552381Y-12521428D01*
X5561905Y-12511905D01*
X5742857Y-12740476D02*
X5628571Y-12740476D01*
X5685714Y-12740476D02*
X5685714Y-12540476D01*
X5666667Y-12569048D01*
X5647619Y-12588095D01*
X5628571Y-12597619D01*
X5809524Y-12540476D02*
X5942857Y-12540476D01*
X5857143Y-12740476D01*
X6171428Y-12740476D02*
X6171428Y-12540476D01*
X6257143Y-12740476D02*
X6257143Y-12635714D01*
X6247619Y-12616667D01*
X6228571Y-12607143D01*
X6200000Y-12607143D01*
X6180952Y-12616667D01*
X6171428Y-12626190D01*
X6380952Y-12740476D02*
X6361905Y-12730952D01*
X6352381Y-12721428D01*
X6342857Y-12702381D01*
X6342857Y-12645238D01*
X6352381Y-12626190D01*
X6361905Y-12616667D01*
X6380952Y-12607143D01*
X6409524Y-12607143D01*
X6428571Y-12616667D01*
X6438095Y-12626190D01*
X6447619Y-12645238D01*
X6447619Y-12702381D01*
X6438095Y-12721428D01*
X6428571Y-12730952D01*
X6409524Y-12740476D01*
X6380952Y-12740476D01*
X6561905Y-12740476D02*
X6542857Y-12730952D01*
X6533333Y-12711905D01*
X6533333Y-12540476D01*
X6714286Y-12730952D02*
X6695238Y-12740476D01*
X6657143Y-12740476D01*
X6638095Y-12730952D01*
X6628571Y-12711905D01*
X6628571Y-12635714D01*
X6638095Y-12616667D01*
X6657143Y-12607143D01*
X6695238Y-12607143D01*
X6714286Y-12616667D01*
X6723809Y-12635714D01*
X6723809Y-12654762D01*
X6628571Y-12673809D01*
X6800000Y-12730952D02*
X6819048Y-12740476D01*
X6857143Y-12740476D01*
X6876190Y-12730952D01*
X6885714Y-12711905D01*
X6885714Y-12702381D01*
X6876190Y-12683333D01*
X6857143Y-12673809D01*
X6828571Y-12673809D01*
X6809524Y-12664286D01*
X6800000Y-12645238D01*
X6800000Y-12635714D01*
X6809524Y-12616667D01*
X6828571Y-12607143D01*
X6857143Y-12607143D01*
X6876190Y-12616667D01*
X6952381Y-12816667D02*
X6961905Y-12807143D01*
X6980952Y-12778571D01*
X6990476Y-12759524D01*
X7000000Y-12730952D01*
X7009524Y-12683333D01*
X7009524Y-12645238D01*
X7000000Y-12597619D01*
X6990476Y-12569048D01*
X6980952Y-12550000D01*
X6961905Y-12521428D01*
X6952381Y-12511905D01*
X7314286Y-12816667D02*
X7304762Y-12807143D01*
X7285714Y-12778571D01*
X7276190Y-12759524D01*
X7266667Y-12730952D01*
X7257143Y-12683333D01*
X7257143Y-12645238D01*
X7266667Y-12597619D01*
X7276190Y-12569048D01*
X7285714Y-12550000D01*
X7304762Y-12521428D01*
X7314286Y-12511905D01*
X7390476Y-12607143D02*
X7390476Y-12740476D01*
X7390476Y-12626190D02*
X7400000Y-12616667D01*
X7419048Y-12607143D01*
X7447619Y-12607143D01*
X7466667Y-12616667D01*
X7476190Y-12635714D01*
X7476190Y-12740476D01*
X7600000Y-12740476D02*
X7580952Y-12730952D01*
X7571428Y-12721428D01*
X7561905Y-12702381D01*
X7561905Y-12645238D01*
X7571428Y-12626190D01*
X7580952Y-12616667D01*
X7600000Y-12607143D01*
X7628571Y-12607143D01*
X7647619Y-12616667D01*
X7657143Y-12626190D01*
X7666667Y-12645238D01*
X7666667Y-12702381D01*
X7657143Y-12721428D01*
X7647619Y-12730952D01*
X7628571Y-12740476D01*
X7600000Y-12740476D01*
X7723809Y-12607143D02*
X7800000Y-12607143D01*
X7752381Y-12540476D02*
X7752381Y-12711905D01*
X7761905Y-12730952D01*
X7780952Y-12740476D01*
X7800000Y-12740476D01*
X8019048Y-12607143D02*
X8019048Y-12807143D01*
X8019048Y-12616667D02*
X8038095Y-12607143D01*
X8076190Y-12607143D01*
X8095238Y-12616667D01*
X8104762Y-12626190D01*
X8114286Y-12645238D01*
X8114286Y-12702381D01*
X8104762Y-12721428D01*
X8095238Y-12730952D01*
X8076190Y-12740476D01*
X8038095Y-12740476D01*
X8019048Y-12730952D01*
X8228571Y-12740476D02*
X8209524Y-12730952D01*
X8200000Y-12711905D01*
X8200000Y-12540476D01*
X8390476Y-12740476D02*
X8390476Y-12635714D01*
X8380952Y-12616667D01*
X8361905Y-12607143D01*
X8323809Y-12607143D01*
X8304762Y-12616667D01*
X8390476Y-12730952D02*
X8371428Y-12740476D01*
X8323809Y-12740476D01*
X8304762Y-12730952D01*
X8295238Y-12711905D01*
X8295238Y-12692857D01*
X8304762Y-12673809D01*
X8323809Y-12664286D01*
X8371428Y-12664286D01*
X8390476Y-12654762D01*
X8457143Y-12607143D02*
X8533333Y-12607143D01*
X8485714Y-12540476D02*
X8485714Y-12711905D01*
X8495238Y-12730952D01*
X8514286Y-12740476D01*
X8533333Y-12740476D01*
X8676190Y-12730952D02*
X8657143Y-12740476D01*
X8619048Y-12740476D01*
X8600000Y-12730952D01*
X8590476Y-12711905D01*
X8590476Y-12635714D01*
X8600000Y-12616667D01*
X8619048Y-12607143D01*
X8657143Y-12607143D01*
X8676190Y-12616667D01*
X8685714Y-12635714D01*
X8685714Y-12654762D01*
X8590476Y-12673809D01*
X8857143Y-12740476D02*
X8857143Y-12540476D01*
X8857143Y-12730952D02*
X8838095Y-12740476D01*
X8800000Y-12740476D01*
X8780952Y-12730952D01*
X8771429Y-12721428D01*
X8761905Y-12702381D01*
X8761905Y-12645238D01*
X8771429Y-12626190D01*
X8780952Y-12616667D01*
X8800000Y-12607143D01*
X8838095Y-12607143D01*
X8857143Y-12616667D01*
X8933333Y-12816667D02*
X8942857Y-12807143D01*
X8961905Y-12778571D01*
X8971429Y-12759524D01*
X8980952Y-12730952D01*
X8990476Y-12683333D01*
X8990476Y-12645238D01*
X8980952Y-12597619D01*
X8971429Y-12569048D01*
X8961905Y-12550000D01*
X8942857Y-12521428D01*
X8933333Y-12511905D01*
M02*
