M48
; DRILL file {KiCad (6.0.5)} date Tue Jun 14 20:52:35 2022
; FORMAT={-:-/ absolute / metric / decimal}
; #@! TF.CreationDate,2022-06-14T20:52:35+02:00
; #@! TF.GenerationSoftware,Kicad,Pcbnew,(6.0.5)
; #@! TF.FileFunction,Plated,1,2,PTH
FMAT,2
METRIC
; #@! TA.AperFunction,Plated,PTH,ViaDrill
T1C0.400
; #@! TA.AperFunction,Plated,PTH,ComponentDrill
T2C0.500
; #@! TA.AperFunction,Plated,PTH,ComponentDrill
T3C0.800
; #@! TA.AperFunction,Plated,PTH,ComponentDrill
T4C1.000
; #@! TA.AperFunction,Plated,PTH,ComponentDrill
T5C1.100
; #@! TA.AperFunction,Plated,PTH,ComponentDrill
T6C1.300
; #@! TA.AperFunction,Plated,PTH,ComponentDrill
T7C3.200
%
G90
G05
T1
X31.25Y-73.66
X46.189Y-31.506
X53.292Y-50.707
X56.25Y-73.66
X57.734Y-38.046
X81.25Y-73.66
X85.11Y-36.56
X86.04Y-47.97
X86.09Y-49.24
X86.14Y-50.51
X86.65Y-35.27
X103.44Y-48.79
X106.25Y-73.66
X107.1Y-29.42
X109.635Y-40.325
X109.76Y-42.89
X110.28Y-27.64
X127.44Y-27.67
X127.64Y-29.35
X131.25Y-73.66
X151.91Y-73.63
T2
X22.6Y-25.0
X22.6Y-115.0
X23.303Y-23.303
X23.303Y-26.697
X23.303Y-113.303
X23.303Y-116.697
X25.0Y-22.6
X25.0Y-27.4
X25.0Y-112.6
X25.0Y-117.4
X26.697Y-23.303
X26.697Y-26.697
X26.697Y-113.303
X26.697Y-116.697
X27.4Y-25.0
X27.4Y-115.0
X162.6Y-25.0
X162.6Y-115.0
X163.303Y-23.303
X163.303Y-26.697
X163.303Y-113.303
X163.303Y-116.697
X165.0Y-22.6
X165.0Y-27.4
X165.0Y-112.6
X165.0Y-117.4
X166.697Y-23.303
X166.697Y-26.697
X166.697Y-113.303
X166.697Y-116.697
X167.4Y-25.0
X167.4Y-115.0
T3
X63.579Y-29.801
X63.579Y-33.801
X63.579Y-46.225
X63.579Y-50.225
X65.579Y-29.801
X65.579Y-33.801
X65.579Y-46.225
X65.579Y-50.225
X78.61Y-30.122
X78.61Y-32.622
T4
X48.805Y-59.955
X48.805Y-62.495
X51.345Y-59.955
X51.345Y-62.495
X53.885Y-59.955
X53.885Y-62.495
X56.425Y-59.955
X56.425Y-62.495
X58.965Y-59.955
X58.965Y-62.495
X61.505Y-59.955
X61.505Y-62.495
X64.045Y-59.955
X64.045Y-62.495
X66.585Y-59.955
X66.585Y-62.495
X69.125Y-59.955
X69.125Y-62.495
X71.665Y-59.955
X71.665Y-62.495
X74.205Y-59.955
X74.205Y-62.495
X76.745Y-59.955
X76.745Y-62.495
X79.285Y-59.955
X79.285Y-62.495
X81.825Y-59.955
X81.825Y-62.495
X84.365Y-59.955
X84.365Y-62.495
X86.905Y-59.955
X86.905Y-62.495
X89.445Y-59.955
X89.445Y-62.495
X91.985Y-59.955
X91.985Y-62.495
X127.63Y-42.47
X127.63Y-45.01
X127.63Y-47.55
X153.38Y-40.49
X153.38Y-43.03
X153.38Y-45.57
X153.38Y-48.11
T5
X29.689Y-32.966
X29.689Y-35.506
X40.71Y-111.17
X43.25Y-111.17
X45.79Y-111.17
X65.71Y-111.17
X68.25Y-111.17
X70.79Y-111.17
X90.71Y-111.17
X93.25Y-111.17
X95.79Y-111.17
X115.71Y-111.19
X118.25Y-111.19
X120.79Y-111.19
X140.71Y-111.17
X143.25Y-111.17
X145.79Y-111.17
T6
X39.5Y-78.7
X39.5Y-93.96
X39.5Y-99.0
X39.5Y-104.04
X47.0Y-78.7
X47.0Y-93.96
X47.0Y-99.0
X47.0Y-104.04
X64.5Y-78.7
X64.5Y-93.96
X64.5Y-99.0
X64.5Y-104.04
X72.0Y-78.7
X72.0Y-93.96
X72.0Y-99.0
X72.0Y-104.04
X89.67Y-78.7
X89.67Y-93.96
X89.67Y-99.0
X89.67Y-104.04
X97.17Y-78.7
X97.17Y-93.96
X97.17Y-99.0
X97.17Y-104.04
X114.5Y-78.17
X114.5Y-93.43
X114.5Y-98.47
X114.5Y-103.51
X122.0Y-78.17
X122.0Y-93.43
X122.0Y-98.47
X122.0Y-103.51
X139.5Y-78.7
X139.5Y-93.96
X139.5Y-99.0
X139.5Y-104.04
X147.0Y-78.7
X147.0Y-93.96
X147.0Y-99.0
X147.0Y-104.04
T7
X25.0Y-25.0
X25.0Y-115.0
X165.0Y-25.0
X165.0Y-115.0
T0
M30
